<svg width="71" height="71" viewBox="0 0 71 71" fill="none" xmlns="http://www.w3.org/2000/svg">
<g clip-path="url(#clip0_12_244)">
<path d="M67.2449 35.5C67.2449 44.2717 63.6927 52.1949 57.9475 57.9475C52.1948 63.6927 44.2717 67.245 35.5 67.245C31.9703 67.245 28.5907 66.6742 25.4215 65.6153C24.4377 65.2849 23.3712 65.8181 23.0483 66.8019C22.7179 67.7857 23.2511 68.8521 24.2349 69.1751C27.7796 70.3617 31.5722 71 35.5 71C55.1087 71 71 55.1087 71 35.5C71 34.4636 70.1588 33.6225 69.1225 33.6225C68.0861 33.6225 67.2449 34.4636 67.2449 35.5Z" fill="#006838"/>
<path d="M5.31711 45.3607C4.30326 42.259 3.75502 38.9471 3.75502 35.5C3.75502 26.7283 7.30728 18.8052 13.0525 13.0525C18.8052 7.30728 26.7283 3.75502 35.5 3.75502C39.8859 3.75502 44.0615 4.64121 47.854 6.24836C48.8078 6.6539 49.9118 6.2033 50.3173 5.24952C50.7229 4.29575 50.2723 3.19177 49.3185 2.78623C45.0678 0.991326 40.3965 0 35.5 0C15.8913 0 0 15.8913 0 35.5C0 39.3451 0.615824 43.0551 1.74233 46.5248C2.06526 47.5086 3.12418 48.0493 4.108 47.7264C5.09181 47.4034 5.63254 46.3445 5.3096 45.3607H5.31711Z" fill="#006838"/>
<path d="M35.5 61.3796C49.7929 61.3796 61.3796 49.7929 61.3796 35.5C61.3796 21.2071 49.7929 9.62036 35.5 9.62036C21.2071 9.62036 9.62036 21.2071 9.62036 35.5C9.62036 49.7929 21.2071 61.3796 35.5 61.3796Z" fill="#F7941D"/>
<path d="M30.2955 48.1544C29.7172 48.1544 29.139 47.9366 28.7034 47.4935C27.8247 46.6148 27.8247 45.1879 28.7034 44.3093L37.5127 35.5L28.7034 26.6907C27.8247 25.812 27.8247 24.3851 28.7034 23.5064C29.5821 22.6277 31.009 22.6277 31.8876 23.5064L42.2891 33.9078C42.7096 34.3284 42.9499 34.9067 42.9499 35.5C42.9499 36.0933 42.7096 36.6715 42.2891 37.0921L31.8876 47.4935C31.4445 47.9366 30.8738 48.1544 30.2955 48.1544Z" fill="white"/>
</g>
<defs>
<clipPath id="clip0_12_244">
<rect width="71" height="71" fill="white"/>
</clipPath>
</defs>
</svg>
