<svg width="431" height="265" viewBox="0 0 431 265" fill="none" xmlns="http://www.w3.org/2000/svg">
<path d="M155.118 52.027L153.662 56.236C153.537 57.538 153.682 58.845 153.637 60.1519C153.617 60.7483 154.006 61.9807 153.148 61.8664L153.632 20.8093C153.362 18.0016 152.405 18.4836 152.161 18.091C151.996 17.8227 153.033 17.3108 153.038 16.4859C153.048 15.0448 150.994 9.89647 150.107 8.58456C147.928 5.36936 139.91 2.33306 136.091 2.34797C133.189 2.35791 128.522 7.54595 126.722 9.73745C125.86 7.73479 129.943 4.27112 131.459 3.14307C140.015 -3.20284 154.32 0.946602 157.935 11.1189C158.862 13.7279 159.44 22.0765 159.585 25.2121C160.368 41.9242 159.784 59.1481 160.039 75.9099C160.119 81.0283 161.44 89.1781 160.906 94.0283C160.817 94.8383 159.745 95.7079 160.064 96.7912C161.32 97.0099 160.951 96.5974 161.27 95.8073C163.988 89.0837 162.911 81.5551 163 74.3942C163.04 71.4473 164.102 70.8808 161.555 68.0085C162.133 64.2268 159.535 56.1516 162.028 53.2544C162.776 52.3848 165.304 51.1424 165.778 50.069C165.947 49.6764 164.057 47.8427 165.618 46.2575C166.79 45.0698 169.113 46.4215 169.422 46.1184C169.552 45.9941 169.771 43.738 171.417 43.425C171.576 41.79 169.582 43.5144 168.68 43.6535C167.852 43.7778 165.204 43.5144 165.02 43.6983C164.835 43.8821 164.925 48.131 162.776 48.0912C160.478 48.0515 164.038 46.0289 164.028 45.8749C163.973 44.7717 161.171 41.9441 164.367 41.3527C167.857 40.7067 168.515 42.5056 169.687 42.5205C169.911 42.5205 171.771 41.7205 171.831 41.626C172.409 40.7166 171.626 33.1532 171.721 31.3145C171.766 30.3853 171.736 29.61 172.898 29.9082L176.358 129.743L198.581 130.23C198.546 129.062 197.588 128.6 197.234 127.398C196.761 125.803 196.836 120.873 195.863 120.401C194.577 119.775 195.494 122.389 194.881 122.369C194.607 117.404 189.89 122.09 186.983 122.11C182.64 122.135 183.299 118.17 186.734 116.714C189.426 115.571 191.879 116.063 194.632 116.465V110.069C192.772 109.259 183.962 111.565 183.279 110.556C183.009 110.159 183.274 109.279 183.782 108.852C185.273 107.61 192.129 107.908 194.138 108.594V102.198C193.46 101.527 186.061 103.579 184.59 103.132C182.007 102.337 185.737 100.727 186.983 100.727H194.143L193.649 93.8394C192.114 93.3673 184.356 95.375 183.772 94.8234C183.498 94.565 183.712 93.1984 184.59 92.94C187.058 92.2144 191.032 92.4878 193.645 92.3685V84.5019L194.627 89.1781V92.3735H197.593V81.7986C197.593 81.7489 196.905 81.0631 196.851 81.0631H183.762C182.77 81.0631 183.697 78.3995 186.031 78.1163C187.188 77.9771 191.8 78.5138 193.33 78.6629C194.587 78.7871 195.908 79.1748 197.095 79.5872V70.2448C196.611 70.4038 196.023 69.7528 195.858 69.7528H184.5C183.877 69.7528 183.438 68.0085 183.972 67.2582C184.979 65.8518 191.077 66.637 192.777 66.9202C193.684 67.0743 196.397 68.2818 196.86 68.2172C198.047 68.0533 197.105 65.166 197.07 64.1225C197.045 63.5261 196.721 61.4042 197.583 61.3943L199.064 78.8567L199.074 85.4908C199.772 85.5058 199.962 83.2149 199.957 82.7875C199.947 81.893 199.543 80.9439 199.538 79.8605C199.453 64.2268 199.319 48.5037 200.007 32.9197C199.339 32.1345 187.94 32.3134 185.966 32.3581C184.899 32.383 183.952 32.8451 183.004 32.8849C180.432 32.9942 179.923 31.6028 183.004 31.3742C188.683 30.9518 194.886 31.5779 200.555 31.886C200.555 27.831 198.596 26.4197 196.591 23.2989C193.699 20.8341 179.155 24.0443 174.877 23.5275C175.087 22.6728 176.019 22.4392 176.737 22.1907C178.028 21.7435 184.939 20.0937 185.986 20.0937H193.889C193.994 20.0937 194.442 20.8242 194.627 20.5856C194.213 16.948 187.168 14.4584 183.942 14.2397C179.574 13.9465 177.789 16.799 173.89 17.1369C175.391 7.80933 191.795 6.76576 198.052 11.0245C206.997 17.1071 204.399 27.1651 204.484 36.0951C204.524 40.0408 205.327 44.8412 205.511 48.8416C205.636 51.54 205.377 54.2781 205.491 56.9765C206.977 57.215 206.284 56.6137 206.488 55.7838C206.877 54.1986 206.503 52.7873 208.149 52.0071C211.504 50.4219 213.449 53.1898 215.578 53.0407C217.208 52.9314 219.542 50.3423 220.305 53.5277C218.639 52.3798 216.336 54.8744 217.343 55.9876C217.887 56.5889 219.736 54.4421 220.479 54.5663C221.511 54.7403 222.165 56.9069 222.613 57.0063C223.994 57.2995 225.106 55.8335 226.343 56.082C227.983 56.4149 232.87 58.6661 232.391 60.9222C255.127 64.8281 278.457 67.129 301.507 69.7031C303.182 69.2807 302.983 62.0552 303.367 60.7582C303.821 59.2226 305.89 59.5705 306.333 58.2387C307.261 55.4658 303.242 51.0579 308.353 48.0216C310.881 46.5209 313.279 46.66 315.642 45.9345C316.739 45.6015 319.457 42.6895 320.554 44.9356C321.027 45.9047 319.163 45.4028 319.571 46.3967L321.546 48.8565L318.584 47.1421V53.5327L321.541 52.5587C318.784 54.9937 318.833 60.1668 321.541 62.3832C320.045 62.3633 320.379 64.4504 319.571 65.34C321.925 64.9673 323.725 63.4566 325.53 62.0751C324.946 59.2624 324.253 56.4696 323.655 53.6569C323.266 51.8232 324.248 50.7151 322.044 49.8553L323.52 50.1038L324.767 39.2904C325.849 36.9001 329.858 37.7201 330.969 36.1249C331.967 34.6937 330.71 32.5569 332.63 31.3841C333.851 30.6387 335.088 31.081 336.394 30.7083C339.979 29.6796 338.982 30.2362 342.023 29.9331C343.559 29.779 346.167 27.2496 347.722 30.425L345.254 30.435C344.382 31.2052 348.106 32.9644 348.72 33.1781C349.458 33.4315 350.345 32.9445 350.704 33.1532C351.427 33.5707 352.938 35.9709 354.653 36.5622C356.543 37.2132 359.709 36.3485 360.063 39.2805L357.111 39.529C359.764 42.4013 359.594 41.5167 361.05 39.1364C361.997 37.5859 362.91 40.0607 363.543 40.488C366.33 42.3764 368.045 41.6658 370.648 41.7751C372.947 41.8695 376.133 44.235 376.357 46.665C376.158 46.9035 372.413 42.6597 370.932 43.9567C373.076 45.6015 373.017 47.8626 374.677 50.0641C375.22 50.7846 376.956 53.001 377.848 52.3152L376.861 50.1088C381.054 51.3263 379.134 55.4807 379.917 58.1244C380.206 59.0885 381.627 59.4214 381.807 60.7085C382.016 62.2043 380.047 65.5785 380.311 65.8419C380.376 65.9065 381.403 65.7524 382.036 66.3338C384.115 68.2322 379.827 72.2574 379.802 74.4439C379.763 77.6889 382.211 77.5696 383.377 79.7661C384.724 82.3005 384.779 89.3272 384.16 92.0554C383.647 94.3264 381.069 95.0321 380.291 96.1949C379.658 97.1391 379.468 98.9032 378.556 100.24C377.319 102.054 374.772 103.664 373.395 105.428C372.633 106.407 372.568 107.535 371.935 108.395C368.619 112.882 360.945 107.162 358.068 109.96C357.335 110.671 353.416 116.212 352.753 117.325C349.358 123.054 350.784 128.759 352.499 134.713C366.191 134.3 379.748 136.298 393.404 136.174L400.076 137.148C384.065 137.868 368.145 135.011 352.175 136.666L354.643 138.385L352.175 138.629C352.155 139.513 351.941 140.686 352.993 141.014C356.627 141.143 360.177 142.306 363.787 142.559C368.135 142.862 372.184 142.256 376.616 143.071C377.419 143.22 377.474 142.738 377.364 144.03C367.617 145.253 357.779 144.994 347.957 145.044C306.518 141.168 264.611 142.291 223.057 142.092C217.752 142.067 212.158 142.45 206.992 141.57C206.847 140.974 207.506 140.934 207.954 140.825C212.881 139.632 220.798 139.339 225.979 139.096C262.995 137.381 300.156 139.921 337.097 141.595C338.523 141.66 347.363 141.953 347.737 141.575C347.957 141.352 347.697 138.445 346.88 138.137C345.763 137.714 340.189 137.217 338.618 137.133C251.193 132.293 161.535 136.725 73.8704 135.657C66.0374 136.676 58.0348 136.293 50.2068 136.149C-6.15019 135.1 -62.552 141.575 -118.71 146.008C-121.801 146.252 -132.281 148.279 -134.321 145.809C-135.203 144.741 -134.545 142.281 -134.765 142.072C-135.059 141.784 -138.813 142.723 -138.659 139.861C-138.459 136.208 -132.326 136.695 -131.539 135.692C-130.806 134.762 -133.199 133.614 -131.539 131.771C-129.225 129.207 -125.615 133.326 -122.688 133.247C-122.294 133.237 -115.848 131.652 -115.513 131.497C-113.609 130.593 -115.239 128.337 -115.394 126.95C-115.484 126.14 -114.796 124.719 -115.02 124.386C-115.359 123.884 -119.083 123.795 -119.951 123.879C-120.455 124.381 -118.545 127.845 -119.946 128.302C-119.936 126.906 -122.484 122.175 -123.646 122.076C-124.254 122.021 -125.052 122.856 -125.934 122.667C-126.907 122.458 -127.62 120.918 -128.592 120.913C-130.157 120.903 -130.631 123.83 -132.132 123.795C-133.468 123.765 -136.116 119.993 -139.327 121.519C-142.398 122.98 -141.64 126.473 -141.685 129.286C-145.215 129.147 -145.011 125.976 -143.904 123.387C-142.483 120.068 -138.968 119.293 -135.757 120.436C-137.337 117.389 -133.737 116.376 -133.732 114.298C-133.732 113.155 -134.56 112.49 -134.67 111.724C-134.784 110.894 -134.246 110.164 -134.46 109.09C-134.66 108.092 -137.028 107.416 -136.659 104.583C-136.26 101.507 -129.828 94.8432 -127.605 99.7729C-126.019 96.5527 -125.371 98.1131 -123.75 97.7354C-122.923 97.5416 -120.265 94.2469 -119.457 97.8149C-122.095 96.0508 -122.225 98.9281 -123.237 99.2511C-124.104 99.5294 -125.286 98.7293 -125.371 98.7939C-125.545 98.9181 -126.049 102.143 -126.657 102.277C-129.255 102.839 -129.405 98.2373 -132.606 101.925C-135.652 105.438 -131.175 105.995 -131.793 109.617C-129.654 109.319 -130.147 106.238 -128.547 104.737C-127.161 103.43 -125.266 103.41 -123.521 104.091C-122.01 104.265 -121.826 107.297 -120.749 107.093C-119.168 106.795 -119.153 105.378 -118.291 104.375C-117.219 103.132 -115.304 103.117 -115.982 100.275C-114.626 102.292 -111.325 102.153 -111.51 99.5691C-111.535 99.1815 -114.511 99.0126 -113.3 95.3302C-113.22 95.0917 -110.767 91.3448 -110.577 91.156C-109.49 90.0527 -107.79 90.3211 -107.207 89.8341C-105.94 88.7806 -107.042 88.9048 -104.165 87.2103C-103.358 86.7332 -102.994 85.62 -101.902 85.5157C-101.607 85.4859 -96.437 85.9331 -95.9883 86.0176C-95.7639 86.0574 -92.4681 87.6078 -91.9246 87.8712C-89.6311 88.9943 -89.8355 91.9063 -91.0671 93.8593C-91.9895 95.3253 -100.157 102.441 -101.922 103.709C-103.836 105.085 -105.571 105.344 -107.127 106.397C-108.094 107.053 -110.263 109.245 -107.91 109.568L-70.3003 79.6618C-68.8045 79.6618 -68.1314 81.3464 -66.835 81.5849C-64.3221 82.0421 -60.3831 81.7986 -57.7106 82.0818C-57.5959 81.3861 -58.5832 81.3712 -59.0818 81.247C-61.5897 80.6258 -64.5165 80.591 -67.0893 80.114L-64.8805 79.6369C-38.2851 83.9801 -11.3356 85.4163 15.524 87.5034C16.6658 86.5096 17.2691 84.3578 16.8702 82.9266C16.6309 82.0669 11.0914 79.8705 13.8986 76.1931C11.0715 75.9198 12.6172 79.6618 10.3037 81.4507C9.42114 82.1365 6.55417 81.898 8.18959 84.0944C8.73306 84.82 11.2211 84.2038 10.9369 86.0226C5.547 86.117 2.03683 85.8586 3.15869 79.5027C3.27837 78.817 5.28273 73.3109 5.61679 72.6102C6.70375 70.3392 10.2638 69.5739 12.4127 70.5429C13.6393 71.0995 14.2177 73.7631 16.1523 72.2822C17.8674 70.9703 15.6686 70.2497 15.0055 68.9428C13.1856 65.3549 16.2719 62.9 19.3433 61.6775C20.7693 61.111 21.8662 61.4837 22.7737 60.6986C21.8164 58.7058 20.4951 56.4845 21.7765 54.2731C21.8912 54.0793 24.7881 51.1921 24.9825 51.0778C29.1358 48.7074 33.5335 54.5514 35.159 53.3538C36.5849 52.3053 34.3762 47.4849 36.3855 45.2189C37.5373 43.9219 40.9078 43.8772 42.4236 44.5828C43.6452 45.1493 44.8967 48.0912 45.3454 48.1856C46.931 48.5186 48.3819 46.7644 49.7381 46.6799C50.0472 46.66 55.1479 47.803 55.7861 47.9918C57.6908 48.5484 59.0121 50.0144 60.0641 51.5897C61.7743 50.9039 62.1782 47.47 63.2651 46.9184C65.0751 45.9941 65.9327 47.4999 66.4911 47.5048C67.0146 47.5098 67.7825 46.0538 69.3281 46.2774C72.0056 46.665 71.5968 48.454 72.2799 49.0255C72.7834 49.4479 74.005 49.2739 75.1319 50.3722C76.867 52.0667 77.6947 57.9753 80.7461 57.5281C81.0752 57.4784 80.5417 56.3802 83.279 56.4994C89.4417 56.7727 88.6639 60.0277 88.6789 65.1263C88.6888 67.5116 89.0528 75.4974 84.8446 72.7891C83.6679 72.0288 83.6679 64.2666 83.5183 62.4279C82.1372 62.1446 82.5461 62.9199 82.5261 63.9038C80.427 62.6466 77.1313 63.6206 74.3889 63.4019C69.9664 63.0491 64.9355 61.6278 60.5428 61.444C59.7999 61.4142 59.1168 61.106 59.3212 62.1695C67.9919 70.0211 75.1518 79.1946 82.7704 88.0004C85.5875 91.2603 88.7836 94.1922 91.3564 97.6659C91.6954 98.123 91.835 99.1865 91.9597 99.2759C92.2538 99.4996 98.1872 98.4063 99.324 98.5703C93.256 88.706 83.4884 81.0383 76.6227 71.994C75.7551 70.851 74.02 69.2906 74.8776 67.8296C77.226 69.1614 78.5074 71.8051 80.3073 73.7333C87.1232 81.0582 94.1685 88.1197 100.8 95.6234C101.433 96.344 102.276 98.2572 102.789 98.5603C103.767 99.1418 110.657 99.4002 112.168 99.0573C110.921 97.6907 109.441 96.508 108.234 95.1066C105.153 91.5237 92.7824 77.0975 91.5359 73.8674C91.3215 73.3109 91.0223 71.984 92.1641 72.2524C96.123 76.372 100.351 80.4171 104.081 84.7305C105.896 86.8326 115.374 99.7928 116.865 99.7928H132.915C133.039 98.5107 131.633 98.3467 131.419 97.0944C131.264 96.1949 132.022 96.016 132.411 96.3539C133.398 97.2087 133.653 100.285 136.619 100.285H144.273C142.977 97.5665 140.294 95.8719 138.36 93.6307C136.53 91.5137 127.166 79.9599 126.598 78.2952C125.306 74.5085 129.724 78.1262 130.95 79.3735C137.327 85.8288 142.553 93.6903 148.327 100.672L154.145 100.777L141.102 80.5761C140.284 79.299 137.228 73.2711 136.739 72.8736C134.795 71.3082 120.076 70.0957 116.925 70.2299C108.204 68.0731 99.2293 67.2532 90.4389 65.3698C91.1071 63.9386 90.0301 62.736 90.9126 61.2949C91.137 60.9222 91.8849 60.8029 92.1142 60.4252C92.7225 59.4214 92.6527 58.4474 93.64 57.4933C95.3103 55.8832 99.5783 55.754 99.8027 55.5155C99.9622 55.3465 99.6032 53.1004 100.371 51.8978C101.214 50.5759 103.363 50.7101 104.534 49.6566C105.317 48.9509 105.676 47.3408 105.821 47.2514C106.753 46.66 108.608 47.7781 108.713 47.6738C108.887 47.4899 109.411 43.7877 109.939 42.7392C111.325 39.9861 114.98 39.4494 117.737 39.9215C118.72 40.0905 120.29 41.1192 120.809 41.0893C121.417 41.0496 123.137 39.6283 124.523 40.2942C123.875 37.6157 123.566 18.2749 124.533 17.6785C125.206 17.2611 126.573 17.932 126.503 18.906L128.053 69.2509C130.606 69.7826 139.92 70.5429 141.022 72.7444C141.236 73.1767 140.937 73.8476 141.68 75.0849C143.346 77.8678 146.691 80.9289 148.72 83.5776C148.436 80.2183 150.296 76.2975 145.27 77.182C144.777 75.2688 147.539 76.6901 148.177 76.1434C149.189 75.2837 148.232 71.7405 148.207 70.5628C148.097 64.9027 148.536 59.2525 147.668 53.642C147.265 52.9761 137.048 52.5984 135.393 52.5885C134.65 52.022 135.393 51.6642 136.141 51.5897C138.993 51.3114 143.834 52.9165 146.731 52.8767C147.14 52.8718 147.738 52.7078 147.738 52.345V27.508C148.546 27.4633 148.875 27.339 149.448 28.0149C150.77 29.5852 150.949 45.9941 151.199 49.3833C151.852 58.3132 153.288 67.1836 152.679 76.1931C152.999 76.2279 153.662 75.5372 153.662 75.4576V64.3908H154.155V73.4898C154.155 73.7233 154.764 75.0005 155.142 74.7172V52.0965L155.118 52.027ZM339.82 34.818C338.633 35.2453 335.422 35.1907 334.983 36.1349C333.906 38.4456 332.151 50.0839 335.227 50.9685C338.304 51.853 337.516 45.7904 337.915 43.4846C338.423 40.5725 339.266 37.7151 339.82 34.813V34.818ZM328.895 51.9673C329.897 51.1076 331.413 39.4345 331.912 37.2729C330.785 38.0083 327.414 38.3214 327.025 39.5737C326.721 40.5576 327.639 41.795 327.494 42.9081C327.35 44.0213 326.148 44.23 325.958 45.86C325.884 46.4911 326.268 51.8133 326.487 52.0319C326.572 52.1164 328.731 52.1164 328.9 51.9673H328.895ZM341.305 42.1925L345.733 39.9812C341.854 36.0057 341.041 36.592 341.305 42.1925ZM117.084 50.0591C117.244 49.905 118.515 46.4613 118.585 45.8947C118.819 43.9517 118.854 40.4582 116.576 42.5205C117.014 44.8661 116.232 47.1669 116.102 49.3286C116.052 50.1634 116.606 50.5312 117.084 50.0591ZM124.005 47.1073C124.758 45.6115 124.518 41.313 122.045 41.9043C121.736 41.9789 119.707 42.6398 119.622 42.7342C119.463 42.9181 119.482 45.5071 119.587 45.6115C119.697 45.7208 120.978 45.6015 121.547 45.855C122.479 46.2674 122.973 47.1719 124.005 47.1073ZM115.115 42.1925C115 42.0783 113.978 42.1379 113.609 42.4112C112.672 43.097 113.32 46.3569 113.145 47.5992C115.374 48.0415 115.424 42.4957 115.115 42.1925ZM172.404 53.0059C171.347 51.7537 173.117 45.7059 171.666 45.6413C170.375 46.4215 171.517 47.2216 171.317 48.2154C171.073 49.4031 169.263 51.1325 169.936 53.0109H172.404V53.0059ZM43.5105 47.6042C41.7455 47.5645 40.2547 46.5557 38.7988 48.0763C35.6675 51.3362 41.1521 49.0752 42.7826 48.5931C43.4956 48.3844 43.6501 48.8913 43.5105 47.6042ZM316.111 47.5992C313.733 45.3233 309.918 56.728 315.622 54.9788C315.238 53.7166 316.689 48.1508 316.111 47.5992ZM313.149 48.0962C307.814 49.3236 309.23 51.4505 310.691 55.4658C311.913 54.9738 311.579 52.6829 311.898 51.5102C312.237 50.2678 313.035 49.3286 313.154 48.0912L313.149 48.0962ZM351.507 57.7666C351.956 57.384 354.718 50.884 354.663 50.3125C354.528 48.8565 351.492 47.9223 350.195 48.0912C349.687 52.0816 350.136 56.241 348.221 59.8985C348.964 58.8301 350.884 58.3033 351.507 57.7666ZM108.698 56.9467V49.8156C108.698 49.6665 107.89 48.8963 107.471 49.0801C106.584 51.0828 103.477 51.0579 102.53 52.0319C102.066 52.509 101.338 55.764 101.423 56.2311C101.618 57.3343 104.599 56.7976 105.766 57.1604C106.788 57.4784 107.506 58.7456 108.339 59.0438C109.221 59.3618 109.845 58.7953 110.328 58.8847C110.926 58.9941 110.981 61.0166 112.642 60.3805L111.649 49.5622C108.159 50.1833 109.286 52.4643 109.186 55.2223C109.166 55.8236 109.56 57.051 108.693 56.9367L108.698 56.9467ZM202.031 83.0061C201.891 71.6908 202.525 60.3109 201.293 49.0702L201.024 76.8839L202.026 83.0061H202.031ZM114.621 60.8775V53.2544C114.621 52.2506 114.287 50.8443 114.616 49.5671C112.303 50.6504 113.679 52.6432 113.534 54.129C113.454 54.949 112.721 55.7838 112.672 56.733C112.612 57.9455 113.484 59.491 113.14 60.8824H114.621V60.8775ZM120.549 50.0591C119.133 49.8355 119.727 50.3523 119.492 51.1971C118.999 52.9662 118.7 55.6099 119.433 57.3144C119.737 58.025 119.562 58.0499 120.549 57.9256V50.0591ZM346.73 50.0641C345.788 49.9299 345.269 50.725 344.407 50.9436C343.704 51.1225 341.884 50.9536 341.789 51.043C341.63 51.1921 341.704 55.2571 341.849 55.4161C341.964 55.5453 343.09 55.5851 343.609 55.8584C344.576 56.3702 346.486 58.4574 346.735 56.7032C347.064 54.3775 345.668 52.3549 346.73 50.0591V50.0641ZM358.447 51.1822C358.213 50.9635 356.234 50.4715 356.124 50.5461C355.79 50.7846 353.845 58.1343 354.139 58.4176L358.587 58.9145C358.378 56.6783 360.372 52.9513 358.452 51.1822H358.447ZM337.845 55.4708C338.628 47.6489 333.991 54.616 334.883 55.4708H337.845ZM115.613 57.9306C118.351 56.6883 119.029 56.2758 118.565 53.0109C115.1 54.1837 115.379 54.1837 115.613 57.9306ZM330.93 53.0159H326.981L328.711 57.9306C328.536 55.436 330.336 55.0086 330.93 53.0159ZM36.1013 54.9838C33.7579 55.5304 31.5441 53.319 29.43 53.4532C28.8716 53.488 25.1919 55.6149 24.9775 55.9528C24.0152 57.4834 26.583 61.6726 25.7354 63.8342C15.5639 62.6863 21.1582 67.4072 20.3056 73.6687C23.2374 70.9703 28.0489 76.3074 29.3652 76.054C29.8688 75.9596 31.3496 74.2004 31.918 73.6538C32.4117 73.1817 33.9324 73.2065 32.8853 72.1828C30.2427 73.8873 28.0339 73.7482 28.717 70.0062C29.1957 67.3774 33.4737 65.2207 33.5983 64.5101C33.703 63.9038 32.4715 62.9398 32.2521 62.0105C31.3596 58.2735 33.8277 57.1604 36.1013 54.9887V54.9838ZM172.399 55.4708C170.111 55.5055 171.083 58.4275 170.923 59.8935C172.394 59.1332 172.414 56.897 172.399 55.4708ZM40.5488 62.8453C42.6928 63.2329 42.274 58.9145 41.2868 58.9245C39.1926 58.9394 40.4392 61.5533 40.5488 62.8453ZM87.4623 70.4684C87.7515 68.411 87.4623 65.3102 87.4623 63.0938C87.4623 62.8255 86.6745 57.7616 85.4778 59.168C86.3055 63.3025 86.6396 67.4818 86.48 71.7008C86.9786 71.8797 87.4324 70.6771 87.4623 70.4734V70.4684ZM119.557 60.3905C118.206 61.7521 115.509 58.9891 115.12 59.4065C114.826 59.7246 115.095 61.0365 115.937 61.2949C116.466 61.4589 120.141 61.9906 119.562 60.3905H119.557ZM312.651 59.8985C310.711 58.3878 310.681 65.017 310.567 65.4344C310.372 66.1699 309.405 66.7811 309.31 67.5861C309.19 68.6297 310.562 70.3541 310.188 71.7008C312.491 70.0708 312.327 67.4669 312.765 65.176C312.88 64.5647 313.463 64.0082 313.558 63.4566C313.683 62.7459 312.885 60.0824 312.646 59.8985H312.651ZM57.8304 62.3434C57.0376 60.7681 52.8693 61.1259 51.6278 61.8365C47.4694 66.3935 42.7975 70.4237 38.3749 74.7023C37.632 75.4229 37.1284 76.7596 36.4204 77.4305C34.9047 78.8567 31.2998 80.75 30.3873 81.9974C29.5397 83.1602 29.6195 84.333 28.9613 85.4958C26.9869 88.9992 24.6484 91.8169 20.2956 90.3907L23.741 95.0967L25.1022 94.9426C34.3363 85.9182 41.9649 75.2986 51.7175 66.8457C54.1756 65.4095 53.6671 67.0892 54.2305 67.2482C55.8908 67.7203 57.8752 66.9103 56.4642 70.0957C55.1728 73.0127 44.2086 84.6311 41.2918 87.9358C36.6697 93.1636 30.8361 97.5466 27.7946 104.022C28.383 113.071 29.2106 122.14 29.1807 131.209L87.9559 130.717C87.2728 124.406 87.6168 118.1 87.4822 111.759C87.4573 110.691 86.9737 109.741 86.9487 108.807C86.8889 106.81 88.2102 104.568 87.0036 102.402C81.3494 95.2557 75.9446 87.8513 70.1658 80.8097C66.7155 76.6056 60.0292 70.4485 57.4215 66.4481C56.3844 64.8579 55.2227 62.8503 57.8304 62.3434ZM247.962 64.3262L232.426 61.8763C229.923 62.7956 227.809 65.0319 227.719 67.765C228.247 68.3514 230.172 65.3052 232.062 66.3984C232.341 66.5624 235.387 70.3591 236.345 71.2237C245.888 79.8705 255.426 88.1097 263.778 97.9988C269.746 98.9579 275.789 99.5194 281.792 100.22C284.5 100.538 286.245 99.3654 288.728 101.189L308.702 103.172C307.909 102.317 308.812 99.8822 308.707 99.7431C308.577 99.5691 306.074 99.594 305.855 96.9453C305.745 95.6185 308.143 93.422 307.715 92.8555C304.035 92.2989 300.161 85.6996 302.559 82.544C303.746 80.9786 306.513 82.2806 306.757 80.2929C307.076 77.7187 304.339 76.4366 303.272 74.4041C282.351 69.6236 260.896 67.2979 239.571 64.8033C239.441 63.9784 240.772 64.2666 241.311 64.2964C242.627 64.3709 243.829 64.7586 245.225 64.8331C245.803 64.8629 247.962 65.176 247.962 64.3212V64.3262ZM345.249 83.4981C344.392 80.6507 345.01 77.7436 344.751 74.9011C344.511 72.2772 343.654 69.554 343.464 66.9451C343.38 65.822 344.442 63.3671 343.31 62.5671C342.647 62.0999 340.428 62.3881 339.939 62.9696C339.027 64.043 338.259 73.4898 338.319 75.4179C338.483 80.7351 339.002 83.9006 345.254 83.5031L345.249 83.4981ZM316.605 67.765C317.218 66.5525 318.22 63.5261 315.976 63.4466C312.227 63.3125 315.328 66.2692 316.605 67.765ZM318.086 79.5723L315.627 68.257C314.845 71.835 312.835 76.4963 313.239 80.1686C313.284 80.591 314.71 84.7852 314.87 84.979C315.797 86.0921 322.578 84.81 319.816 83.0161C319.118 84.4572 316.829 84.01 316.645 82.6981C316.555 82.0719 318.315 80.7799 317.088 79.3288L318.081 79.5723H318.086ZM216.361 79.0754C218.954 76.2528 221.791 73.3904 224.259 70.4684C224.727 69.9168 225.455 69.6683 225.241 68.744C223.476 70.2497 221.571 71.9045 220.055 73.6538C218.754 75.1545 217.159 77.2466 216.361 79.0704V79.0754ZM322.533 70.2299C322.184 69.8671 319.342 69.8074 318.589 69.2409C317.806 73.1618 317.841 77.7038 320.314 81.0432C320.379 79.5325 319.93 75.7906 322.294 75.8105C323.78 75.8204 326.681 80.1885 326.243 81.5352C325.639 81.1228 322.648 77.4206 322.044 78.0964C322.279 80.2283 321.466 83.354 322.598 85.1827C322.877 85.635 323.65 85.8089 323.839 86.1369C324.697 87.6128 325.26 89.1334 325.011 90.8777C326.671 91.4641 328.491 89.193 329.264 89.034C329.793 88.9297 333.019 89.5707 333.323 89.3471C335.387 87.8066 333.956 81.898 332.296 85.5902C331.767 86.763 332.355 88.4377 331.433 88.9048C330.416 86.2661 332.919 83.7217 332.929 81.7837C332.929 81.2669 331.179 73.8724 330.964 73.5096C330.536 72.7891 326.816 70.2795 326.003 69.236C326.173 71.2038 323.785 70.9802 323.52 71.2088C323.406 71.3082 324.468 73.3506 324.019 74.1507C322.877 74.4091 321.032 73.7879 321.032 72.4263C321.032 71.2188 323.465 71.1939 322.538 70.2249L322.533 70.2299ZM337.815 80.5264C338.144 80.1885 337.361 71.5964 337.112 71.1989C336.095 69.5987 335.906 71.4076 335.512 71.6908C334.858 72.1629 332.465 73.1966 332.39 73.5047C332.261 74.0215 333.133 80.7749 333.398 81.0482C333.552 81.2072 337.661 80.6854 337.815 80.5264ZM224.259 129.733C224.603 127.83 230.84 122.309 230.636 121.201C229.544 119.203 219.522 110.353 221.292 108.589C224.483 108.444 227.729 108.777 230.92 108.584C233.248 108.439 236.594 107.461 238.808 107.58C240.363 107.664 241.829 108.767 243.495 108.608C244.128 111.54 243.594 130.568 244.572 131.145C245.569 130.842 247.214 131.706 247.713 131.706H260.308C259.395 120.928 260.562 110.089 260.567 99.261L230.92 71.7207L203.018 106.382V130.235L220.305 130.727C219.821 123.214 219.467 115.63 220.055 108.097C220.065 110.75 220.714 113.588 220.818 116.197C220.903 118.309 220.27 130.22 220.798 130.727C220.893 130.817 222.967 130.807 223.421 130.717C223.77 130.648 223.82 130.012 224.259 129.743C224.204 130.041 224.279 130.409 224.259 130.722L240.059 131.209L231.912 122.369C229.04 124.784 227.42 127.795 224.259 129.738V129.733ZM345.748 73.1767V80.3078C345.748 80.4966 346.406 83.7963 346.491 83.9951C346.745 84.5715 347.518 85.1231 348.216 84.979C344.721 80.7153 353.955 74.0016 345.748 73.1817V73.1767ZM380.81 81.5352L378.352 75.1495C377.359 77.2914 378.681 79.2692 378.342 81.5402H380.81V81.5352ZM153.632 77.1075C152.939 76.3571 152.739 77.1622 152.649 77.833C152.405 79.6319 152.834 82.7875 153.288 84.5914C153.412 85.0883 153.427 86.0723 154.125 85.958C153.726 84.6063 154.14 77.6591 153.632 77.1075ZM-68.1015 117.439V137.113L-53.7866 136.124C-54.1506 131.045 -54.4547 125.991 -54.2702 120.888L-52.7695 136.104L-31.0554 134.897C-31.4094 133.341 -31.9179 131.547 -32.0426 129.977C-32.242 127.507 -32.5412 124.038 -32.5761 121.643C-32.601 119.785 -31.1451 113.871 -31.3146 113.493C-31.903 112.172 -41.7653 103.843 -43.675 102.213C-49.1097 97.5665 -55.3223 92.2741 -60.9615 87.9507C-61.9387 87.2003 -66.0123 83.9255 -66.8051 84.0795C-78.5173 94.2618 -91.0022 103.535 -102.45 114.015C-101.707 118.155 -103.033 122.418 -103.198 126.523C-103.383 131.184 -103.024 135.9 -103.173 140.557L-85.6024 138.609C-85.388 134.28 -85.3232 129.897 -85.378 125.539C-85.4428 120.639 -88.2799 113.687 -80.7011 113.518C-72.0653 113.573 -63.3498 112.127 -54.7738 112.768L-54.2852 114.005C-56.9328 113.469 -54.34 115.7 -56.5887 116.882L-68.1164 117.449L-68.1015 117.439ZM20.3555 106.551C20.2258 106.337 19.8469 101.83 19.8918 101.552C20.1311 100.011 23.4219 97.2186 23.2623 96.5428C20.6746 95.4346 16.9002 91.6529 14.4072 91.0914C7.38185 89.5011 -4.42503 89.1185 -12.0536 88.4228C-26.6776 87.091 -41.3664 86.2462 -56.0004 84.974C-57.0973 84.8796 -62.8811 83.7665 -63.1603 83.9951C-63.4844 85.148 -62.8562 84.8249 -62.5321 85.1181C-53.0238 93.5562 -40.8828 100.657 -31.4592 109.105C-31.1451 109.389 -29.9534 110.442 -29.8637 110.576C-29.041 111.804 -30.4072 113.001 -26.917 112.962C-11.0365 112.768 5.12817 110.457 21.0585 111.024C22.4695 111.073 23.8008 111.714 25.2368 111.54L25.7254 105.637C25.2318 105.11 21.2879 108.092 20.3555 106.551ZM341.794 88.4178C344.521 89.2278 347.877 88.383 344.521 85.9679L341.794 88.4178ZM197.593 93.8295H194.627C195.39 96.185 193.3 102.074 197.1 101.209C197.588 102.953 195.459 101.87 195.115 102.188C194.946 102.347 195.24 105.85 195.125 106.616C196.133 106.566 195.759 104.822 196.227 104.275C196.761 103.649 198.242 104.245 198.486 102.332C198.77 100.061 196.776 96.5279 197.598 93.8345L197.593 93.8295ZM91.4112 107.356V130.717H98.8204L99.0647 127.269C99.1395 131.259 100.157 130.876 103.757 130.717L103.014 103.172C105.656 111.371 103.198 120.605 104.225 129.018C104.509 131.348 105.691 130.673 107.71 130.717C107.75 121.867 105.791 112.922 107.222 104.161C108.05 104.161 108.164 105.801 108.204 106.367C108.763 113.578 107.85 122.329 108.673 129.018C109.002 131.701 112.308 130.976 112.612 129.917C112.692 129.639 112.223 124.779 112.118 124.113C111.5 120.202 110.283 116.584 110.149 112.281C110.064 109.568 111.6 107.863 111.171 105.145C112.936 104.742 111.744 106.501 112.228 107.038C112.557 107.401 114.088 106.998 114.985 108.966C115.808 110.765 116.416 120.028 116.132 122.135C115.848 124.242 114.118 124.381 113.739 125.653C113.34 126.99 113.793 128.804 113.639 130.225H122.529L121.048 107.113C122.175 106.829 122.24 107.6 122.394 108.454C122.664 109.935 122.928 112.693 123.018 114.249C123.222 117.707 122.3 127.01 123.092 129.42C123.521 130.722 125.84 130.131 126.976 130.23C127.54 126.16 125.785 122.076 125.476 118.194C125.201 114.741 125.795 110.87 125.984 107.351C126.024 106.586 125.516 105.418 126.722 105.632C127.246 105.836 127.016 108.385 127.595 108.956C127.864 109.22 128.737 109.17 129.205 109.543C131.414 111.292 131.638 122.135 130.551 124.694C129.848 126.344 128.053 126.14 127.929 126.598C127.684 127.472 128.153 129.182 127.959 130.23H132.9C132.461 128.034 131.015 107.311 132.162 107.113C133.114 106.944 133.344 106.819 133.398 107.838C133.558 110.894 132.925 129.246 133.912 130.205C134.186 130.474 137.946 130.071 138.828 130.235C139.117 122.558 138.035 115.044 138.878 107.401C139.097 105.408 140.15 104.275 140.309 107.356C140.703 114.85 139.207 122.657 139.81 130.23H143.764C144.388 129.609 142.383 115.113 142.259 112.788C142.114 110.089 142.553 106.347 143.764 111.287L144.258 130.225H156.11L154.629 104.648L92.4034 100.722C92.917 102.128 93.9591 104.827 93.1414 106.124C92.8472 106.596 91.5508 106.944 91.4162 107.356H91.4112ZM352.654 101.701C351.631 100.707 351.193 103.579 351.173 103.912C350.928 107.525 352.305 112.122 351.681 115.963C353.152 115.228 357.311 109.955 356.548 108.663C356.438 108.474 354.827 107.943 354.05 106.472C353.526 105.478 352.853 101.89 352.659 101.701H352.654ZM317.103 111.779C317.791 117.807 317.103 126.344 317.103 132.68C317.103 132.78 319.003 132.75 319.078 132.68C319.656 132.129 318.454 119.054 318.589 116.699C318.684 115.069 319.452 113.324 319.083 111.53C319.91 111.103 320.564 112.37 320.564 112.758V132.183L346.242 134.151L345.753 110.308C344.377 106.974 340.802 108.146 339.441 110.904C338.922 111.958 338.952 113.28 338.448 114.338C337.257 116.848 336.449 115.267 334.764 115.541C331.094 116.137 333.418 117.161 328.107 116.072C326.148 115.67 323.78 115.943 322.334 113.956C319.98 110.715 323.151 108.405 323.037 107.853C322.762 106.551 320.589 107.952 320.08 106.854C319.512 105.627 322.832 106.735 321.336 104.623C320.878 103.977 316.794 103.952 315.632 103.669C315.214 105.349 318.928 105.483 318.589 106.854C317.507 108.136 315.961 108.171 314.386 108.121C300.131 107.669 284.963 103.023 270.958 102.168C266.779 101.915 268.679 103.535 267.976 103.674L264.276 102.685C265.279 109.612 265.643 116.564 265.757 123.581C265.802 126.215 266.954 128.849 264.775 131.458L316.126 132.193L315.632 109.573C316.694 109.071 317.063 111.347 317.113 111.784L317.103 111.779ZM241.052 109.568H221.791C224.663 113.319 228.148 116.475 231.488 119.859C232.191 119.983 239.421 112.201 240.314 111.043C240.698 110.547 241.266 110.422 241.052 109.563V109.568ZM243.021 109.573C242.074 109.344 242.069 109.915 241.63 110.397C238.703 113.593 235.906 118.045 233.228 121.539C233.278 122.155 238.643 128.074 239.551 129.008C240.104 129.574 243.47 132.983 243.53 130.469L243.016 109.573H243.021ZM326.482 114.974L323.032 109.568C322.723 112.375 322.972 115.243 326.482 114.974ZM-20.6894 134.653L-21.2528 115.292C-21.7215 113.871 -24.8478 114.666 -26.1192 114.487L-24.6433 134.653H-20.6894ZM-20.2008 115.223V133.913C-20.2008 134.971 -15.7134 134.265 -15.2347 133.942C-13.9932 133.108 -15.2447 128.103 -15.2896 126.558C-15.4043 122.548 -15.4491 118.418 -14.776 114.487C-15.9677 114.636 -19.8169 113.96 -20.2058 115.223H-20.2008ZM-9.33626 133.664V115.223C-9.33626 114.204 -12.9611 114.477 -13.7838 114.482C-13.0758 120.326 -14.8358 126.767 -14.3023 132.457C-14.0331 135.289 -11.56 133.058 -9.34125 133.664H-9.33626ZM-3.92644 115.004C-4.1857 114.756 -7.08258 115.118 -7.85542 114.974L-8.34903 133.669L-2.91927 133.172C-2.82951 130.976 -3.19348 115.72 -3.92644 115.004ZM-123.91 120.391C-126.857 120.987 -129.579 116.699 -131.658 116.535C-133.932 116.351 -133.473 120.247 -130.826 119.899C-130.157 121.201 -133.767 121.946 -132.8 122.841C-131.833 123.735 -129.978 119.313 -127.719 119.959C-126.762 120.232 -125.336 122.94 -123.91 120.386V120.391ZM-1.92703 117.439C-2.50542 117.976 -1.48827 131.179 -1.92703 133.177C-0.685516 132.998 2.63516 133.644 3.28833 132.72C3.9415 131.796 2.64514 125.266 2.52049 123.581C2.36093 121.385 2.6252 119.139 2.5155 116.947C1.79254 117.161 -1.7625 117.285 -1.92703 117.439ZM-71.1679 117.578C-72.7883 116.53 -79.674 118.423 -81.9327 117.926C-81.4989 122.185 -81.9177 127.343 -81.459 131.478C-81.4042 131.975 -81.2296 133.167 -80.6961 133.167C-79.7289 133.167 -74.3689 121.971 -72.554 120.883C-72.8332 122.334 -73.7357 123.845 -74.4387 125.147C-75.7001 127.477 -80.1377 133.098 -80.6762 134.673C-81.1249 135.99 -80.9454 137.242 -80.9405 138.584C-77.196 137.799 -72.9828 137.973 -69.0887 137.605L-68.6001 117.439C-69.5624 117.29 -70.2504 117.693 -70.8238 118.418C-71.2676 118.498 -70.9285 117.732 -71.1728 117.578H-71.1679ZM4.00133 117.439V132.437C4.00133 133.167 6.89821 133.823 7.38684 132.367C7.9353 130.717 6.99792 128.71 6.94308 127.045C6.87827 124.928 7.4068 119.79 6.89323 118.239C6.51929 117.101 4.95865 117.449 4.00133 117.434V117.439Z" fill="#006838" fill-opacity="0.25"/>
<path d="M185.737 250.221C186.116 249.893 182.501 244.755 182.306 243.557C181.513 238.652 184.076 233.941 183.757 230.835C183.553 228.833 180.751 226.751 180.756 223.416C180.761 218.899 186.23 212.315 186.235 211.112C186.235 210.083 184.101 209.119 183.787 207.156C183.518 205.482 183.732 199.712 185.562 199.121C187.616 198.455 187.741 200.507 188.728 201.248C189.426 201.77 190.698 201.869 191.54 202.396C192.642 203.086 193.973 206.013 195.365 202.987C196.397 200.736 193.026 198.549 193.669 197.65C197.399 195.091 197.025 198.559 197.588 199.071C198.531 199.926 200.849 196.616 201.448 195.786C203.936 192.343 205.785 187.82 208.049 184.163C211.973 177.817 218.909 164.315 226.108 162.313C227.839 161.831 232.087 161.259 234.111 160.936C244.856 159.212 255.755 164.106 266.47 164.186C271.022 164.221 276.592 162.695 281.269 162.655C289.122 162.591 297.084 163.301 305.012 163.187C308.113 163.142 311.279 162.049 314.62 163.172C314.785 164.27 312.047 162.988 312.651 164.39C312.84 164.832 313.852 165.423 314.231 166.263C314.805 167.54 314.884 168.907 315.363 170.05C316.694 173.205 318.773 176.003 318.569 179.884L315.109 170.542C313.209 170.204 313.852 172.733 313.633 173.007C313.553 173.106 311.419 171.874 311.698 173.687C311.763 174.125 314.77 178.155 315.368 178.9C316.575 179.308 315.607 177.241 315.463 176.838C315.064 175.71 313.882 174.343 314.371 173.499C317.018 174.999 316.729 181.793 319.322 182.339C320.454 182.578 319.99 181.922 319.93 181.246C319.397 175.029 317.452 169.831 315.119 164.156C322.224 165.334 324.866 168.887 327.549 175.134C332.33 186.275 328.072 189.972 326.128 200.448C324.931 206.893 326.587 213.686 329.339 219.58C329.837 220.643 331.029 221.274 331.313 222.532C331.632 223.953 331.323 225.508 331.637 227.128C332.171 229.856 334.235 232.132 334.863 234.244C335.661 236.928 331.144 231.65 330.924 231.531C331.428 233.688 331.119 236.038 332.4 237.922C330.431 238.354 329.837 236.834 328.456 235.959C328.227 238.175 326.233 241.803 326.168 243.796C326.153 244.213 326.382 244.809 326.721 244.809H335.118C335.831 244.809 341.216 234.011 343.02 233.007C343.664 233.315 343.065 234.354 342.871 234.826C342.357 236.103 338.294 244.322 338.822 244.804C341.759 245.629 342.741 241.872 344.342 239.736C345.818 237.763 347.448 235.944 348.944 233.991C349.452 234.776 348.351 236.207 347.962 236.948C346.665 239.442 344.93 241.748 343.753 244.312C345.204 244.089 348.001 244.775 349.183 244.069C349.537 243.855 352.539 239.348 353.376 238.409C354.588 237.052 356.453 235.139 357.829 233.986C358.382 233.524 358.632 232.793 359.559 233.007C358.572 235.114 353.237 241.013 353.596 243.05C353.676 243.493 354.812 243.165 354.618 243.577L352.643 245.296C356.338 245.783 360.048 245.639 363.762 245.793C364.361 245.818 365.597 245.421 365.482 246.28C360.801 246.593 356.119 246.951 351.432 247.289C350.729 247.339 350.2 248.159 349.462 248.203C346.675 248.367 341.699 246.221 339.555 249.237C338.588 247.031 335.98 248.293 335.113 250.211C333.607 247.418 333.368 248.77 331.184 248.77C318.918 248.77 306.847 247.816 294.611 248.74C293.654 248.815 289.605 248.556 289.431 248.74C289.286 248.889 289.157 252.795 289.406 252.939C298.71 252.81 308.034 252.562 317.357 252.656C318.524 252.666 319.606 253.173 320.773 253.188C335.591 253.392 352.668 252.482 367.208 253.665C367.801 253.715 369.85 253.849 369.925 254.639C365.388 255.677 360.536 256.398 355.874 256.632C337.78 257.531 318.773 256.383 300.525 257.084C287.606 257.581 272.124 260.175 259.535 259.583C258.572 259.539 253.576 258.918 253.177 258.629C252.674 258.267 252.649 256.92 253.177 256.557C253.497 256.338 259.953 254.281 260.587 254.197C264.725 253.63 270.055 254.38 274.393 254.172C278.885 253.958 282.959 252.601 287.456 253.163C287.701 252.934 286.673 249.341 286.145 249.212C285.462 249.043 281.782 249.371 281.528 249.729C281.343 249.992 282.221 251.558 282.022 252.179C281.064 252.09 281.393 250.47 280.556 249.953C279.399 249.242 278.033 250.171 276.836 250.211C261.315 250.733 246.676 253.178 230.895 253.183C219.218 253.188 208.817 254.207 197.354 254.659C187.796 255.036 177.624 254.728 168.445 252.174C168.615 251.722 170.519 250.211 170.669 250.211H185.732L185.737 250.221ZM283.767 167.108C285.801 166.815 288.962 167.108 291.176 167.108C291.43 167.108 292.422 168.301 292.427 168.832C292.447 171.903 280.795 172.947 279.07 174.726C278.098 175.73 278.212 179.596 276.976 180.749C276.073 181.589 273.77 181.246 273.645 181.37C272.992 182.016 275.405 185.922 270.314 186.658C266.066 187.274 266.181 185.42 263.932 184.963C263.115 184.799 260.956 185.296 259.814 184.809C259.933 186.156 259.649 189.679 258.712 190.598C258.478 190.827 253.232 193.123 252.664 193.187C251.577 193.307 250.49 193.212 249.428 192.939C248.755 192.765 238.778 187.706 238.329 187.274C235.043 184.073 239.446 181.981 236.115 178.304C233.238 177.738 230.551 170.646 229.195 169.787C227.948 168.996 224.403 170.264 223.556 171.575C220.599 176.157 217.054 183.308 214.69 188.322C214.127 189.525 209.969 198.654 210.427 199.071C215.004 198.127 213.648 193.446 219.582 194.132C222.015 194.41 221.621 196.338 222.768 196.895C223.411 197.208 224.363 196.532 225.355 196.711C226.757 196.964 227.33 198.688 228.322 199.19C229.783 199.936 232.261 199.697 233.423 200.517C235.372 201.889 235.018 206.525 232.655 207.435C232.251 206.943 235.726 202.788 233.149 201.282C231.199 200.145 230.446 202.52 230.212 204.269C229.703 208.076 231.433 212.26 230.187 216.29C231.169 215.604 233.039 216.36 233.637 216.071C235.098 215.366 236.484 210.68 237.801 209.373C239.461 207.733 243.29 205.596 244.307 208.901C244.811 210.54 242.966 211.539 244.013 213.343C246.875 211.549 249.672 213.125 252.11 212.841C253.771 212.652 256.269 211.023 258.328 211.365C253.342 205.357 264.002 197.108 268.121 202.848C269.442 204.692 269.462 208.826 272.349 206.883C273.974 205.79 273.396 203.549 274.253 202.634C274.936 201.909 279.748 199.985 281.024 200.04C281.707 197.526 278.586 194.35 280.77 192.164C282.934 190.002 286.439 192.561 286.963 192.193L287.955 188.75C287.79 189.828 288.224 191.378 287.975 192.338C287.82 192.924 285.058 193.416 287.716 196.114C290.937 195.483 288.578 188.655 289.944 187.766C292.392 186.181 292.298 192.636 293.145 192.671C295.559 191.652 295.02 187.979 294.377 185.798L291.42 186.538C292.477 184.486 294.182 185.216 295.484 184.685C297.693 183.785 298.445 182.265 301.527 182.856C302.185 182.985 305.301 186.017 305.645 186.628C306.473 188.084 305.994 190.4 306.822 191.851C307.341 192.765 308.577 192.889 308.986 194.122C309.44 195.493 308.941 196.954 309.3 198.231C309.779 199.941 314.396 203.404 314.161 205.213C314.136 205.417 312.366 205.472 313.154 206.446C313.219 206.525 314.256 205.78 315.263 206.411C318.29 208.304 319.432 221.717 320.314 221.697C320.573 218.422 320.828 214.904 320.553 211.619C320.11 206.292 317.791 204.344 320.11 198.952C320.354 198.38 321.511 198.693 321.022 197.382C320.524 196.099 314.8 195.275 315.822 191.682C316.156 190.509 318.868 188.566 316.405 188.307C314.246 188.084 315.363 187.895 314.795 187.761C314.117 187.602 313.269 187.88 312.516 187.651C309.275 186.682 310.237 179.964 309.599 177.767C309.061 175.924 305.964 176.207 309.185 172.733C310.886 170.895 313.468 170.984 313.149 167.883C312.905 165.518 311.17 165.056 309.21 166.119L308.936 164.608C296.202 165.771 283.487 166.472 270.683 166.114C271.456 171.6 268.714 176.893 268.225 182.106C268.135 183.05 267.702 185.38 268.968 185.316C272.503 185.137 270.24 183.413 269.92 182.374C269.347 180.515 270.973 171.059 272.159 169.796C274.004 167.819 274.548 171.123 274.882 171.034C277.28 170.388 280.685 167.55 283.777 167.103L283.767 167.108ZM234.046 167.202C233.293 166.343 230.067 167.063 229.195 167.848C230.795 169.041 233.323 171.367 234.36 173.032C234.983 174.035 235.023 176.575 236.355 176.445C237.437 176.341 236.714 175.188 236.594 174.751C236.15 173.071 235.108 171.163 234.47 169.473C234.221 168.817 234.265 167.456 234.046 167.202ZM256.364 167.6C251.248 167.968 246.486 165.955 241.545 167.605C242.482 171.024 243.689 174.324 244.367 177.832C244.916 180.674 244.921 185.569 245.599 187.915C246.172 189.908 252.34 193.51 252.794 190.986C252.893 190.439 251.662 186.205 251.497 184.998C250.924 180.853 250.091 175.337 249.932 171.267C249.807 168.082 251.527 166.601 252.39 169.846C253.118 172.569 253.222 178.498 253.402 181.629C253.591 184.948 252.36 195.692 256.653 187.806L256.373 167.605L256.364 167.6ZM268.704 166.621L263.274 167.605C265.343 171.849 261.718 178.22 262.761 182.518C262.82 182.776 267.477 185.922 267.133 184.178C266.001 178.384 267.328 172.246 268.704 166.621ZM244.502 187.269L239.825 167.585C239.127 166.661 236.754 167.247 235.617 167.108C236.315 168.912 237.357 170.542 237.945 172.41C238.598 174.493 238.643 176.972 239.321 178.905C239.925 180.625 241.914 182.135 241.44 183.944C241.326 184.377 240.653 184.839 240.648 185.062C240.633 185.698 244.178 187.617 244.502 187.264V187.269ZM261.788 167.605H258.328L257.839 182.846C258.502 182.434 261.16 182.468 261.29 182.349C261.674 181.991 260.666 174.329 260.786 172.743C260.921 170.915 261.654 169.389 261.788 167.6V167.605ZM326.975 190.221C328.182 185.092 327.554 178.632 324.024 174.488C324.158 176.361 325.574 177.961 325.879 179.765C326.272 182.086 325.829 184.655 326.003 187.02C326.053 187.676 326.248 189.997 326.98 190.221H326.975ZM300.31 184.322H298.341C299.258 186.499 300.23 188.198 299.827 190.718C300.689 190.832 300.29 189.599 300.315 189.003C300.38 187.448 300.275 185.872 300.315 184.322H300.31ZM297.349 192.193C297.264 189.873 298.675 187.443 297.104 185.311C296.012 186.608 296.152 189.838 296.361 191.463C296.446 192.139 296.735 193.008 297.349 192.193ZM284.505 192.68C282.386 192.189 281.942 193.436 281.992 195.404C282.022 196.591 283.547 196.01 284.265 197.108L284.51 192.68H284.505ZM220.803 198.097C218.161 197.864 216.111 199.007 217.847 201.536L220.803 198.097ZM213.893 206.451C215.453 206.153 217.527 201.943 215.608 201.536C213.539 201.094 215.418 203.558 215.373 203.737C215.259 204.2 213.02 204.473 213.888 206.451H213.893ZM200.55 205.472L197.593 206.461L198.825 208.409L200.55 205.472ZM207.964 215.793C212.706 214.531 212.078 212.185 211.908 207.932C210.876 208.498 211.739 210.863 210.442 211.654C209.48 212.24 208.129 210.655 207.969 210.878V215.793H207.964ZM212.9 213.338L218.814 211.619C217.812 210.342 217.368 212.061 215.663 211.872C214.591 211.753 213.977 210.794 212.9 210.883V213.338ZM205.98 211.862C203.891 209.85 205.521 218.005 205.496 218.253C208.144 218.849 206.239 212.116 205.98 211.862ZM280.062 214.317C280.83 214.68 286.664 212.98 285.492 211.862C283.871 212.866 281.189 212.677 280.062 214.317ZM264.256 214.809C270.808 216.573 265.388 211.753 264.755 212.354L264.256 214.809ZM191.166 222.681C191.231 222.631 191.485 221.389 191.49 221.061L190.683 213.343C191.326 215.485 189.421 220.266 189.77 221.901C189.885 222.442 190.797 222.959 191.166 222.681ZM297.842 243.83H315.622C314.376 240.203 315.916 236.411 316.111 232.759C316.435 226.691 315.687 220.703 314.381 214.809L309.425 219.724C309.031 220.589 311.539 221.737 310.307 224.524C308.742 225.97 296.975 243.065 297.842 243.83ZM277.594 215.311C276.218 215.331 274.832 215.207 273.456 215.366C272.937 215.425 271.137 215.555 271.177 216.285C273.102 215.952 276.377 217.209 277.594 215.311ZM286.968 240.382C288.284 235.586 295.18 228.246 295.823 223.868C296.785 217.309 294.596 218.874 290.413 215.54C287.581 215.982 285.153 217.378 282.131 218.099C276.956 219.336 269.821 219.908 264.516 219.724C259.988 219.57 254.608 218.273 250.166 218.228C249.622 218.223 249.029 218.208 248.675 218.715C248.211 219.381 248.396 227.759 248.521 229.255C248.979 234.672 251.173 240.441 252.474 245.729C258.004 245.525 263.419 244.958 268.978 244.839C269.925 244.819 270.604 244.009 270.928 244.009C271.406 244.009 272.842 244.884 274.872 244.804C276.457 244.74 278.93 244.645 277.599 242.842C283.243 247.642 286.634 244.119 284.515 237.43C286.27 237.882 285.257 240.779 286.968 240.377V240.382ZM204.005 221.697C204.634 219.888 204.878 218.188 203.272 216.792C202.021 216.742 202.689 221.404 204.005 221.697ZM196.078 218.278C195.848 218.129 195.055 218.328 194.627 218.253C195.454 219.774 192.587 223.401 194.382 224.157C194.677 224.281 197.229 219.028 196.078 218.278ZM224.757 219.242C219.816 218.646 217.582 216.901 213.15 220.226C204.988 226.343 203.113 238.926 197.798 247.229C196.895 248.641 195.22 248.745 195.13 250.221L217.124 247.781C218.525 244.004 220.728 239.587 221.162 235.581C221.412 233.295 220.514 229.737 220.903 228.45C221.092 227.814 222.813 225.792 223.376 224.499C223.69 223.779 225.106 219.57 224.767 219.242H224.757ZM200.555 225.141C203.447 225.27 201.682 219.346 200.306 219.252C199.194 219.967 199.912 220.216 199.992 221.021C200.131 222.407 200.51 223.749 200.555 225.141ZM200.061 225.628C199.588 224.972 199.124 221.2 198.331 221.215C196.257 221.25 197.713 225.916 200.061 225.628ZM195.539 228.167C195.434 227.998 193.794 227.431 193.639 227.6C193.555 234.23 192.508 240.108 190.184 246.285L193.988 237.539C194.407 236.103 196.048 228.992 195.534 228.162L195.539 228.167ZM242.532 246.777L238.324 239.91L234.634 231.541L227.22 247.274L242.527 246.782L242.532 246.777ZM294.387 239.408C293.32 239.105 292.677 240.829 292.333 241.535C291.889 242.434 291.251 243.219 291.425 244.322C292.736 244.591 292.273 243.994 292.652 243.353C293.385 242.111 293.833 240.73 294.387 239.413V239.408Z" fill="#006838" fill-opacity="0.25"/>
<path d="M168.565 180.764C169.602 181.38 173.052 180.694 173.78 183.194C174.374 185.221 173.202 194.32 174.443 195.076L181.788 196.134L181.289 197.108L185.487 197.118L192.159 198.092C186.644 198.162 181.115 198.023 175.595 198.077C142.244 198.41 107.83 201.054 75.0272 208.091C72.3547 208.662 70.3652 209.919 68.8495 210.317C68.321 210.456 65.4141 209.835 64.018 209.909C47.1653 210.804 28.9264 215.445 12.1784 216.315C10.9469 216.379 9.6854 216.24 8.45386 216.29C8.08987 214.953 9.71033 215.018 10.6078 214.755C22.1654 211.415 35.3634 210.973 47.0706 207.777C47.5791 207.638 48.5664 207.653 48.4467 206.953C39.7012 204.776 30.7962 203.131 21.8862 201.68C4.17087 198.798 -14.5666 195.98 -32.3567 193.729C-47.0255 191.87 -61.8091 191.15 -76.4929 189.729C-76.6076 188.869 -75.371 189.267 -74.7727 189.242C-69.8515 189.043 -64.3769 189.098 -59.4357 189.217C-45.5447 189.56 -31.3844 190.623 -17.4834 191.702C-12.0885 192.119 -4.85382 193.779 0.291748 193.704C5.43732 193.63 14.3523 191.021 20.1162 190.285C32.8654 188.65 45.8141 188.352 58.5683 186.772C62.2131 186.32 74.359 184.888 76.7872 183.278C78.5523 182.111 76.8121 180.734 78.5722 180.878C78.6121 181.718 78.6819 182.543 78.3229 183.348C77.8891 184.317 76.9518 183.86 76.7224 184.014C73.317 186.349 69.5575 186.851 65.3393 187.617C46.2678 191.085 26.1343 190.573 6.96304 193.908C7.5464 194.822 8.37907 194.509 9.18182 194.653C17.668 196.189 26.4035 196.482 34.79 198.619C35.508 197.764 35.847 196.815 36.8393 196.124C39.5816 194.201 54.6244 190.673 58.7029 189.868C65.3343 188.561 72.3646 188.705 78.5672 185.803C77.7595 187.473 75.6554 187.86 74.015 188.397C62.9959 192 48.701 193.376 38.2702 198.047C37.6869 198.311 37.3777 197.814 37.5722 199.076L63.0108 203.499C69.4578 203.563 75.785 201.635 82.2519 201.511C84.8347 201.461 86.9088 202.202 89.6162 201.968C93.8544 201.601 98.4614 199.494 102.764 199.076C103.268 198.539 100.251 189.286 100.256 187.522C100.266 184.357 103.178 181.902 102.266 178.428C101.488 177.514 99.5534 181.643 99.0548 181.867L98.8055 180.143L95.3452 185.311C94.712 185.226 94.4327 184.625 94.3579 184.054C93.974 181.062 98.5362 175.904 99.688 172.664C101.937 166.333 99.6381 160.037 107.566 157.393C113.13 155.539 119.817 156.941 125.75 156.811C131.683 156.682 137.986 155.947 143.979 155.783C158.588 155.385 157.551 160.817 163.25 171.551C163.908 172.793 168.101 180.5 168.56 180.769L168.565 180.764ZM108.698 159.733V167.108L111.39 164.131C114.836 162.198 116.67 165.115 118.326 165.11C119.657 165.11 123.411 163.023 125.311 163.242L147.439 161.254C149.902 161.567 148.96 162.665 149.942 163.654C150.76 164.479 153.068 164.842 153.901 166.114L162.043 175.71C160.976 173.439 159.615 171.243 158.294 169.116C157.391 167.67 151.453 158.133 150.835 157.855C148.072 156.603 143.934 158.084 141.042 158.253C137.946 158.431 134.745 158.645 131.683 158.769C124.015 159.082 116.291 158.248 108.698 159.733ZM105.731 174.488L104.26 166.129C104.165 168.912 102.191 173.489 105.731 174.488ZM124.992 170.557C123.596 171.009 120.554 169.374 119.782 170.527C117.568 173.832 123.84 171.983 124.992 170.557ZM107.706 178.91L106.474 175.471L105.731 178.915H107.701L107.706 178.91ZM143.266 178.413C142.677 176.729 140.573 177.817 139.417 178.299C138.689 178.602 138.07 177.996 138.33 179.402L143.266 178.418V178.413ZM110.921 180.878C113.3 181.276 116.571 180.59 119.069 180.878C118.924 177.519 116.516 179.293 114.372 179.397C112.487 179.487 110.582 179.343 108.698 179.407C108.827 180.078 110.423 180.794 110.921 180.878ZM151.662 194.156C150.949 192.258 149.164 179.954 147.958 179.904C146.626 179.85 147.718 183.343 147.733 184.054C147.798 187.582 147.639 191.125 147.718 194.648L151.662 194.156ZM133.388 181.375C132.012 181.38 130.631 181.291 129.255 181.43C128.692 181.489 126.543 181.653 126.478 182.349C128.537 181.981 132.042 183.313 133.388 181.375ZM142.274 182.354C134.156 185.107 125.132 186.34 116.601 185.306C117.249 186.991 118.106 187.607 118.44 189.614C118.615 190.643 118.814 196.343 119.069 196.611L143.759 194.653C143.66 190.509 143.201 186.374 142.269 182.354H142.274ZM164.501 194.648C164.785 194.385 163.045 189.098 162.547 188.486C161.744 187.497 159.336 186.836 158.114 186.017C156.893 185.197 154.759 181.758 154.958 184.72C155.038 185.897 156.264 193.843 156.668 194.097L164.501 194.653V194.648ZM115.12 197.6C115.578 197.163 112.248 185.858 111.884 185.331C111.46 184.715 111.171 184.456 110.403 184.327C106.848 183.731 108.169 185.843 107.476 187.786C107.087 188.874 105.821 190.091 105.741 190.981C105.691 191.518 106.748 197.809 106.953 198.112C107.76 199.295 113.444 197.277 115.12 197.605V197.6Z" fill="#006838" fill-opacity="0.25"/>
<path d="M411.758 150.555C415.149 153.949 414.725 161.264 415.602 165.662C416.076 168.032 418.19 171.779 418.34 173.3C418.594 175.849 415.059 183.278 415.413 184.506C415.792 185.813 418.454 185.147 419.571 185.311C422.044 185.674 426.871 186.106 428.935 186.807C429.738 187.08 430.376 187.169 430.191 188.253L396.386 185.778C386.135 185.664 376.278 185.748 366.236 186.285C364.186 186.394 362.112 186.225 360.068 186.285L368.215 184.819L375.535 184.342C376.567 184.103 379.533 174.647 379.08 173.017C377.788 174.08 376.158 174.642 374.867 175.705C372.628 177.549 369.706 183.328 367.956 184.069C366.48 184.69 363.224 184.71 363.03 182.598C362.805 180.192 365.253 173.976 365.234 171.034C367.397 170.254 367.921 170.721 369.357 168.748C373.251 163.406 371.665 149.69 381.049 149.859C386.18 149.954 391.59 151.315 396.845 150.873C401.357 150.495 408.093 146.898 411.748 150.555H411.758ZM381.308 159.237C389.909 155.022 401.073 152.011 409.689 157.766C411.484 155.967 411.115 153.348 409.22 151.852C407.066 150.152 398.59 152.602 395.374 152.841C391.6 153.119 384.619 150.813 386.21 156.25C384.036 157.04 381.433 156.111 381.303 159.237H381.308ZM382.784 151.867C376.003 151.092 375.141 158.188 373.904 163.177C376.407 160.558 376.068 157.452 379.354 155.082C380.72 154.098 383.163 154.347 382.789 151.867H382.784ZM380.994 166.467C380.441 165.741 380.371 164.748 379.578 164.171L376.861 169.076C377.08 169.255 381.523 167.481 381.797 166.865C381.882 166.442 381.204 166.745 380.994 166.467ZM372.907 171.531L372.423 166.621L369.452 171.531H372.907ZM413.403 184.814C412.381 181.658 414.824 176.311 414.406 173.777C414.361 173.509 411.948 169.086 411.678 169.091C409.21 171.004 408.108 180.774 405.984 181.643C401.247 183.587 404.723 171.968 404.822 170.597C404.867 169.985 404.753 169.96 404.284 169.598L391.181 171.287C388.718 174.766 388.069 179.099 386.733 183.095C386.678 184.128 386.733 183.731 387.471 183.835C392.522 184.575 399.856 183.567 405.286 183.81C407.829 183.924 410.831 184.565 413.413 184.814H413.403ZM383.777 183.835C383.403 181.057 384.165 178.612 384.759 175.963C383.398 177.628 380.396 181.196 379.838 183.109C379.429 184.511 382.984 183.582 383.777 183.83V183.835Z" fill="#006838" fill-opacity="0.25"/>
<path d="M163.514 206.938C162.293 206.987 161.051 206.828 159.824 206.977C155.646 207.489 152.176 206.222 147.444 206.431C138.664 206.818 127.63 207.951 118.824 208.915C101.702 210.789 83.693 215.52 66.7305 217.065C66.1173 217.12 64.9505 217.478 64.7461 216.529C64.3672 214.754 73.0877 213.403 74.6035 213.075C101.847 207.141 129.759 201.69 157.78 203.066C160.423 203.399 162.347 204.522 163.514 206.943V206.938Z" fill="#006838" fill-opacity="0.25"/>
<path d="M98.3218 143.508C98.3268 144.269 96.5817 144.199 95.9385 144.323C76.0842 148.185 55.816 148.264 36.216 154.193C33.5235 155.008 25.2418 157.616 23.4967 159.232C17.7927 164.509 34.1019 168.822 37.268 169.632L59.3062 174.483C49.7032 172.892 39.0131 171.814 29.784 168.723C25.4312 167.267 19.1638 165.09 21.0086 159.212C21.8263 156.608 27.7248 154.158 30.1829 153.109C37.5423 149.969 45.3005 148.219 53.2033 147.017C68.1265 144.741 83.279 144.234 98.3168 143.508H98.3218Z" fill="#006838" fill-opacity="0.25"/>
<path d="M168.45 216.285C155.801 217.448 142.912 216.24 130.182 217.279C126.079 217.612 119.497 219.376 115.828 219.267C114.646 219.232 113.998 218.238 112.412 218.203C109.266 218.134 105.128 220.062 101.782 219.729C101.598 218.645 102.48 218.377 103.258 218.004C107.676 215.907 119.557 214.362 124.748 213.83C133.483 212.936 159.565 211.335 166.76 214.282C167.588 214.62 168.61 215.182 168.45 216.28V216.285Z" fill="#006838" fill-opacity="0.25"/>
<path d="M122.903 81.6544C123.466 82.2159 123.85 84.7602 124.409 85.8088C126.099 88.9544 131.175 93.3424 124.114 94.2319C122.669 94.4158 121.916 93.8393 120.794 93.8294C119.672 93.8194 118.565 94.6543 117.423 94.2667C116.346 93.9039 115.982 90.9769 115.364 93.3374C114.357 92.9647 109.6 85.4907 109.196 84.2285C108.733 82.7824 110.478 84.0745 110.632 83.9651C110.732 83.8956 110.842 82.8669 111.36 82.4743C112.507 81.6096 121.881 80.6356 122.903 81.6494V81.6544ZM119.064 82.524L112.153 83.5129L115.125 91.8665L116.516 88.0947C117.144 86.1169 119.133 84.6509 119.069 82.529L119.064 82.524Z" fill="#006838" fill-opacity="0.25"/>
<path d="M411.922 197.113L339.331 194.653C363.478 192.377 387.914 194.42 411.922 197.113Z" fill="#006838" fill-opacity="0.25"/>
<path d="M337.352 261.536C338.573 262.446 335.018 262.903 334.575 262.948C325.236 263.892 307.675 264.558 298.576 263.509C293.126 262.883 297.394 261.258 300.54 261.024C309.595 260.349 324.079 260.408 333.174 261.024C334.58 261.119 335.921 261.67 337.352 261.536Z" fill="#006838" fill-opacity="0.25"/>
<path d="M372.169 193.173C371.994 193.128 371.301 192.363 371.431 192.194C373.196 192.213 375.071 190.892 376.591 190.688C380.126 190.211 388.159 190.111 391.948 190.201C394.032 190.251 396.336 191.14 398.595 190.718C398.794 191.239 396.969 191.697 396.87 191.697H385.756V192.184L391.679 192.686V193.173H372.174H372.169Z" fill="#006838" fill-opacity="0.25"/>
<path d="M246.975 260.552C248.057 261.457 245.125 261.914 244.696 261.964C242.158 262.267 232.61 262.878 230.541 262.406C228.99 262.053 227.734 260.687 229.524 259.643C231.882 259.762 246.097 259.817 246.98 260.552H246.975Z" fill="#006838" fill-opacity="0.25"/>
<path d="M322.533 147.931C322.648 148.791 321.411 148.393 320.813 148.418C308.507 148.92 295.653 146.917 283.268 146.45C282.67 146.425 281.428 146.818 281.548 145.963L309.963 146.922L322.533 147.931Z" fill="#006838" fill-opacity="0.25"/>
<path d="M198.576 42.6795C197.035 43.4696 195.848 42.6795 194.397 42.6646C191.037 42.6348 187.272 42.9578 183.987 42.7093C181.359 42.5105 181.15 41.4719 183.553 40.7563C185.956 40.0407 194.153 40.5277 196.711 41.3477C197.444 41.5812 198.356 41.8247 198.576 42.6795Z" fill="#006838" fill-opacity="0.25"/>
<path d="M46.4671 153.835L37.7416 157.189C34.022 159.212 25.3364 161.681 32.616 165.905L43.5054 169.563C39.4418 168.947 26.8521 166.984 29.5595 160.837C31.0354 157.487 42.7874 154.093 46.4671 153.835Z" fill="#006838" fill-opacity="0.25"/>
<path d="M195.121 55.4657C193.141 55.8385 183.294 56.5739 182.501 55.4956C182.247 55.1527 182.137 54.2284 182.282 53.9998C182.825 53.15 194.233 53.1053 195.121 55.4608V55.4657Z" fill="#006838" fill-opacity="0.25"/>
<path d="M388.957 226.124C388.742 226.1 386.853 225.672 386.778 225.593C386.683 225.493 386.663 223.739 386.733 223.67C387.396 222.974 397.428 224.41 399.098 224.902C399.976 225.16 400.25 224.996 400.071 226.124C396.525 225.836 392.427 226.517 388.957 226.124Z" fill="#006838" fill-opacity="0.25"/>
<path d="M401.546 217.771L397.328 218.278C393.449 217.259 389.405 218.079 385.476 217.786C382.604 217.572 382.604 216.479 385.476 216.265C390.722 215.878 396.331 217.274 401.546 217.766V217.771Z" fill="#006838" fill-opacity="0.25"/>
<path d="M156.967 230.622C159.266 230.299 160.378 234.195 158.248 234.91C155.082 235.974 153.751 231.074 156.967 230.622Z" fill="#006838" fill-opacity="0.25"/>
<path d="M156.599 226.621C156.718 227.317 155.721 227.337 155.227 227.456C154.051 227.745 150.256 228.654 149.693 227.347C149.314 226.462 149.588 226.333 150.301 226C152.47 224.992 154.514 226.055 156.599 226.621Z" fill="#006838" fill-opacity="0.25"/>
<path d="M391.674 200.065C391.789 200.925 390.552 200.527 389.954 200.552C384.773 200.766 379.568 200.845 374.393 201.039L379.578 200.065H391.669H391.674Z" fill="#006838" fill-opacity="0.25"/>
<path d="M108.698 78.5784C108.119 79.1052 102.839 74.096 103.761 73.1767C104.963 71.979 108.144 77.7435 108.698 78.5784Z" fill="#006838" fill-opacity="0.25"/>
<path d="M143.021 18.583C143.774 18.6525 145.061 19.5321 146.227 19.0799V19.5619C145.051 20.1086 143.186 19.0749 142.528 19.0749H132.9V18.583C136.18 18.7966 139.785 18.2898 143.021 18.583Z" fill="#006838" fill-opacity="0.25"/>
<path d="M146.721 9.24036V9.73233H139.561C139.018 9.73233 137.442 10.7312 136.355 10.2193V9.7373C137.278 10.1547 138.634 9.24036 139.068 9.24036H146.721Z" fill="#006838" fill-opacity="0.25"/>
<path d="M62.7614 126.776C61.7642 126.727 61.9935 124.018 61.7741 123.825C61.475 123.556 57.2169 125.236 56.0801 123.849C55.3771 119.78 54.4447 116.609 54.9034 112.311C54.9981 111.406 55.9355 109.806 55.8308 109.354C55.5815 108.29 53.4126 109.205 53.8813 107.6L60.9963 107.674L61.5548 108.062L62.7664 126.771L62.7614 126.776Z" fill="#006838" fill-opacity="0.25"/>
<path d="M68.2009 108.091C70.9283 107.57 73.6307 109.264 76.0988 108.091V115.476L75.1165 114.979C75.306 117.951 73.4313 121.275 75.6052 123.829C73.0972 124.366 70.689 124.694 68.2009 123.829C68.3306 122.214 71.1277 122.905 71.1676 122.602C71.4019 120.028 69.3078 121.484 69.1931 121.38C69.0685 121.265 68.2009 118.343 68.2009 118.179V108.096V108.091ZM75.6101 109.567C75.1614 109.692 72.0202 109.07 72.6484 110.303L75.6052 112.524L75.6151 109.572L75.6101 109.567Z" fill="#006838" fill-opacity="0.25"/>
<path d="M45.4599 110.084C45.9884 110.631 45.9934 123.477 45.9834 125.311L40.5487 125.798C41.9298 122.642 37.6219 110.72 41.8949 109.642C42.3137 109.538 45.3352 109.955 45.4599 110.084Z" fill="#006838" fill-opacity="0.25"/>
<path d="M64.1477 89.3023C63.9532 89.6352 60.7373 91.2652 60.3035 90.8726C60.9517 89.2476 60.6375 88.0798 60.2985 86.4498L58.329 88.9097C58.1296 86.4995 57.3617 83.1701 57.8005 80.8146C57.9202 80.1636 59.2714 80.8841 59.3212 80.2977L58.329 79.0703C61.4752 78.802 63.7787 77.5695 64.2674 81.7637C64.382 82.7377 64.387 88.8948 64.1527 89.2973L64.1477 89.3023Z" fill="#006838" fill-opacity="0.25"/>
<path d="M51.9017 82.027L51.1638 80.5611C50.8546 80.9685 49.8524 81.8879 49.4386 81.5351C48.571 80.7946 51.443 79.5672 51.9166 79.7858C53.8113 80.6555 55.0229 90.2464 53.6368 91.8664C53.0036 92.6118 51.2635 92.6466 50.6552 91.8813C50.4906 91.6776 50.8098 90.8427 50.6701 90.3855C49.8225 87.5878 46.6115 81.8382 51.9017 82.0221V82.027Z" fill="#006838" fill-opacity="0.25"/>
<path d="M53.8815 126.289C53.1585 126.374 52.989 125.002 52.9391 124.525C52.3707 119.079 52.3757 113.563 52.4056 108.092C53.328 108.285 53.3031 109.061 53.4028 109.796C53.5025 110.532 53.8815 112.917 53.8815 113.255V126.289Z" fill="#006838" fill-opacity="0.25"/>
<path d="M308.702 124.322L307.699 115.739C307.844 114.751 307.261 109.582 308.462 109.582C309.18 109.582 309.185 111.232 309.225 111.764C309.539 115.983 308.632 120.127 308.707 124.327L308.702 124.322Z" fill="#006838" fill-opacity="0.25"/>
<path d="M304.758 112.271C304.783 112.072 305.216 110.368 305.74 110.551C306.383 112.922 306.024 115.59 305.605 118.035C305.516 118.562 305.481 119.988 304.758 119.894C304.957 117.454 304.484 114.656 304.758 112.271Z" fill="#006838" fill-opacity="0.25"/>
<path d="M314.137 117.434L313.109 113.255L313.653 109.567C316.021 111.337 313.568 114.969 314.137 117.434Z" fill="#006838" fill-opacity="0.25"/>
<path d="M311.175 109.076C312.765 110.015 312.257 113.558 312.102 115.163C312.047 115.715 311.878 117.876 311.175 117.931V109.081V109.076Z" fill="#006838" fill-opacity="0.25"/>
<path d="M273.152 115.471H272.658V126.781H273.152V115.471Z" fill="#006838" fill-opacity="0.25"/>
<path d="M288.952 112.027C288.912 113.578 289.017 115.148 288.952 116.703C288.927 117.3 289.326 118.532 288.464 118.418C288.743 116.51 287.721 114.666 287.955 112.768C288.04 112.092 288.344 111.232 288.952 112.032V112.027Z" fill="#006838" fill-opacity="0.25"/>
<path d="M296.077 96.0805C296.536 96.6719 297.633 97.0098 297.344 98.2522C296.975 98.6249 295.09 97.1191 294.641 96.7663C291.126 93.9934 286.2 88.6215 282.999 85.2324C281.997 84.1689 276.592 78.5883 276.352 78.0913C276.008 77.3658 275.874 76.8987 276.602 76.367C277.948 75.552 285.422 85.0982 286.718 86.4598C289.785 89.6899 293.33 92.5572 296.072 96.0805H296.077Z" fill="#006838" fill-opacity="0.25"/>
<path d="M284.998 98.749L262.462 76.9334L260.806 73.6685C261.883 73.6138 262.821 74.4288 263.539 75.1196C269.532 80.8741 274.622 87.7319 280.81 93.3274L284.998 98.7441V98.749Z" fill="#006838" fill-opacity="0.25"/>
<path d="M304.259 93.3373L289.451 78.0962C291.789 77.8427 293.828 80.6454 295.389 82.2605C297.698 84.6557 300.714 88.0498 302.773 90.6439C303.362 91.3843 304.259 92.3583 304.264 93.3373H304.259Z" fill="#006838" fill-opacity="0.25"/>
<path d="M263.085 86.1467C264.037 87.2052 265.08 88.3183 265.997 89.4017C266.326 89.7893 267.288 90.3906 266.491 90.8776L249 73.8723L247.968 72.1976C248.386 71.81 250.485 73.5344 250.939 73.9071C254.689 76.9881 259.759 82.4594 263.09 86.1467H263.085Z" fill="#006838" fill-opacity="0.25"/>
<path d="M1.03487 104.166C1.30412 104.464 1.13458 105.478 0.306902 105.135C-4.44477 100.662 -9.87953 96.9103 -14.716 92.5522C-15.2644 92.0552 -15.9525 91.8217 -15.7481 90.8775C-14.9403 90.7383 -14.4218 91.2601 -13.8185 91.6527C-9.59532 94.4058 -3.98605 100.076 -0.181719 103.674C0.202205 104.036 0.975029 104.096 1.03985 104.161L1.03487 104.166Z" fill="#006838" fill-opacity="0.25"/>
<path d="M9.92479 105.135C9.00238 105.348 8.75308 104.628 8.19464 104.161C3.21361 99.9466 -1.53806 95.2902 -6.36951 90.8824C-4.45986 91.0265 -2.39066 92.8503 -0.929761 94.0678C2.97429 97.3327 6.30993 101.562 9.92978 105.135H9.92479Z" fill="#006838" fill-opacity="0.25"/>
<path d="M98.3216 104.161C98.4463 104.827 98.1521 107.446 98.3216 107.6C98.5061 107.769 100.436 107.182 101.333 108.29C102.48 109.707 102.63 121.419 102.166 123.477C101.797 125.122 99.8673 127.045 98.3864 125.489C96.6214 123.636 97.6186 121.36 97.3244 119.163C96.9405 116.301 95.7738 112.758 96.4419 109.91C96.6513 109.011 97.5887 108.37 97.6884 107.773C97.8479 106.819 96.2175 103.788 98.3166 104.156L98.3216 104.161Z" fill="#006838" fill-opacity="0.25"/>
<path d="M94.3728 103.177C96.078 104.017 94.7418 106.402 94.8166 107.848C95.1008 113.399 95.7041 118.97 95.385 124.59L94.3728 129.728V103.172V103.177Z" fill="#006838" fill-opacity="0.25"/>
<path d="M147.22 109.076H148.207C147.793 109.995 148.7 111.337 148.7 111.779V124.073C148.7 124.182 147.848 124.973 147.718 124.809C148.142 123.884 147.22 122.548 147.22 122.105V109.071V109.076Z" fill="#006838" fill-opacity="0.25"/>
<path d="M117.588 106.616H117.094V118.91H117.588V106.616Z" fill="#006838" fill-opacity="0.25"/>
<path d="M237.96 189.818C242.253 188.934 244.367 195.573 242.248 197.068C237.302 200.567 233.014 190.837 237.96 189.818Z" fill="#006838" fill-opacity="0.25"/>
<path d="M237.94 200.641C240.099 199.995 241.71 201.839 240.508 203.683C238.344 207.002 234.53 201.665 237.94 200.641Z" fill="#006838" fill-opacity="0.25"/>
<path d="M245.983 168.092C248.082 169.717 248.341 186.399 249.443 189.724C248.271 189.922 248.5 189.609 248.226 188.75C246.895 184.605 245.788 178.458 245.145 174.09C245.07 173.583 243.789 166.387 245.983 168.087V168.092Z" fill="#006838" fill-opacity="0.25"/>
</svg>
