<svg width="122" height="121" viewBox="0 0 122 121" fill="none" xmlns="http://www.w3.org/2000/svg">
<g clip-path="url(#clip0_12_291)">
<path d="M27.5967 13.5169C29.135 14.7901 32.7615 13.3946 34.5443 13.2826C40.3814 12.9057 41.2066 18.6506 45.9639 19.7202C48.7959 20.3619 50.8435 19.8016 53.431 19.7915C57.6892 19.7813 62.2938 20.0563 66.501 19.8016C70.474 19.5572 74.5386 18.2534 78.5421 18.4163C80.987 18.5182 83.8801 19.4859 86.437 19.8016C89.5645 20.1785 91.2759 19.3942 94.5154 20.9934C101.616 24.4872 99.3033 32.7888 99.6395 39.2162C99.7821 41.8646 100.19 45.4094 100.852 47.966C101.208 49.3717 104.183 54.6583 100.872 54.1388C98.0605 53.7008 97.0316 44.3194 96.889 41.9563C96.5834 36.6494 98.091 30.2831 95.3507 25.6382C95.422 29.0098 95.5443 32.3101 95.1368 35.7224C94.5052 40.9682 93.3133 47.5892 92.3354 52.835C91.6019 56.7668 90.3285 60.5866 89.6052 64.5184C88.8208 66.2093 84.583 65.9139 83.0448 65.4046C82.1483 65.1092 82.4234 62.3691 82.4743 61.5135C82.678 58.4679 84.094 54.4953 83.8495 51.5515C83.6764 49.4328 82.1483 46.8558 81.4352 44.8593L79.6016 48.5161C79.0413 49.2393 77.4419 49.443 76.9733 49.8505C76.4639 50.2885 76.8511 51.5821 75.16 51.3173C73.8051 51.1034 74.1311 50.1153 73.7848 49.7588C73.4384 49.4023 71.7677 49.3106 70.7796 48.129C69.6998 46.8456 69.9544 45.501 69.4043 44.4417C69.0478 43.7694 67.0104 43.1073 68.7422 41.6201C69.8424 40.6728 70.5453 41.5183 71.6353 41.447C74.396 41.2738 80.9768 40.1839 83.004 42.0989C84.3589 43.3823 86.2435 48.0679 86.5084 49.9218C87.0992 53.9758 85.6832 58.6207 85.561 62.7154C85.999 62.6951 86.5797 62.8275 86.9566 62.5728C87.4252 62.2469 88.9736 52.8146 89.5849 51.47C89.4219 43.8407 94.6886 32.3305 91.7547 25.1188C90.4304 21.8592 89.157 23.2445 86.4574 22.8575C83.931 22.4908 80.5897 21.2379 78.1754 21.2582C76.0259 21.2786 72.9596 22.3176 70.6166 22.5519C66.7659 22.9491 62.6503 22.8676 58.7691 22.8982C58.5042 23.1529 60.4397 27.5227 57.567 27.0337C55.9472 26.7587 55.9676 23.214 55.6416 22.9288C55.2036 22.5519 46.6465 23.2038 44.0895 22.2769C43.0097 21.8898 41.8076 20.6573 41.0742 20.4841C40.1879 20.2702 40.7482 20.7693 40.8093 21.0953C41.013 22.1546 41.7465 24.0798 39.974 24.202C38.5783 24.3039 32.1299 20.2702 34.2387 18.7423C35.5324 17.795 36.8669 19.3942 37.1318 19.1192C36.8669 16.6236 36.8262 16.1449 34.2081 16.3791C31.1112 16.644 29.5221 19.6896 27.3318 21.5231C25.977 22.6537 20.8223 24.7317 23.5321 26.7078C25.1518 27.8894 31.1316 24.3242 33.8923 25.9744C35.7158 27.0643 37.4476 34.8159 40.0351 37.342C41.0538 38.3301 43.6107 38.9921 42.2559 40.8969C40.901 42.8017 37.4883 39.094 36.6428 37.9837C34.4424 35.0909 33.9534 31.4545 31.967 28.5515C28.6765 28.3681 24.999 31.1591 21.8818 29.3867C20.2111 28.4394 18.9174 24.8132 19.987 23.1223C20.8529 21.7472 26.9346 18.7423 27.4948 17.2348L24.8055 14.7901C24.0924 13.8632 23.5015 11.7139 24.999 11.2861C26.7308 10.7972 26.8429 12.9159 27.5967 13.5372V13.5169ZM78.3486 44.1667H72.5114C72.4604 47.966 78.155 47.9457 78.3486 44.1667Z" fill="#F7941D"/>
<path d="M92.7734 18.4164C90.1451 17.8765 87.3946 18.0191 84.7358 17.7033C82.4539 17.4283 80.3045 16.5829 77.829 16.5625C73.5912 16.5116 68.9866 17.9784 64.7896 18.1006C63.0272 18.1515 61.5705 17.7441 59.9813 17.7237C55.7741 17.6728 51.1593 18.6303 46.9419 18.0497C42.6124 17.4487 40.412 11.4389 35.7463 11.0417C51.9234 -6.51908 81.5676 -2.46503 92.7734 18.4164Z" fill="#006838"/>
<path d="M61.8558 39.369C61.3668 40.0311 66.3177 43.9629 67.0002 44.6963C68.4264 46.2242 71.5334 49.2801 67.9272 49.9218L55.3666 46.0613C54.2053 45.8983 53.9302 46.9475 53.9608 47.9457C57.9134 45.8779 61.3362 48.4346 60.7352 52.835C60.5009 54.6074 58.2699 59.5985 58.494 60.7801C58.6876 61.758 64.321 65.0175 58.9015 65.7713C57.0373 66.0259 50.3036 66.4843 50.2222 63.9276C50.1916 63.0414 51.9743 56.013 52.4327 55.188C53.1153 53.9351 54.8471 53.6601 55.2647 55.0657C55.7232 56.5936 53.319 62.4506 53.6144 62.7154H55.6722C54.083 59.5883 58.8811 53.4054 57.5568 50.7061C56.1306 47.7827 49.6822 56.9196 48.6228 52.0405C50.049 48.9745 51.3937 45.664 53.156 42.8527C53.4616 42.7406 53.7672 42.8017 54.083 42.8323C56.752 43.0055 60.1138 44.8899 62.8948 45.0528C60.9593 43.311 59.0441 40.8053 56.8234 39.4403C47.1253 33.4815 41.2881 54.6583 45.1286 57.816C46.6261 59.0485 49.5804 56.8687 50.1407 58.8447C50.9251 61.6561 45.3324 62.033 43.1523 59.9652C37.5087 54.6277 43.2033 38.5134 50.4361 36.0178C51.1492 35.7734 53.7876 35.427 53.9201 35.2131C54.5007 34.2658 53.3496 31.9638 55.8556 29.7636C62.5179 23.9168 70.0258 36.0178 61.8659 39.3792L61.8558 39.369ZM58.6672 31.536C55.8454 32.1777 56.7113 37.6272 60.2258 36.8938C63.7404 36.1604 63.068 30.5377 58.6672 31.536Z" fill="#F7941D"/>
<path d="M80.2331 54.1286C80.8953 54.3119 81.1194 55.3815 81.1296 56.013C81.15 57.2353 80.2026 63.2146 79.7442 64.2841C78.8069 66.4843 71.9103 65.924 71.2889 65.1295C70.9833 64.7323 69.5469 56.8992 69.5367 55.9621C69.5367 55.2898 69.7914 54.1388 70.6064 54.1388C72.6438 54.1388 78.7866 53.7313 80.2229 54.1388L80.2331 54.1286ZM77.6558 57.215H72.8475C73.4078 58.6512 73.2143 60.9838 73.7745 62.2978C74.0598 62.9599 76.851 62.8275 76.9733 62.7052C77.1668 62.5015 77.4928 57.9789 77.666 57.215H77.6558Z" fill="#006838"/>
<path d="M87.5271 24.3243C88.943 24.0289 90.2266 24.9252 89.5237 26.3309C88.8616 27.6347 82.077 31.4851 80.3248 31.3934C77.2789 31.2304 76.6269 28.6941 72.491 29.5701C71.3602 29.8044 65.1665 33.2676 66.3889 29.3154C66.9187 27.5736 73.5912 26.1272 75.4045 26.3615C77.2178 26.5957 79.3469 28.4802 80.9055 28.3783C83.0651 28.2357 85.7138 24.7113 87.5372 24.3243H87.5271Z" fill="#F7941D"/>
<path d="M30.4593 93.7115C30.4593 93.7115 30.2148 93.8541 29.7971 94.1495C29.3693 94.4449 28.4932 94.5875 27.1587 94.5875C26.1705 94.5875 25.3657 94.3533 24.7341 93.8949C24.1026 93.4365 23.7969 92.7846 23.7969 91.9595V85.6035C23.7969 84.3506 23.8173 83.4848 23.8581 82.9958C23.5525 84.2283 23.2774 85.2673 23.0227 86.1128C22.768 86.9582 22.4828 87.8749 22.1568 88.863L20.4352 94.0681C19.4674 94.4144 18.5302 94.5875 17.6236 94.5875C16.8392 94.5875 16.1974 94.4348 15.6982 94.119C15.1991 93.8032 14.8323 93.2939 14.598 92.5911L13.4163 88.863C13.2126 88.3028 13.1005 87.9564 13.0802 87.8342C12.8561 87.0906 12.6421 86.3368 12.4282 85.5831C12.2143 84.8293 12.0003 83.9635 11.7762 82.9958C11.7966 83.4848 11.8068 84.3506 11.8068 85.6035V93.7115C11.3993 93.9968 10.9205 94.2107 10.3704 94.3634C9.81013 94.5162 9.2091 94.5875 8.53675 94.5875C7.52824 94.5875 6.71327 94.3533 6.08168 93.8949C5.46027 93.4365 5.14447 92.7846 5.14447 91.9595V74.1951C6.41785 73.971 7.65048 73.8589 8.84237 73.8589C9.54527 73.8589 10.4112 73.8895 11.4197 73.9506C12.4282 74.0117 13.2126 74.0932 13.7831 74.1951L16.8698 84.1876C17.318 85.7053 17.6032 86.785 17.7458 87.4268C17.9292 86.6221 18.2144 85.5627 18.6219 84.2487L21.8003 74.1951C23.7358 73.971 25.3861 73.8589 26.7308 73.8589C27.9431 73.8589 29.1859 73.971 30.4491 74.1951V93.7217L30.4593 93.7115Z" fill="#006838"/>
<path d="M48.7653 93.956C48.3579 94.1394 47.8994 94.2922 47.3697 94.4144C46.84 94.5366 46.3306 94.5978 45.8213 94.5978C44.9146 94.5978 44.1608 94.3838 43.5699 93.9458C42.9791 93.5078 42.6633 92.8254 42.6429 91.8985C42.1336 92.6624 41.4714 93.2939 40.6259 93.7727C39.7906 94.2616 38.8024 94.4959 37.6716 94.4959C36.113 94.4959 34.9211 94.0681 34.0654 93.2125C33.2199 92.3568 32.7921 91.2873 32.7921 90.014C32.7921 88.4046 33.3727 87.1314 34.5442 86.2146C35.7157 85.2979 37.3966 84.7886 39.597 84.6867L42.0826 84.5645V84.4117C42.0826 83.0773 40.9722 82.4152 38.7515 82.4152C38.0282 82.4152 37.2132 82.5375 36.3168 82.7819C35.4203 83.0264 34.5748 83.3727 33.7904 83.8107C33.2097 83.1894 32.9143 82.4356 32.9143 81.5698C32.9143 80.3577 33.607 79.4206 35.0026 78.7381C36.3983 78.0658 38.2829 77.7195 40.6666 77.7195C43.5088 77.7195 45.5666 78.2186 46.84 79.2168C48.1134 80.2151 48.745 81.8245 48.745 84.045V93.9458L48.7653 93.956ZM42.1132 89.0871V87.5694L39.9026 87.7222C39.4748 87.7425 39.159 87.8444 38.9348 88.0379C38.7107 88.2315 38.5987 88.4759 38.5987 88.7815C38.5987 89.1279 38.7209 89.3825 38.9756 89.5658C39.2303 89.7492 39.5562 89.8409 39.9637 89.8409C40.7074 89.8409 41.4307 89.5862 42.1132 89.0871Z" fill="#006838"/>
<path d="M63.1189 94.2616H50.976C50.7111 93.7218 50.5787 93.1615 50.5787 92.6013C50.5787 91.4299 51.139 90.2076 52.2697 88.9343L57.0576 83.4848H51.4242C51.2001 83.1792 51.0269 82.8023 50.9047 82.3541C50.7824 81.8958 50.7213 81.4272 50.7213 80.9485C50.7213 80.1641 50.8945 79.4919 51.251 78.9316C51.6076 78.3816 52.1373 78.0964 52.8402 78.0964H64.922C65.1461 78.6362 65.2582 79.1557 65.2582 79.6447C65.2582 80.2049 65.1054 80.8059 64.7896 81.4476C64.4738 82.0791 63.9848 82.7921 63.3227 83.5867L58.8098 88.8834H64.5655C64.7896 89.2297 64.9628 89.6168 65.0952 90.065C65.2276 90.5132 65.2888 90.9512 65.2888 91.3994C65.2888 92.204 65.1054 92.8865 64.7285 93.4467C64.3516 94.007 63.8116 94.282 63.1087 94.282L63.1189 94.2616Z" fill="#006838"/>
<path d="M66.8983 72.6163C66.8983 70.6809 68.0698 69.7133 70.4128 69.7133C71.6455 69.7133 72.5521 69.9577 73.1226 70.4365C73.7033 70.9254 73.9885 71.6486 73.9885 72.6163C73.9885 74.6331 72.7966 75.6415 70.4128 75.6415C68.0291 75.6415 66.8983 74.6331 66.8983 72.6163Z" fill="#F7941D"/>
<path d="M70.4433 77.7602C71.4315 77.7602 72.5419 77.8722 73.7745 78.0963V93.7115C73.367 93.9967 72.8882 94.2107 72.3381 94.3634C71.7779 94.5162 71.1768 94.5875 70.5045 94.5875C69.496 94.5875 68.681 94.3533 68.0494 93.8949C67.428 93.4365 67.1122 92.7846 67.1122 91.9595V78.0963C68.3448 77.8722 69.4552 77.7602 70.4433 77.7602Z" fill="#006838"/>
<path d="M93.3642 89.4742L93.4559 88.6287C93.5577 87.5999 93.68 86.4896 93.8226 85.2979L94.8515 78.0963C95.9415 77.8926 97.0621 77.7908 98.2132 77.7908C99.3644 77.7908 100.444 77.8926 101.514 78.0963L98.1521 93.9255C96.5731 94.3533 95.2896 94.557 94.281 94.557C91.5 94.557 89.8497 93.2022 89.3505 90.5029L89.0143 88.7815C88.7495 87.4268 88.5152 85.6849 88.3216 83.5459C88.1382 85.4609 87.8836 87.2332 87.5678 88.8426L86.5389 93.9255C85.0618 94.3533 83.7782 94.557 82.6678 94.557C79.8664 94.557 78.2059 93.1921 77.7067 90.4724L75.1294 78.0963C76.2194 77.8926 77.34 77.7908 78.4911 77.7908C79.6423 77.7908 80.7221 77.8926 81.7917 78.0963L82.8512 85.5118C82.953 86.1331 83.0345 86.7545 83.0957 87.3758C83.1568 87.9972 83.2077 88.4556 83.2485 88.7509C83.2485 88.8732 83.2688 89.1176 83.3096 89.4742C83.5133 87.9768 83.7171 86.6526 83.9106 85.4812L85.184 78.0963C86.111 77.8926 87.1603 77.7908 88.3318 77.7908C89.5033 77.7908 90.5526 77.8926 91.4796 78.0963L92.753 85.359C92.8345 85.7868 93.0484 87.1517 93.3846 89.4742H93.3642Z" fill="#006838"/>
<path d="M117.793 93.956C117.385 94.1394 116.927 94.2922 116.397 94.4144C115.867 94.5366 115.358 94.5978 114.849 94.5978C113.942 94.5978 113.188 94.3838 112.597 93.9458C112.007 93.5078 111.691 92.8254 111.67 91.8985C111.161 92.6624 110.499 93.2939 109.653 93.7727C108.818 94.2616 107.83 94.4959 106.699 94.4959C105.14 94.4959 103.949 94.0681 103.093 93.2125C102.247 92.3568 101.819 91.2873 101.819 90.014C101.819 88.4046 102.4 87.1314 103.572 86.2146C104.743 85.2979 106.424 84.7886 108.624 84.6867L111.11 84.5645V84.4117C111.11 83.0773 110 82.4152 107.779 82.4152C107.056 82.4152 106.241 82.5375 105.344 82.7819C104.448 83.0264 103.602 83.3727 102.818 83.8107C102.237 83.1894 101.942 82.4356 101.942 81.5698C101.942 80.3577 102.634 79.4206 104.03 78.7381C105.426 78.0658 107.31 77.7195 109.694 77.7195C112.536 77.7195 114.594 78.2186 115.867 79.2168C117.141 80.2151 117.772 81.8245 117.772 84.045V93.9458L117.793 93.956ZM111.13 89.0871V87.5694L108.92 87.7222C108.492 87.7425 108.176 87.8444 107.952 88.0379C107.728 88.2315 107.616 88.4759 107.616 88.7815C107.616 89.1279 107.738 89.3825 107.993 89.5658C108.247 89.7492 108.573 89.8409 108.981 89.8409C109.725 89.8409 110.448 89.5862 111.13 89.0871Z" fill="#006838"/>
<path d="M8.10888 120.939C5.34819 120.939 3.3006 120.521 1.97628 119.686C0.651965 118.851 -0.0101929 117.73 -0.0101929 116.335C-0.0101929 115.836 0.0814905 115.367 0.264857 114.929C0.448224 114.491 0.662152 114.196 0.896454 114.033C1.68086 114.542 2.65881 114.96 3.82013 115.286C4.98146 115.622 6.24465 115.785 7.6199 115.785C9.20908 115.785 10.0139 115.377 10.0139 114.573C10.0139 114.165 9.77955 113.849 9.32114 113.615C8.85253 113.381 8.10888 113.116 7.07999 112.81C5.76586 112.423 4.66566 112.026 3.7692 111.598C2.87274 111.17 2.08834 110.539 1.42618 109.673C0.764022 108.817 0.42785 107.677 0.42785 106.271C0.42785 104.437 1.13076 102.95 2.53657 101.82C3.94238 100.689 5.98997 100.129 8.69973 100.129C10.35 100.129 11.7253 100.333 12.8153 100.74C13.9053 101.147 14.6999 101.667 15.2092 102.298C15.7084 102.93 15.9631 103.602 15.9631 104.315C15.9631 104.794 15.8612 105.324 15.6473 105.874C15.4334 106.424 15.1889 106.79 14.9036 106.943C14.2007 106.403 13.345 105.986 12.3467 105.701C11.3484 105.415 10.3806 105.273 9.45357 105.273C8.73029 105.273 8.13944 105.354 7.7014 105.527C7.25317 105.701 7.03924 105.955 7.03924 106.302C7.03924 106.729 7.27354 107.055 7.75233 107.29C8.23112 107.524 9.01552 107.809 10.1259 108.155C11.44 108.522 12.5301 108.899 13.396 109.286C14.2619 109.683 15.0157 110.274 15.6677 111.058C16.3094 111.843 16.6354 112.882 16.6354 114.175C16.6354 115.367 16.3196 116.477 15.6778 117.506C15.0361 118.535 14.0785 119.36 12.8051 119.992C11.5317 120.623 9.96292 120.929 8.12925 120.929L8.10888 120.939Z" fill="#006838"/>
<path d="M34.9925 112.495C34.9925 114.45 34.5952 116.06 33.8108 117.323C33.0264 118.586 31.9771 119.503 30.663 120.083C29.3489 120.664 27.9023 120.949 26.3029 120.949C24.7036 120.949 23.257 120.664 21.9429 120.083C20.6288 119.503 19.5795 118.586 18.7951 117.323C18.0107 116.06 17.6134 114.45 17.6134 112.495C17.6134 109.612 18.4386 107.483 20.0787 106.108C21.729 104.733 23.7969 104.05 26.3029 104.05C28.809 104.05 30.8769 104.733 32.5272 106.108C34.1673 107.483 34.9925 109.612 34.9925 112.495ZM24.3368 112.495C24.3368 113.727 24.4998 114.613 24.836 115.163C25.1722 115.703 25.6612 115.978 26.3029 115.978C26.9447 115.978 27.4439 115.703 27.7903 115.163C28.1366 114.624 28.3098 113.727 28.3098 112.495C28.3098 110.152 27.6476 108.98 26.3131 108.98C25.6917 108.98 25.2027 109.255 24.8564 109.795C24.51 110.335 24.3368 111.242 24.3368 112.484V112.495Z" fill="#006838"/>
<path d="M43.3255 98.8454V120.032C42.918 120.318 42.4392 120.531 41.8891 120.684C41.3288 120.837 40.7278 120.908 40.0554 120.908C39.0469 120.908 38.2319 120.674 37.6004 120.216C36.9789 119.757 36.6631 119.105 36.6631 118.28V98.8454C37.8958 98.6213 39.0062 98.5092 39.9943 98.5092C40.9824 98.5092 42.0928 98.6213 43.3255 98.8454Z" fill="#006838"/>
<path d="M62.2428 104.417V120.368C61.8353 120.552 61.3769 120.705 60.8676 120.827C60.348 120.949 59.8387 121.01 59.3395 121.01C58.4736 121.01 57.7503 120.827 57.1799 120.47C56.5992 120.104 56.2732 119.513 56.1917 118.688C55.4888 119.411 54.6637 119.971 53.7366 120.368C52.8096 120.766 51.8724 120.959 50.925 120.959C47.4716 120.959 45.75 118.891 45.75 114.756V104.437C46.9826 104.213 48.093 104.101 49.0812 104.101C50.0693 104.101 51.1797 104.213 52.4123 104.437V113.34C52.4123 113.849 52.5448 114.236 52.8198 114.522C53.0949 114.807 53.4616 114.949 53.92 114.949C54.3784 114.949 54.9591 114.746 55.5805 114.338V104.437C56.8539 104.213 57.9643 104.101 58.9117 104.101C59.8591 104.101 61.0102 104.213 62.2428 104.437V104.417Z" fill="#006838"/>
<path d="M76.7084 117.496C76.7084 118.464 76.3111 119.279 75.5267 119.93C74.7423 120.582 73.4995 120.919 71.8084 120.919C69.608 120.919 68.0189 120.399 67.0409 119.37C66.0629 118.341 65.574 116.763 65.574 114.613L65.6045 108.858H64.1478C63.7403 108.176 63.5468 107.442 63.5468 106.678C63.5468 106.037 63.6894 105.497 63.9848 105.059C64.2802 104.621 64.6877 104.407 65.2072 104.407H65.6045V103.745C65.6045 102.573 65.9203 101.728 66.5621 101.198C67.2039 100.669 68.0087 100.414 68.9968 100.414C69.5979 100.414 70.2091 100.495 70.8101 100.669C71.4111 100.842 71.9001 101.056 72.2669 101.321V104.407H75.2007C75.3637 104.611 75.4962 104.916 75.6082 105.334C75.7203 105.751 75.7712 106.169 75.7712 106.587C75.7712 107.228 75.6286 107.768 75.3433 108.206C75.0581 108.644 74.5997 108.858 73.9477 108.858H72.2567V114.491C72.2567 115.438 72.7762 115.917 73.8255 115.917C74.4673 115.917 75.2415 115.764 76.1278 115.459C76.5149 116.039 76.6982 116.722 76.6982 117.486L76.7084 117.496Z" fill="#006838"/>
<path d="M77.8901 98.937C77.8901 97.0017 79.0617 96.034 81.4047 96.034C82.6373 96.034 83.5439 96.2785 84.1144 96.7572C84.6951 97.2461 84.9803 97.9693 84.9803 98.937C84.9803 100.954 83.7884 101.962 81.4047 101.962C79.0209 101.962 77.8901 100.954 77.8901 98.937Z" fill="#F7941D"/>
<path d="M81.4352 104.081C82.4233 104.081 83.5337 104.193 84.7663 104.417V120.032C84.3588 120.317 83.8801 120.531 83.33 120.684C82.7697 120.837 82.1686 120.908 81.4963 120.908C80.4878 120.908 79.6728 120.674 79.0412 120.216C78.4198 119.757 78.104 119.105 78.104 118.28V104.417C79.3366 104.193 80.447 104.081 81.4352 104.081Z" fill="#006838"/>
<path d="M103.806 112.495C103.806 114.45 103.409 116.06 102.624 117.323C101.84 118.586 100.791 119.503 99.4764 120.083C98.1623 120.664 96.7157 120.949 95.1164 120.949C93.517 120.949 92.0704 120.664 90.7563 120.083C89.4422 119.503 88.3929 118.586 87.6085 117.323C86.8241 116.06 86.4268 114.45 86.4268 112.495C86.4268 109.612 87.252 107.483 88.8921 106.108C90.5424 104.733 92.6104 104.05 95.1164 104.05C97.6224 104.05 99.6904 104.733 101.341 106.108C102.981 107.483 103.806 109.612 103.806 112.495ZM93.1503 112.495C93.1503 113.727 93.3133 114.613 93.6494 115.163C93.9856 115.703 94.4746 115.978 95.1164 115.978C95.7582 115.978 96.2573 115.703 96.6037 115.163C96.95 114.624 97.1232 113.727 97.1232 112.495C97.1232 110.152 96.4611 108.98 95.1266 108.98C94.5051 108.98 94.0162 109.255 93.6698 109.795C93.3234 110.335 93.1503 111.242 93.1503 112.484V112.495Z" fill="#006838"/>
<path d="M122 120.155C121.593 120.44 121.114 120.643 120.564 120.786C120.014 120.929 119.402 121 118.73 121C117.721 121 116.906 120.766 116.275 120.307C115.653 119.849 115.338 119.207 115.338 118.403V111.68C115.338 111.181 115.205 110.783 114.93 110.498C114.655 110.213 114.288 110.07 113.82 110.07C113.321 110.07 112.75 110.274 112.129 110.671V120.144C111.721 120.43 111.242 120.633 110.692 120.776C110.132 120.918 109.531 120.99 108.859 120.99C107.85 120.99 107.035 120.756 106.404 120.297C105.782 119.839 105.466 119.197 105.466 118.392V104.376C106.597 104.173 107.626 104.071 108.553 104.071C109.48 104.071 110.438 104.173 111.487 104.376V106.373C112.19 105.65 113.015 105.079 113.952 104.662C114.889 104.244 115.847 104.04 116.815 104.04C118.485 104.04 119.769 104.448 120.655 105.263C121.542 106.077 121.99 107.29 121.99 108.879V120.144L122 120.155Z" fill="#006838"/>
</g>
<defs>
<clipPath id="clip0_12_291">
<rect width="122" height="121" fill="white"/>
</clipPath>
</defs>
</svg>
