<svg width="439" height="193" viewBox="0 0 439 193" fill="none" xmlns="http://www.w3.org/2000/svg">
<path opacity="0.37" d="M291.045 12.2548L291.142 12.38C291.701 14.4855 292.419 16.6125 292.565 18.796C293.03 25.8124 289.454 32.6054 290.638 40.0795C291.35 44.5704 296.89 47.913 296.508 50.942C296.31 52.509 293.879 56.0939 293.09 57.7255C291.756 60.4798 290.658 63.2382 290 66.2268C290.511 65.5671 290.923 64.9694 291.662 64.5561L292.102 64.6086L292.383 65.1054C292.057 66.2268 291.342 67.297 291.114 68.409C291.161 68.3726 291.21 68.3363 291.255 68.2986C292.27 67.476 293.375 65.1686 294.62 64.9869C294.961 65.7004 294.653 66.4543 294.404 67.1651C294.192 67.7668 293.974 68.3659 293.75 68.9636C294.998 67.5703 298.534 63.1022 299.616 62.343L300.047 62.3322C300.458 62.9326 300.359 63.5963 300.231 64.2788C300.088 65.0367 299.858 65.6519 299.534 66.3425C299.07 67.3333 298.686 68.4022 298.334 69.4388C299.681 67.857 301.122 64.9142 302.065 63.9571C302.13 64.0742 302.182 64.1981 302.259 64.3071C302.33 64.4081 302.424 64.4902 302.508 64.5817C303.619 64.0472 304.085 62.6809 305.19 62.1814C305.499 62.4453 305.416 62.2837 305.443 62.7455C305.576 64.9452 303.929 67.328 302.69 69.0457C303.035 69.0726 303.131 69.0174 303.399 68.7994C305.004 67.503 306.216 63.2328 308.379 63.2288C308.773 63.2288 308.793 63.3001 309.095 63.5007C309.239 64.05 309.037 64.4942 308.768 64.9681C307.912 66.4718 306.558 67.5837 305.705 69.0457C306.974 67.9593 310.949 63.8898 312.277 63.8278C312.555 65.3894 309.346 69.0592 308.578 70.6369C310.702 69.0848 311.886 66.4799 314 64.7769C313.31 66.3224 312.734 67.787 312.35 69.4428C312.425 69.3796 312.502 69.3163 312.576 69.2517C313.607 68.347 314.935 64.9008 316.337 65.0044C316.89 65.0448 317.065 65.205 317.415 65.5779C317.691 66.6306 317.135 67.678 316.604 68.5665C316.448 68.8276 316.271 69.0753 316.096 69.3244C315.935 69.5559 315.995 69.4482 315.889 69.7134L316.03 69.9732L316.298 69.7498C316.57 69.525 316.843 69.319 317.13 69.1157C317.228 69.6152 317.173 69.9854 317.116 70.4834C318.202 70.1402 318.535 68.4803 319.716 68.1599C319.829 68.6203 319.792 68.8761 319.738 69.3392L320.411 69.9436L320.416 70.3811C320.089 70.6921 319.771 70.9842 319.409 71.2521C319.539 71.244 319.669 71.2279 319.798 71.2292C319.91 71.2292 320.398 71.2804 320.525 71.2925C320.829 71.9939 320.75 72.8164 320.75 73.5703C323.168 74.2299 325.638 74.6903 328.049 75.3742C332.068 76.5158 336.047 78.0154 339.995 79.3926C340.544 78.6818 341.644 76.719 342.44 76.6006C343.041 77.9576 342.512 79.7494 343.657 80.8425C344.211 80.934 344.283 80.9138 344.803 80.6971C344.598 80.2596 344.518 80.2057 344.18 79.8907C343.61 79.3603 343.318 78.9645 343.329 78.1595C343.341 77.1458 343.595 76.3085 344.085 75.4321L344.52 75.1467C345.202 75.5196 345.478 76.509 345.753 77.2172L346.063 77.1997C346.679 74.8519 346.311 67.8732 345.967 65.376C342.938 63.4469 339.847 61.6416 336.738 59.8471C334.108 60.2914 332.68 59.9683 330.21 60.0787C329.425 60.1137 328.802 60.6414 328.09 60.9214C326.368 61.6012 323.917 60.5781 322.527 59.5806C320.366 58.0297 320.214 56.2312 318.571 54.531C318.301 54.2509 318.231 54.0719 318.175 53.6896C318.878 50.592 322.183 48.7234 323.134 45.817C323.246 45.4751 323.359 45.1372 323.46 44.7912C320.008 43.8354 317.282 42.0678 315.533 38.8356C315.191 38.2042 314.914 37.4019 315.203 36.6965C315.419 36.1674 315.792 35.9668 316.328 35.8605C319.093 35.3112 323.352 36.3088 325.738 37.7263C326.589 36.2522 327.648 35.1658 328.873 33.9987L326.15 32.3913C326.392 33.3471 326.812 34.4147 326.559 35.3907L326.22 35.493C324.89 34.3056 323.615 30.9967 323.5 29.2143C323.452 28.4671 323.658 27.6096 323.781 26.8705C325.743 28.8602 327.333 31.0236 329.443 32.8934C331.068 31.8582 333.107 31.2255 335.027 31.7034C336.085 31.9659 336.665 32.4021 337.365 33.2138C338.674 32.4882 339.985 31.7021 341.423 31.2632C343.027 30.7745 344.81 30.6372 346.358 30.0018C348.947 28.937 350.346 27.2986 353.331 26.9419C360.448 26.0897 367.333 29.015 374.411 29.1025C381.171 29.186 388.017 28.7862 394.776 28.49C398.922 28.3083 402.991 27.0415 407.097 28.2194C410.119 29.0877 412.661 30.8903 414.194 33.685C417.742 40.1549 418.403 48.78 418.923 56.0549C421.349 58.3178 422.596 62.4857 422.708 65.7596C422.825 69.2463 421.175 72.3978 419.371 75.2679L419.254 74.9959C416.768 69.3567 412.122 66.0571 414.707 59.1323C415.147 57.953 415.799 56.837 416.42 55.7466C415.663 51.9301 415.188 48.0867 414.222 44.3119C413.864 52.2559 411.4 60.3694 414.4 68.0872C412.878 73.1772 415.225 76.1711 413.751 80.6338C414.684 79.0264 415.482 77.4635 416.996 76.326L417.421 76.2842C417.958 77.8472 415.791 81.8925 415.118 83.3909C416.585 81.8656 418.045 80.3336 419.573 78.8676L419.866 79.0426L420.005 78.842L419.879 78.5903L420.258 78.3493L420.038 78.7868L420.278 78.3749C419.956 79.2607 419.36 79.8395 419.133 80.7779C419.571 80.2367 420.24 79.1584 420.914 79.0305C421.208 79.7265 421.016 80.3982 420.988 81.1292C422.435 78.9645 423.556 77.6291 425.837 76.2963C424.954 77.9589 424.023 79.5542 423.001 81.1346C424.504 79.6928 426.096 77.5833 428.015 76.7352L428.377 76.8146C428.545 78.1703 427.056 80.2286 426.23 81.2975C425.376 82.4014 424.383 82.8214 423.373 83.6816C427.535 82.7985 430.937 81.3742 434.64 79.3159C432.99 82.0352 431.344 83.9711 428.291 85.1705C431.348 85.4761 434.343 85.9809 437.424 85.9729C437.587 86.8412 437.777 87.6839 438.022 88.5333C437.412 88.9116 423.135 87.6785 420.93 87.6435C415.688 87.56 410.43 88.3516 405.195 88.6262C399.685 88.9156 393.942 88.7137 388.484 89.4353C389.882 93.8266 389.864 96.4005 390.314 100.895C390.855 106.3 391.842 111.699 394.071 116.682C394.515 117.685 395.02 118.656 395.589 119.594C396.157 120.533 396.784 121.43 397.467 122.288C400.947 126.655 404.042 129.364 402.74 135.518C404.373 134.817 407.534 133.331 409.296 134.036C409.904 134.279 409.962 134.475 410.253 135.023L410.24 135.423C407.693 137.048 404.178 137.602 401.908 139.599C399.627 141.605 399.678 144.617 396.706 147.259C396.727 146.45 396.894 145.447 396.441 144.745C395.077 143.644 394.087 143.602 392.569 142.111C390.334 148.189 388.916 154.9 387.496 161.223C389.089 160.659 394.316 158.101 395.717 158.411C395.854 158.874 395.836 158.934 395.61 159.353C395.275 159.974 394.676 160.536 394.201 161.056C395.719 161.195 397.252 161.382 398.774 161.448C400.273 160.336 401.502 159.69 403.329 159.265L401.825 162.336C404.149 162.674 407.569 162.281 409.514 162.801C409.44 163.331 408.65 163.715 408.838 164.066C412.116 164.388 413.127 164.081 415.943 166.184C411.64 166.627 410.469 168.385 407.25 170.736C407.938 168.747 408.673 166.768 409.315 164.763C403.686 166.765 402.68 169.954 398.844 174.045C399.509 170.619 400.992 167.8 402.925 164.917L399.589 164.832C398.02 165.792 396.695 166.867 395.41 168.185C394.546 169.071 391.471 173.251 390.687 173.473C390.384 173.196 390.349 173.282 390.325 172.933C390.166 170.691 392.717 167.006 393.9 165.165C390.717 165.077 388.838 165.56 386.441 167.817C384.677 169.476 383.288 171.496 382.076 173.582C381.605 174.394 381.173 176.164 380.459 176.661C380.056 176.237 380.123 175.845 380.124 175.271C380.131 172.456 382.512 168.669 383.787 166.209C379.017 167.788 376.231 170.167 372.883 173.823C372.2 174.57 371.063 176.244 370.009 176.128C369.795 174.611 373.045 169.572 374.038 168.245C374.381 167.787 374.736 167.355 375.131 166.939C368.319 168.533 364.112 172.857 359.26 177.59C358.582 178.252 357.637 179.457 356.781 179.764C356.536 179.573 356.411 179.569 356.367 179.232C356.159 177.665 359.16 174.46 360.155 173.343C361.365 171.984 362.659 170.714 364.04 169.528C365.42 168.343 366.872 167.255 368.397 166.263C361.36 168.048 355.115 170.798 349.955 176.012C348.216 177.769 346.697 179.774 344.892 181.451C346.329 174.737 350.848 170.042 356.461 166.403L356.931 166.102C350.645 167.479 345.074 170.281 339.909 174.079C338.086 175.419 336.326 176.984 334.397 178.15C336.486 173.148 340.871 169.039 345.397 166.2C343.617 166.538 341.738 166.695 339.997 167.172C335.839 168.311 332.196 171.904 329.318 174.976C328.794 175.534 324.675 180.916 324.448 180.915C324.324 180.915 324.24 180.781 324.138 180.713C323.837 179.757 324.496 178.649 324.935 177.816C326.762 174.343 329.509 170.561 332.659 168.177C321.833 171.235 319.512 174.095 312.642 182.611C313.861 177.97 315.667 174.702 318.894 171.138C311.064 174.185 306.356 179.172 300.779 185.185C302.228 181.503 303.824 178.049 306.482 175.067C303.591 176.902 300.717 178.756 298.145 181.03C295.928 182.988 293.975 185.336 291.578 187.073C291.546 187.094 291.514 187.12 291.481 187.145C292.04 184.266 292.866 181.396 294.455 178.913C291.086 180.871 287.707 183.784 285.55 187.047L285.411 187.257C283.115 187.984 281.926 189.552 279.918 190.683C277.123 192.265 274.194 192.304 271.167 193H270.034C268.34 192.661 266.7 192.326 265.078 191.718C263.757 192.169 262.416 192.573 261.086 193H238.667C234.258 191.65 224.833 191.646 220.397 193H217.103C223.947 189.252 232.545 189.333 240.042 190.493C238.073 189.131 235.239 188.516 232.93 188.03C224.493 186.258 216.876 186.405 208.667 189.118C207.579 189.478 202.748 191.856 202.376 191.856C202.49 191.383 202.641 191.026 202.968 190.656C205.476 187.824 213.078 185.464 216.758 184.733C219.081 184.268 221.395 184.071 223.758 183.955C210.626 178.135 197.946 186.505 195.554 185.79C195.523 185.415 195.451 185.484 195.632 185.253C198.434 181.656 207.897 179.749 212.185 179.032C206.224 177.811 199.061 177.575 193.113 178.958C190.302 179.611 187.58 180.67 184.917 181.77C183.512 182.35 178.905 185.127 177.781 184.982C177.75 184.549 177.679 184.639 177.895 184.324C178.526 183.404 179.748 182.776 180.677 182.172C185.174 179.24 189.808 176.858 195.101 175.755C186.756 173.955 177.101 176.96 170.15 181.61C168.727 182.56 167.133 184.71 165.611 185.2L165.36 185.012C165.253 184.461 165.207 184.2 165.483 183.692C166.041 182.662 167.305 181.739 168.208 181.013C173.125 177.065 178.673 174.455 184.636 172.515C176.041 170.774 164.99 174.138 157.448 178.259C156.007 179.047 154.548 180.895 153.031 181.327C152.826 180.872 152.931 180.768 153.022 180.295L152.926 180.391L152.959 180.461C154.303 176.999 161.785 173.02 165.181 171.288C157.301 172.128 150.161 174.77 143.367 178.818C141.993 179.636 139.867 181.596 138.505 181.999C138.399 181.712 138.291 181.602 138.388 181.291C139.24 178.553 148.389 172.788 150.909 171.577C143.621 171.154 136.387 173.301 130.15 177.023C128.67 177.906 126.808 179.708 125.264 180.266L125.109 180.078L124.829 180.18L124.534 179.737C124.587 179.496 124.552 179.586 124.728 179.294C125.297 178.349 126.553 177.442 127.398 176.745C131.894 173.03 136.338 170.638 141.928 169.048C134.405 168.366 126.619 170.757 120.503 175.148C118.367 176.683 116.288 178.67 113.844 179.678L113.602 179.347C113.612 179.047 113.595 179.045 113.691 178.713C114.37 176.329 121.706 170.704 123.857 169.299C125.09 168.494 126.399 167.853 127.728 167.222C120.38 167.901 116.435 169.505 110.297 173.6C108.782 174.611 107.341 175.752 105.766 176.668L105.571 176.778C108.252 171.213 114.528 167.177 120.04 164.841C113.848 164.841 108.666 167.32 103.759 170.992C102.405 172.006 101.145 173.395 99.6637 174.192L99.4417 174.028C99.2358 173.423 99.2573 173.075 99.5467 172.496C101.828 167.938 109.71 163.339 114.38 161.751C108.298 161.328 103.418 163.447 98.9276 167.526C97.0222 169.257 95.2244 171.148 93.187 172.723L92.9381 172.913C94.5475 167.483 98.8953 163.357 103.608 160.476C103.239 160.472 102.869 160.476 102.5 160.484C95.4464 160.649 90.3006 165.029 85.7294 169.898C86.7803 165.967 88.7154 163.536 91.6839 160.832C86.8732 161.697 82.3814 165.274 79.18 168.838C78.6498 169.428 77.4885 171.494 76.9529 171.675L76.4402 171.196C76.2976 170.786 76.2465 170.543 76.3191 170.102C76.9354 166.418 83.0044 161.394 86.0093 159.532C79.0643 160.648 74.0006 165.314 69.0054 169.891C70.3565 164.351 74.4594 161.282 78.6391 157.818C71.8098 159.104 66.1405 162.045 61.6716 167.458C61.0862 168.168 60.5668 169.658 59.8078 170.019C59.4472 169.711 59.4351 169.596 59.353 169.139C58.804 166.103 62.4171 161.327 64.0749 158.911C61.393 160.223 58.8403 161.717 56.7774 163.906C55.0671 165.719 52.046 171.933 50.9399 172.322L50.6344 171.951C50.3424 170.829 50.5053 169.647 50.7044 168.519C51.4876 164.061 54.4898 159.136 58.4339 156.807C59.4741 156.193 60.9328 156.014 61.8532 155.294C61.9125 155.247 61.9636 155.189 62.0188 155.138C59.9653 155.436 57.9024 156.004 55.9404 156.671C51.0166 158.346 48.6173 160.163 46.2637 164.907L46.0013 164.922C45.8883 164.708 45.8493 164.669 45.8102 164.393C45.5747 162.698 46.8074 160.22 47.7359 158.794C50.3963 154.705 54.0888 153.465 58.6411 152.467C51.3732 152.132 47.8435 153.648 41.7961 157.479C42.9251 155.145 44.4336 153.186 46.1897 151.296C40.5137 152.72 37.6622 154.606 33.6589 158.96C34.9453 154.33 37.5519 151.458 41.1758 148.423C35.0961 148.53 31.0833 150.445 27.8631 155.689C27.4311 156.391 26.7987 157.689 26.0263 157.993C25.6818 156.527 27.1539 153.276 27.8564 151.944C30.148 147.602 33.6616 146.455 38.0067 145.093C37.7564 145.086 37.5075 145.082 37.2572 145.082C37.0069 145.082 36.7579 145.085 36.5077 145.091C36.2574 145.098 36.0084 145.107 35.7581 145.121C35.5092 145.134 35.2589 145.152 35.0099 145.172C34.761 145.192 34.512 145.217 34.2644 145.243C34.0155 145.27 33.7679 145.301 33.5203 145.335C33.2727 145.369 33.0251 145.406 32.7788 145.447C32.5326 145.487 32.2863 145.532 32.0414 145.579C31.7965 145.626 31.5516 145.677 31.308 145.731C31.0644 145.785 30.8209 145.843 30.5787 145.903C30.3364 145.964 30.0942 146.027 29.8533 146.094C29.6125 146.162 29.3729 146.232 29.1348 146.306C28.8966 146.38 28.6584 146.456 28.4216 146.536C28.1847 146.617 27.9492 146.7 27.7151 146.786C27.4809 146.872 27.2481 146.963 27.0153 147.055C26.7839 147.148 26.5524 147.245 26.3237 147.344C26.0949 147.443 25.8661 147.545 25.6401 147.65C25.414 147.755 25.1879 147.865 24.9645 147.976C24.7412 148.088 24.5191 148.202 24.2984 148.32C24.0778 148.437 23.8584 148.558 23.6418 148.682C23.4251 148.806 23.2085 148.932 22.9958 149.061C22.7819 149.191 22.5706 149.322 22.3593 149.458C22.1494 149.593 21.9408 149.732 21.735 149.872C21.5291 150.013 21.3245 150.157 21.1213 150.302C20.9195 150.449 20.719 150.599 20.5198 150.749C20.322 150.902 20.1255 151.056 19.9304 151.214C19.7366 151.371 19.5442 151.53 19.3545 151.693C19.1647 151.856 18.9763 152.02 18.792 152.188C18.6063 152.357 18.4233 152.526 18.243 152.699C18.0626 152.871 17.8837 153.046 17.7074 153.224C17.5311 153.401 17.3575 153.58 17.1866 153.764C17.0157 153.945 16.8475 154.13 16.6806 154.317C15.6404 155.481 14.1319 158.089 12.8818 158.836L12.5602 158.61C12.2615 156.522 14.2827 152.992 15.5341 151.346C19.4406 146.202 25.7908 142.919 32.1141 141.991C34.2052 135.716 34.2752 129.578 32.7169 123.175L32.4828 123.182C32.2688 123.785 32.4464 124.531 32.5164 125.168C30.9541 125.547 29.229 125.468 27.6263 125.668C25.3023 125.959 22.9514 126.545 20.6261 126.718C20.1686 126.753 20.2265 126.798 19.8039 126.546C19.7972 126.169 19.777 125.808 19.7326 125.434C18.142 125.271 13.8682 128.428 11.9412 129.152L11.6263 129.269C12.4418 127.206 13.6906 125.636 15.0376 123.897C11.1997 124.914 7.98899 127.564 4.33416 129.092C6.17503 125.328 8.94172 123.413 12.505 121.418C6.44686 121.358 5.78748 122.911 0.733167 125.246L0.521898 125.341C0.200284 121.748 0.115507 118.035 0.0737915 114.429C2.09094 114.699 3.74207 115.297 5.59774 116.122C6.66216 112.326 8.43844 108.741 11.3061 105.98C11.7501 108.857 11.4823 111.8 11.224 114.682C13.3595 111.093 15.2421 108.908 19.372 107.583C18.1003 110.04 17.4167 112.562 16.8381 115.255C18.251 114.012 19.3625 112.564 20.9154 111.462C20.6073 114.176 19.6142 116.591 18.8687 119.193C20.2318 117.242 21.5977 115.397 23.8557 114.428C24.1841 111.117 24.5622 107.85 25.776 104.723C27.2872 100.83 29.4456 97.4613 30.3364 93.3137C31.1896 89.3464 31.5516 85.188 31.818 81.144C32.0683 77.3423 32.1221 73.3657 33.2135 69.6919C34.1137 66.6616 35.7218 64.0688 37.9354 61.8193C42.3425 57.3405 48.6254 55.3535 54.8168 55.2916C61.9394 55.2216 68.0554 58.3623 74.882 59.6735C80.3211 60.7195 85.9245 60.3869 91.3556 61.5002C97.5214 62.7643 103.488 64.9842 109.626 66.4287C115.512 67.8139 121.412 68.2676 127.359 69.2086C132.114 69.9611 136.889 71.2037 141.7 71.4918C144.886 71.6816 148.062 71.2131 151.247 71.2306C154.836 71.2508 158.999 72.2806 161.963 74.3538C163.226 75.2369 164.382 76.4067 165.72 77.1579C166.561 77.6291 167.536 77.9468 168.434 78.3008C171.501 79.5124 172.635 80.4911 174.952 82.8281L175.234 82.7783C175.509 82.0137 175.649 81.5492 176.336 81.0821C177.026 80.9367 176.986 80.9367 177.591 81.3015C177.859 80.9825 178.108 77.2562 178.354 76.3677C178.588 75.525 178.801 74.9623 179.572 74.514C179.81 74.5449 179.996 74.5544 180.225 74.6594C181.954 75.459 183.531 79.157 184.353 80.8102C184.484 79.0722 184.809 77.096 185.606 75.5317C186.132 74.4978 187.353 72.9887 188.537 72.7101C189.243 72.5431 189.664 72.6132 190.254 73.0184C190.728 74.4386 188.896 76.8281 188.396 78.212C188.122 78.9686 188.027 79.8019 187.916 80.5961C192.792 81.1481 198.192 81.9302 203.079 81.3648C205.014 81.1413 212.225 79.5797 213.351 79.6457C213.997 79.6834 214.127 79.8826 214.571 80.304C214.787 80.8963 214.82 81.319 214.617 81.9154C213.473 85.3024 209.132 87.8683 206.102 89.302C211.638 91.7063 215.912 91.3927 221.806 90.3642C220.086 96.4894 215.947 99.5749 209.681 99.871C208.278 99.937 205.559 99.5533 204.393 100.478C203.706 101.022 203.593 102.344 203.565 103.161C203.431 106.932 205.246 111.715 207.328 114.811C208.295 116.25 209.553 117.642 210.298 119.211C210.778 120.22 211.036 121.371 210.962 122.491C210.826 124.531 209.759 126.92 208.201 128.265C206.267 129.934 200.823 131.5 198.302 131.227C196.644 131.046 195.032 130.314 193.739 129.272C191.107 127.153 190.668 123.708 188.338 121.537C184.459 117.921 180.619 118.435 176.493 113.336C174.615 115.34 172.336 116.996 170.338 118.89C166.722 122.318 162.295 128.155 160.334 132.803C156.899 140.948 158.959 151.418 162.201 159.294C162.609 158.273 162.98 157.143 163.67 156.278C163.965 155.909 164.125 155.559 164.605 155.511C164.857 157.413 163.645 159.474 163.659 161.415C163.664 161.926 163.583 161.743 163.899 162.058C164.986 161.516 167.012 158.501 168.248 157.393C168.846 156.857 169.618 156.107 170.456 156.16L170.676 156.453C170.905 158.584 169.08 161.149 168.519 163.242L168.437 163.555C169.675 161.51 170.996 158.782 172.992 157.42C173.417 157.514 173.644 157.567 174.076 157.455C174.419 157.367 174.516 157.349 174.858 157.421C175.322 158.774 173.69 161.815 173.222 163.253C174.169 161.934 175.461 160.897 176.352 159.55C177.766 157.409 177.734 154.792 177.19 152.374C177.792 151.565 178.388 150.753 179.158 150.094C181.708 147.908 185.056 148.069 188.191 148.278C189.576 146.561 190.998 144.778 193.279 144.293C193.459 144.255 193.642 144.227 193.825 144.208C194.01 144.189 194.194 144.18 194.378 144.18C194.563 144.18 194.747 144.189 194.931 144.208C195.116 144.227 195.297 144.255 195.479 144.293C195.659 144.331 195.838 144.377 196.015 144.433C196.191 144.488 196.365 144.553 196.534 144.627C196.704 144.7 196.869 144.782 197.029 144.872C197.191 144.962 197.347 145.06 197.498 145.167C199.112 146.299 200.115 148.143 200.41 150.062C203.09 150.557 207.925 150.457 209.937 152.364C211.826 154.153 211.511 157.645 211.527 160.045C212.565 161.332 213.923 162.498 214.647 164.003C215.464 165.699 215.346 167.862 214.709 169.595C214.593 169.907 214.594 169.731 214.746 170.088C214.951 170.144 215.383 170.299 215.613 170.286C217.023 170.207 217.506 167.415 218.459 166.446C220.425 164.447 223.015 163.149 224.75 160.886C228.126 156.483 228.246 150.232 227.513 144.992C226.174 144.787 224.893 144.523 223.636 143.998C217.68 141.51 214.715 135.286 212.381 129.673C217.312 131.064 221.898 132.931 227.013 133.711C223.863 131.244 222.022 128.385 220.817 124.603C222.571 125.426 224.209 126.487 225.954 127.335C228.503 128.575 231.239 129.041 233.999 129.557C234.254 128.526 234.464 127.465 234.896 126.49C237.332 120.985 243.713 118.026 247.472 113.423C249.503 110.935 251.28 108.212 253.391 105.798C256.68 102.04 265.522 94.602 269.958 92.4064C278.06 88.3933 286.706 89.5362 295.395 89.9361C299.397 90.1165 303.399 90.1151 307.402 89.9347C320.162 89.3141 329.767 87.4389 341.664 82.6881C326.641 75.8696 304.754 72.7329 288.415 72.8649C288.059 73.8449 287.613 75.315 286.633 75.8548C284.878 76.82 284.539 74.2313 283.074 73.9378C282.163 74.207 281.588 74.8277 280.824 75.3406C280.321 75.6785 280.105 75.8763 279.498 75.7579C279.623 75.3001 280.082 74.6903 280.329 74.2676L280.199 74.1317C279.517 74.4413 278.699 74.7469 278.12 75.2329C276.542 76.5589 277.574 76.707 274.982 77.4272C275.093 75.7256 275.558 74.2986 276.161 72.7235C270.947 71.1418 270.891 73.0762 266.369 73.0466C264.081 73.0318 261.776 72.5674 259.498 72.36C256.536 72.0908 246.653 71.7381 244.04 72.111C242.702 72.3022 241.365 72.9322 240.078 73.3441C238.984 73.6941 237.89 73.8839 236.738 73.8759C233.213 73.853 229.83 72.9551 226.342 72.776C223.644 72.6374 220.913 73.087 218.219 72.8124C217.399 72.7289 216.746 72.4812 216.018 72.1083L217.287 70.8779C217.687 69.1951 218.431 67.6766 219.07 66.08C220.121 63.459 222.555 54.8244 221.419 52.1913C220.932 51.7941 220.658 51.7201 220.024 51.7282C219.529 51.7336 218.906 51.7214 218.573 52.1361C217.042 54.053 216.466 64.7042 216.609 67.476C216.987 68.0657 217.485 68.6997 217.461 69.4307C217.423 70.5252 216.06 71.6264 215.345 72.3924C211.729 72.4785 208.999 71.6829 205.654 71.5564C204.336 71.5066 202.952 71.7058 201.637 71.8122C200.122 71.9347 197.337 72.3116 196.023 71.4796L196.078 71.1996C198.854 69.0834 204.288 69.42 207.711 68.9003C207.851 68.6122 207.986 68.3242 208.122 68.0347C210.283 63.3903 209.042 52.5642 207.718 47.6828C204.3 43.9646 195.782 38.2419 191.174 36.5067C190.282 37.1367 189.355 37.8569 188.354 38.2998C186.688 39.0362 184.764 39.292 183.16 40.1535C181.765 40.902 180.651 42.1822 179.31 43.033C177.72 44.0413 175.974 44.5623 174.109 44.1302C172.295 43.7102 167.209 40.7216 166.255 39.0281C165.77 38.1665 165.794 37.2928 166.289 36.4447C166.877 35.4351 168.034 34.6745 168.916 33.93C172.073 31.2686 173.482 28.2181 174.518 24.2912C171.489 23.085 168.367 21.2151 166.119 18.827C164.864 17.4929 163.841 16.0942 163.9 14.2041C168.768 14.1624 173.625 15.4453 178.07 17.3354C177.058 15.3309 176.01 13.2147 175.15 11.1415C174.886 10.5075 174.705 9.97166 174.977 9.31067L175.456 9.12087C177.91 9.413 180.771 11.7015 182.956 12.8916C183.745 12.4608 184.551 12.0677 185.374 11.711C189.261 10.0336 192.007 10.9328 195.69 12.4083C197.767 11.7056 199.761 10.6273 201.758 9.72531C207.103 7.31292 213.055 4.533 218.818 3.37258C223.445 2.43966 228.783 3.8976 233.464 4.21665C236.628 4.43339 239.835 4.24088 242.997 4.08068C248.392 3.76163 253.757 3.17604 259.093 2.3239C265.145 1.35194 271.251 -0.118116 277.414 0.101315C280.841 0.222473 283.249 1.30078 286.06 3.18277C288.197 3.29047 290.308 3.50451 292.181 4.6434C297.887 8.11391 298.823 22.175 300.306 28.311L300.37 28.5627C301.344 29.7191 302.607 30.5928 303.621 31.7182C305.99 34.346 307.173 38.7198 307.355 42.1836C307.539 45.7066 306.862 48.7302 304.458 51.4293C303.045 50.2729 301.543 49.1354 300.242 47.8578C295.143 42.8486 296.875 34.1346 296.832 27.7604C296.791 21.6742 295.555 16.735 291.149 12.376L291.052 12.2508L291.045 12.2548ZM178.997 14.0749C179.16 14.5111 179.267 14.853 179.571 15.2138C179.816 15.5046 179.721 15.409 180.159 15.4346L180.213 15.1788C179.921 14.5972 179.533 14.3966 178.997 14.0749ZM319.152 37.865L319.399 37.9525C320.779 38.8719 322.199 39.3539 323.771 39.821C323.675 39.6271 323.611 39.475 323.475 39.2987C322.841 38.4735 320.413 38.1584 319.399 37.9511L319.152 37.8636V37.865ZM229.332 66.3062L229.641 65.8431C229.682 65.3558 229.734 64.8738 229.8 64.3878L230.088 64.4121C230.153 64.793 230.209 65.1687 230.251 65.5537L230.286 65.8956L230.579 65.9306C230.768 65.3867 230.9 64.7217 231.345 64.334L231.801 64.781C232.163 65.6937 232.097 66.5875 232.092 67.5528C232.905 67.826 233.843 68.2609 234.705 68.2259L234.806 67.9512L234.207 67.0574C232.527 64.61 230.893 62.2339 228.959 59.9777C229.355 62.1733 229.636 64.0796 229.333 66.3062H229.332ZM180.784 78.9457C181.208 80.7631 181.907 83.5268 181.329 85.328C180.756 85.6713 180.235 85.4734 179.585 85.4048L179.478 85.6053C179.666 86.6567 180.509 87.4187 180.985 88.3448C181.273 88.9035 181.234 89.1432 181.054 89.7274C181.28 90.628 186.381 94.5778 187.392 95.9576C188.106 96.9336 187.608 97.6552 188.027 98.6433C188.32 99.3366 189.021 100.064 189.438 100.708C190.32 102.071 191.123 104.744 190.785 106.383C190.689 106.85 190.617 106.875 190.239 107.115C189.15 106.165 189.062 103.994 188.097 102.854C187.824 102.532 187.966 102.616 187.567 102.573L187.241 103.795C186.872 104.168 186.444 104.332 185.932 104.404C184.629 104.587 183.181 103.933 182.184 103.144C180.813 102.057 179.4 100.229 179.234 98.4279C179.172 97.7589 179.367 97.0669 179.838 96.5742C180.354 96.0357 180.887 96.033 181.573 96.0694C181.638 96.0721 181.701 96.0774 181.765 96.0815C180.67 94.707 180.136 93.2423 180.241 91.4815C179.219 92.1842 178.162 92.8452 177.122 93.5224C177.085 95.329 177.368 97.1423 177.482 98.9435C177.677 102.033 177.318 104.934 178.351 107.935C178.956 109.686 179.887 111.496 181.177 112.835C183.372 115.113 187.25 115.758 189.857 117.968C193.969 121.455 192.597 124.797 198.384 127.616C196.748 124.329 193.267 123.302 192.465 119.312C192.108 117.537 192.473 115.15 193.594 113.671C193.879 113.294 193.96 113.298 194.397 113.254C195.148 115.214 193.209 116.825 195.466 120.277C196.195 121.393 201.271 126.541 202.26 126.66C202.631 126.706 202.735 126.512 203.012 126.304C203.756 124.638 203.198 122.979 202.606 121.363C201.372 120.924 200.192 120.612 199.377 119.518C199.285 119.011 199.27 119.011 199.52 118.564C201.335 117.229 201.964 118.498 203.435 118.381C204.211 117.903 204.833 117.238 205.195 116.389C205.382 115.95 205.32 116.023 205.165 115.622C202.596 111.761 200.664 105.802 201.243 101.122C201.439 99.5372 202.271 98.1573 202.14 96.5096C201.958 94.2157 200.52 91.8948 200.751 89.6399C200.828 88.8982 198.543 86.821 197.997 86.0469L197.8 85.7655C193.006 83.3047 188.723 85.5824 185.35 84.4382C182.921 83.6143 181.86 81.0444 180.784 78.9443V78.9457ZM164.126 100.27C163.092 100.692 162.171 101.089 161.091 100.572C160.119 100.108 159.47 99.0014 158.991 98.0806C157.92 97.9433 156.805 97.8531 155.744 97.6539C154.886 96.9781 153.633 96.0061 153.545 94.8228C153.467 93.7552 154.661 92.5948 154.794 91.4021C154.37 91.3698 154.012 91.3953 153.594 91.4452C153.05 91.5111 152.785 91.4586 152.283 91.2567C151.707 90.7182 151.213 90.1905 151.185 89.3505C151.143 88.1268 152.172 86.9017 153.033 86.1452C153.638 85.6121 154.339 85.1678 155.008 84.7195C153.233 84.6953 151.785 84.7074 150.246 83.6978C150.074 83.4151 149.861 83.2374 149.924 82.8914C150.121 81.8063 151.47 80.8694 152.357 80.3619C154.775 78.982 157.948 78.3466 160.714 78.3143C154.473 73.4397 147.448 75.6838 140.214 74.895C136.061 74.4413 131.904 73.1126 127.724 73.0614C126.728 74.4426 125.813 75.7444 124.419 76.7675C123.237 80.059 121.328 81.8548 118.075 83.2293C117.791 83.3491 117.733 83.3531 117.461 83.4326C116.764 83.6345 116.292 84.1811 115.797 84.6845C112.71 85.1207 108.549 86.8115 105.813 84.6805C104.779 83.8755 101.692 81.2261 101.344 80.1088C101.295 79.9486 101.225 79.7965 101.164 79.6403L101.021 79.2634C100.806 79.0843 100.633 78.8084 100.335 78.8622C99.1443 79.0803 98.1081 80.724 96.7679 79.9163C95.6563 79.2472 95.3522 77.3922 95.2001 76.2277C95.1248 75.6354 95.0548 75.043 94.9902 74.4507L93.6123 72.5728C93.5571 70.1954 93.2261 67.8422 91.3744 66.1379C90.2925 65.1417 88.9913 64.6221 87.577 64.2855C82.6586 63.113 77.3405 63.3217 72.3306 62.3538C68.3999 61.5931 63.5757 58.8536 59.6692 59.1457C58.1486 59.2602 56.8851 60.0679 55.974 61.266C55.3012 62.1518 54.7185 63.1574 54.1184 64.0957C53.2248 64.3959 52.1873 64.6154 51.4916 65.2737C51.497 66.1137 51.6222 67.2418 51.419 68.0495C51.127 69.2072 48.8918 72.531 48.1611 73.6901C46.1857 72.9659 43.6397 71.6789 41.5539 72.5943C40.6187 73.0049 40.0548 73.8732 39.7359 74.8115C37.0123 82.847 46.1763 100.737 43.0422 108.79C41.5135 112.721 37.7968 114.512 35.7891 117.992C35.6908 121.348 36.5776 124.097 37.0365 127.351C37.6905 131.997 36.9006 136.797 36.077 141.368C37.1105 141.676 38.1426 142.004 39.1869 142.274C38.1413 133.051 40.18 125.675 45.9313 118.384C47.9983 115.763 54.5355 112.031 54.51 108.702C54.5073 108.453 54.444 108.266 54.3808 108.034C54.0121 107.757 53.7026 107.577 53.2867 107.379C52.0783 106.803 51.4526 105.351 50.9709 104.168C51.3638 102.672 52.0097 100.354 51.1862 98.9206C50.9103 98.4414 50.5012 98.2596 49.9778 98.1735C48.7438 97.9688 47.2097 98.6823 46.3566 97.4035C45.4348 96.0209 46.8491 94.357 46.3418 93.0041C45.5761 90.9632 42.7825 88.9466 43.6087 86.3835C43.7473 85.9527 44.1833 85.3657 44.6207 85.1732C45.1038 84.9619 45.5371 85.0197 45.9771 85.2998C46.4979 85.6323 46.9904 86.1196 47.4466 86.5396L49.9199 86.3498C51.0193 85.1409 51.7002 83.9603 52.2869 82.431C51.9815 81.0498 51.3934 79.4869 52.2304 78.1932C52.5628 77.6789 53.1616 77.2602 53.6447 76.8994C53.3473 75.9867 52.6489 74.4023 53.0068 73.4559C53.5317 72.072 58.0719 69.5532 59.4795 69.1978C60.517 68.9353 61.3069 68.9488 62.3781 69.0349C64.3669 68.1963 66.4016 65.3437 68.8386 66.2268C69.4657 66.4543 70.121 66.9806 70.3942 67.5985C70.7508 68.4036 70.4964 69.4146 70.3323 70.2344C71.9525 71.3154 74.0019 69.8588 74.633 72.5916C74.7784 73.223 74.7743 73.8826 74.4325 74.4574C73.8202 75.4846 72.737 75.8333 72.3642 77.0637C72.5136 77.3814 72.6401 77.5187 72.8527 77.7906C73.434 78.5311 73.4394 80.2609 73.5565 81.2302C74.2522 81.3796 75.0959 81.63 75.8078 81.5613C77.3365 81.416 80.1139 79.9822 81.2671 81.6529C81.543 82.0514 81.5888 82.5723 81.6762 83.0368C81.8108 83.761 81.9467 84.1972 82.5751 84.6455C83.8293 85.538 85.9474 85.2378 87.4101 85.1544C89.1433 86.6109 89.8377 88.6141 91.4 90.1569C91.3556 90.7317 91.1322 92.0631 91.5211 92.5087C91.7633 92.7873 91.6678 92.685 91.9948 92.9368L92.276 92.9704C95.2769 93.2962 99.1443 90.064 101.217 92.4023C101.911 93.1845 101.935 93.9303 101.833 94.9265L101.809 95.1432C102.5 95.6938 103.185 96.2551 103.905 96.7694C104.103 98.5531 104.3 99.4376 105.766 100.621C107.415 101.95 110.596 103.303 110.831 105.664C110.931 106.656 110.634 107.348 109.997 108.091C109.685 108.456 109.355 108.813 109.028 109.165C109.02 109.977 109.065 110.592 108.625 111.296C107.74 112.016 106.372 111.906 105.267 111.968C103.788 113.019 102.329 113.986 100.727 114.839C99.8992 116.428 99.1591 118.014 97.3425 118.66C96.3345 119.018 95.0642 118.885 94.1088 118.419C93.4508 118.097 92.8493 117.54 92.2854 117.074C87.9914 118.135 84.4456 118.282 80.5607 115.885C79.6497 115.324 78.378 114.565 77.7119 113.737C77.2409 113.151 76.8628 112.07 76.2868 111.617C75.6207 111.092 74.4446 112.237 73.508 111.014C72.5728 109.794 72.9227 106.967 71.1302 106.544C70.8517 106.478 70.7885 106.497 70.5301 106.511C69.9945 106.887 69.7429 107.379 69.4172 107.928C68.9409 108.133 68.6502 108.168 68.155 107.951C66.8026 107.356 66.3922 105.769 64.6347 106.147C63.2097 106.454 61.7227 108.258 60.84 109.325C60.9355 109.351 61.0297 109.375 61.1239 109.401C65.7987 110.689 68.8803 114.973 72.5903 117.819C85.4481 127.68 103.278 130.778 118.43 124.424C116.205 119.023 113.626 110.619 116.151 104.921C116.33 104.518 116.463 104.439 116.817 104.2C117.315 104.451 117.53 104.592 117.731 105.135C118.136 106.233 117.829 107.905 117.908 109.084C118.037 111.224 118.342 113.337 118.822 115.426C119.857 119.783 121.815 123.851 122.96 128.183C123.833 131.484 123.423 134.661 123.723 138.005C123.913 140.124 125.211 141.917 125.383 143.934C125.885 149.787 123.997 155.888 123.156 161.629L124.666 163.323C126.409 163.674 128.096 164.154 129.801 164.653C128.945 159.797 127.02 151.301 128.594 146.728C129.407 144.368 131.039 142.236 131.993 139.9C132.398 138.911 132.787 137.829 132.241 136.844C129.699 135.422 128.597 136.779 127.488 133.099C126.795 130.797 127.602 128.824 127.166 126.899C126.907 125.756 125.946 125.034 125.604 123.975C125.336 123.146 124.166 116.503 124.232 115.943C124.416 114.368 125.425 112.955 125.612 111.471C125.732 110.511 125.008 109.484 125.622 108.57C126.705 106.955 129.303 107.509 130.683 106.73C131.277 106.393 131.298 105.059 131.287 104.489C131.251 102.527 130.693 100.602 130.615 98.6379L130.806 98.2798C131.668 96.6536 132.082 94.9237 132.856 93.2894C133.918 91.0494 137.735 89.7314 139.972 89.0556C140.599 88.8658 141.033 88.847 141.663 89.0664C142.577 89.7974 143.068 90.9269 143.531 91.9796C145.091 92.8775 146.125 93.4793 146.634 95.3141C146.962 96.4988 147.094 97.8518 147.587 98.9718C148.252 100.482 150.643 101.491 149.628 103.467C149.254 104.195 148.416 104.627 147.727 104.999C148.046 106.096 148.657 107.602 147.939 108.655C146.973 110.075 144.525 109.269 144.003 111.229C144.275 111.882 144.528 112.143 145.184 112.428C146.656 113.069 148.616 113.321 150.212 113.414C150.288 113.384 150.363 113.357 150.437 113.326C154.856 111.482 158.438 105.72 163.79 107.839C164.665 108.185 165.537 108.526 166.441 108.791C168.797 107.487 171.145 105.992 173.909 105.847C173.944 103.841 174.616 99.8576 173.663 98.0941L173.331 97.9514C171.093 99.412 174.476 102.209 166.363 104.068C165.246 104.324 163.744 104.809 162.602 104.595C162.217 104.524 162.173 104.413 161.897 104.163C161.755 103.399 162.158 102.64 162.576 102.02C163.023 101.357 163.639 100.883 164.129 100.27H164.126ZM219.452 135.878L219.554 135.979C219.628 136.084 219.701 136.189 219.778 136.293C221.399 138.453 225.178 140.595 227.84 140.915C227.823 140.845 227.815 140.774 227.791 140.707C227.526 139.949 220.745 136.613 219.553 135.98L219.451 135.879L219.452 135.878ZM50.9574 144.74C52.2129 143.779 52.735 142.648 54.3027 141.98C53.6097 142.614 52.7068 143.279 52.1954 144.067L52.3771 143.982C53.6985 143.353 58.5617 140.236 59.6194 140.354C59.6612 141.457 58.3141 142.746 57.5902 143.528C56.5285 144.674 55.4169 145.759 54.5019 147.033C55.8085 145.985 60.3865 142.923 61.8721 142.819C62.23 144.954 61.2289 147.012 60.0124 148.707C59.8751 148.9 59.7352 149.09 59.5939 149.279C61.0418 148.653 62.4319 147.982 63.8193 147.232C63.1895 137.317 50.3895 126.469 50.2577 122.534C50.1836 120.316 51.7917 118.411 53.0042 116.697C48.9376 119.228 44.0595 127.054 42.9372 131.783C41.9657 135.871 42.3451 139.751 42.438 143.899C45.1226 140.967 47.3591 138.834 50.9883 137.127C48.4154 140.361 45.2652 143.11 42.9063 146.509C46.6217 143.104 50.2334 140.349 54.6015 137.829L54.8612 137.931C54.4346 140.345 51.8388 142.395 50.9587 144.74H50.9574ZM93.1494 142.816C94.6525 142.157 96.0708 141.288 97.4959 140.478C95.69 142.789 93.7011 144.989 91.7055 147.138C95.4612 144.207 99.4403 140.774 103.85 138.896C102.526 140.654 100.977 142.204 99.6126 143.924C100.549 143.417 105.521 141.321 106.391 141.177L106.414 141.385C105.237 142.477 103.89 142.944 102.891 144.277C104.618 143.449 106.957 140.732 108.805 140.61L108.88 141.003C108.497 142.03 107.88 142.814 107.228 143.675C108.65 143.034 110.141 142.793 111.555 142.196C110.706 143.134 109.845 144.04 108.937 144.919L109.169 144.832C109.819 144.582 111.909 143.409 112.386 143.612C112.23 143.967 112.077 144.325 111.929 144.685C112.971 144.556 113.944 144.055 114.905 143.65C113.621 145.316 112.345 146.898 110.807 148.341L111.078 148.216C111.921 147.815 115.629 145.024 115.996 144.994C116.238 144.974 116.458 145.152 116.688 145.23L116.72 144.747L116.241 144.857L116.673 145.223C115.922 146.218 115.162 147.152 114.584 148.262C116.058 147.52 117.533 146.696 119.079 146.121C118.118 147.754 117.017 148.951 115.641 150.235C115.33 150.526 115.454 150.395 115.178 150.748C117.087 150.226 119.368 148.701 121.158 147.786C120.051 149.779 118.477 151.182 116.861 152.74C118.212 152.102 120.009 150.764 121.544 150.903L121.793 151.235C121.695 152.089 121.083 152.905 120.644 153.629C120.991 153.684 121.324 153.704 121.676 153.714C121.856 153.536 121.871 153.541 122.021 153.287C123.695 150.424 120.789 142.515 120.445 139.381C119.995 135.292 120.624 131.493 119.078 127.545C117.257 128.279 115.403 128.915 113.516 129.455C111.629 129.995 109.719 130.435 107.786 130.777C98.1687 132.403 86.6 130.338 78.012 125.756C75.2493 124.282 72.7962 122.365 70.2529 120.553C69.1696 122.011 67.7405 123.689 67.2063 125.438C66.9587 126.249 67.1215 126.966 67.4378 127.733C68.303 129.835 69.8492 131.759 71.1276 133.62C72.8325 136.101 74.4621 138.541 75.8589 141.216C77.4266 139.268 78.9755 137.566 80.9482 136.019C79.6806 138.508 78.4682 141.002 77.3378 143.555C77.6648 144.025 77.9582 144.491 78.4022 144.861L78.849 144.564C79.9753 141.7 84.6609 137.25 87.2903 135.528C87.0185 136.482 85.1063 141.552 85.288 142.07C87.1154 142.249 92.2182 137.915 93.9245 136.637C93 138.986 91.5278 140.864 90.0463 142.878C91.7647 141.73 93.5127 140.516 95.4181 139.697C96.2565 139.336 97.0518 138.932 97.8578 138.507C96.3978 140.066 94.6404 141.29 93.148 142.818L93.1494 142.816ZM141.169 156.976C143.749 155.613 144.669 153.26 148.048 152.039C147.09 153.138 146.478 154.302 145.839 155.604L148.906 153.179L149.078 153.225L148.857 153.987L148.981 153.758C148.304 155.349 146.734 157.436 146.335 158.708C147.607 157.751 148.924 156.837 150.328 156.084L150.609 156.191C150.383 157.365 148.974 158.75 148.217 159.648C149.414 159.17 150.432 158.676 151.503 157.948C151.422 156.355 150.977 152.959 149.931 151.752C149.541 151.821 149.204 151.844 148.809 151.829L149.204 151.771L148.97 151.743C149.459 151.499 149.558 151.482 149.829 151.017C149.007 148.563 147.734 146.272 146.773 143.87C145.953 141.821 145.431 139.638 144.811 137.522C141.873 135.987 139.318 134.684 136.064 133.938C135.602 136.307 135.076 138.696 134.238 140.964C132.389 145.974 131.245 147.274 131.267 152.851C131.68 152.314 132.113 151.79 132.612 151.328C133.105 150.875 133.639 150.539 134.308 150.564C134.733 151.763 133.103 154.042 132.708 155.243C132.46 155.996 132.355 156.826 132.225 157.607C133.2 155.842 134.267 154.32 135.885 153.088C136.939 152.285 137.882 151.589 139.22 151.768C140.841 150.888 142.28 149.51 143.733 148.369C142.282 151.322 139.696 153.628 138.368 156.557C140.696 154.59 143.02 152.565 145.587 150.915C144.425 152.949 141.908 155.432 141.171 156.977L141.169 156.976ZM372.546 161.682C373.703 161.289 374.849 160.981 376.039 160.702C376.84 157.56 376.824 154.194 376.802 150.969C375.573 149.95 374.26 149.104 372.844 148.375C372.064 150.006 371.266 151.63 370.452 153.245C368.957 155.646 367.734 157.929 366.999 160.671C368.774 160.342 374.217 158.167 374.983 158.233L375.04 158.578C374.45 159.808 373.477 160.706 372.548 161.682H372.546ZM268.349 176.199C270.795 172.973 273.031 169.645 276.051 166.904C274.963 169.323 273.856 171.556 273.162 174.133C273.993 173.407 274.957 172.663 275.615 171.776C278.206 168.28 278.905 162.744 279.317 158.548C270.333 158.607 260.253 159.209 253.242 165.528C251.161 167.403 249.146 170.241 246.63 171.486C243.046 173.261 238.485 172.89 235.362 175.603C233.354 175.572 229.994 175.118 228.176 175.907C227.954 176.422 227.657 176.788 227.805 177.341C228.825 177.589 229.462 176.393 230.515 176.722C230.737 177.722 229.689 179.281 229.209 180.171C230.278 179.238 231.609 177.811 232.893 177.253C233.782 176.868 234.713 177.095 235.646 177.018C236.569 176.941 237.596 176.471 238.468 176.15C236.899 177.839 235.032 179.549 233.712 181.435C237.314 179.726 238.684 177.204 243.095 176.671C241.96 178.396 240.473 179.751 239.091 181.269C242.54 179.753 243.873 176.707 246.503 174.321L244.799 179.201C247.151 176.162 250.369 170.617 253.784 169.087C252.942 172.052 251.448 174.877 250.767 177.853C253.577 175.113 254.975 169.66 258.48 166.901C257.31 170.715 255.259 174.215 254.204 178.083C256.549 174.958 257.966 171.291 260.549 168.243C260.912 167.815 261.3 167.286 261.874 167.236C262.204 169.011 258.848 175.826 258.065 177.695C261.465 173.721 263.784 168.764 268.876 166.641C266.76 169.759 263.249 174.47 261.882 177.795C266.503 174.581 268.539 168.803 274.013 165.21C272.039 168.572 269.452 172.462 268.345 176.202L268.349 176.199ZM274.615 3.522C269.822 3.70643 266.102 5.20342 261.534 6.16999C262.782 6.8754 264.175 7.59023 264.544 9.09798C265.01 11.0042 263.839 13.4004 265.767 14.9015C267.51 16.2584 269.769 16.9975 270.189 19.4705C270.96 24.0085 267.398 27.9327 265.195 31.4678C264.365 32.8006 263.676 34.3097 262.743 35.5657C261.78 36.8647 260.355 38.0454 258.704 38.2688C258.113 38.3483 257.498 38.2742 257 37.9242C255.891 37.1448 255.8 35.3785 254.649 34.7122C252.545 33.4925 249.215 35.0339 247.268 33.5531C245.577 32.2661 245.419 29.2479 244.008 27.5894C240.886 23.9156 235.854 22.3271 233.501 19.628C232.792 18.8149 232.473 17.8294 232.383 16.7659C232.202 14.6389 233.666 10.0363 231.971 8.49219C230.123 6.80809 222.158 6.29249 219.661 6.60077C213.271 7.3883 206.71 10.6017 200.872 13.2402C199.324 13.9403 197.776 14.8032 196.183 15.378C192.8 16.6004 189.105 16.8185 185.732 18.1229L185.401 17.952C185.401 17.2829 185.718 16.455 186.186 15.9609C187.459 14.6174 191.365 14.4586 193.194 14.2001C187.236 13.5714 185.399 15.1815 181.039 18.7031C178.292 20.9217 176.916 23.847 176.032 27.2057C175.717 28.4025 175.464 29.6693 174.931 30.7893C173.913 32.9284 172.362 34.661 170.619 36.2388C171.48 36.2051 172.579 36.0328 173.277 36.6521C173.547 36.8917 173.507 37.1165 173.568 37.4517C173.154 38.8867 172.139 39.8951 171.16 40.9747C172.13 40.4658 173.094 39.9677 173.93 39.2475C174.928 38.3859 176.193 36.3976 177.311 35.9803C177.727 36.1149 177.836 36.0638 178.088 36.442C178.152 37.6415 177.282 39.1654 176.516 40.0404C176.283 40.307 176.029 40.5506 175.783 40.8024C175.702 40.8845 175.624 40.968 175.546 41.0501L175.402 41.1968C178.942 39.8224 179.966 37.7075 182.851 36.3303C184.492 35.5468 186.582 35.7097 188.106 34.7552C188.883 34.2693 189.391 33.6231 189.756 32.7871C190.056 32.1005 190.275 31.4072 190.458 30.683C189.818 28.0606 189.337 26.1705 190.02 23.4943L192.271 22.9221C192.908 21.8909 193.339 20.9836 193.705 19.8218C191.931 20.0911 188.926 20.8624 187.334 19.7411C187.083 19.5647 186.907 19.3493 186.727 19.107L186.693 18.6277C187.825 17.3825 191.678 17.3771 193.36 16.9181C196.826 15.9703 200.048 14.0412 203.544 13.0383C204.344 12.8081 205.157 12.6264 205.979 12.4917C206.801 12.3571 207.629 12.2696 208.462 12.2306C210.398 12.1269 213.393 11.929 215.059 13.0127C215.289 13.4462 215.309 13.5189 215.166 14.0197C214.571 16.1036 213.195 17.9843 212.569 20.0951C211.658 23.1712 213.74 27.7213 210.194 29.6424C209.565 29.6828 209.553 29.676 209.03 29.3247C208.383 28.1602 208.462 25.842 207.278 25.2484C206.413 25.387 205.903 26.0386 205.306 26.6282C200.511 31.3655 198.208 31.3776 192.122 28.9814L192.309 29.0595L191.918 28.9639C192.903 30.3761 194.697 30.9792 195.902 32.1894C195.279 32.3536 194.661 32.5071 194.034 32.6525C193.613 32.7507 193.348 32.9419 192.991 33.1775L192.807 33.5948C193.392 34.7418 196.996 35.4324 198.282 36.0745C200.776 37.4786 203.05 39.0469 205.239 40.8926C207.93 43.1623 210.711 46.3555 213.912 47.804C215.663 48.5956 217.5 48.7679 219.382 48.9792C218.61 47.9426 217.117 46.3285 217.213 44.9406C217.23 44.6875 217.255 44.6687 217.339 44.4681C217.874 44.3321 218.152 44.4775 218.614 44.7494C219.848 45.4764 231.019 57.747 232.423 59.6452C233.734 61.4168 238.244 69.2853 239.389 70.0042C239.813 68.9542 238.796 66.535 238.359 65.5146C236.822 61.9351 235.285 58.1455 233.451 54.7181C232.271 52.5143 230.796 50.4829 229.586 48.2967L229.309 48.3627C228.377 48.5767 227.435 48.8581 226.555 48.3559C226.362 47.874 226.353 47.7649 226.583 47.2507C227.628 44.9231 230.844 43.4302 233.207 42.85C238.543 41.5414 245.991 44.4816 251.775 44.4896C255.839 44.495 260.582 43.2659 264.393 41.8268C267.282 40.7351 269.975 38.9608 273.163 38.9298C275.434 38.9069 277.197 39.7672 279.156 40.7728C276.96 36.6682 272.909 30.854 274.435 25.9632C274.982 24.2078 275.804 22.5412 276.344 20.783C276.749 19.4624 276.806 17.9358 277.391 16.6906C277.745 15.9394 278.274 15.2407 279.021 14.8463C279.761 14.4559 280.588 14.4303 281.361 14.7386C282.581 15.2259 283.366 16.389 283.819 17.5764C285.788 22.7256 283.504 28.2019 283.993 33.4535C284.293 36.6776 286.194 38.7696 287.151 41.7138C287.94 44.141 287.268 46.2599 287.524 48.675C287.689 50.2379 288.72 51.6662 288.622 53.2386C288.533 54.6535 287.762 56.1424 287.166 57.4078C285.574 60.7814 284.031 64.3959 281.962 67.503C280.392 69.8629 278.112 71.586 276.947 74.2259C278.528 73.398 280.376 72.698 281.821 71.6654C282.363 71.2777 283.315 70.2559 283.912 70.1482C284.454 70.9385 284.415 72.2053 284.55 73.1516L284.756 73.1799C285.195 72.7666 285.474 72.4247 285.684 71.8512C286.177 70.5077 286.169 68.9973 286.408 67.5959C286.741 65.6614 287.325 63.739 287.959 61.8853C289.353 57.8063 291.284 54.1338 292.994 50.2083C291.88 48.7342 290.558 47.3799 289.58 45.813C286.949 41.602 286.651 35.5778 287.294 30.788C288.548 21.4534 291.806 17.1927 285.228 8.57565C283.156 5.86171 280.964 4.15338 277.476 3.68625C276.528 3.55971 275.57 3.54085 274.615 3.52335V3.522ZM167.353 17.1631C168.922 18.2414 173.568 20.9674 175.411 20.8382C175.682 20.8194 175.855 20.7386 176.097 20.6484C176.134 20.3293 176.293 19.8232 176.093 19.5566C175.13 18.2589 169.633 17.3327 167.967 17.1819C167.764 17.1631 167.558 17.1671 167.353 17.1644V17.1631ZM354.895 29.7258C348.738 30.4003 347.016 33.5625 342.45 37.0344C346.218 35.2264 350.025 34.2302 353.986 32.9769L354.671 35.4405C353.542 39.3297 351.927 43.4248 348.211 45.5397C346.422 46.5574 343.958 46.4335 342.52 47.4284C342.667 47.9359 342.56 47.6303 342.755 48.0826C343.164 49.0317 343.182 50.1814 343.462 51.183C345.07 50.1033 346.717 48.6965 348.793 49.1798C349.556 49.3575 350.322 49.7439 351.014 50.1114C351.167 48.5969 350.941 44.7643 352.048 43.6981C352.63 43.1381 353.33 43.0304 354.091 43.1084C354.827 43.1838 355.567 43.3279 356.299 43.4436C357.676 42.7678 360.07 41.9049 360.635 40.3353C360.856 39.72 360.666 39.0591 360.339 38.5219C359.7 37.4746 357.922 35.9668 358.158 34.6502C358.314 33.782 359.237 33.0577 359.981 32.6754C361.398 31.9498 368.405 33.3808 370.021 33.996C370.115 34.0323 370.208 34.07 370.301 34.1064C372.065 36.3438 373.135 39.3364 372.808 42.2038C372.597 44.0521 371.717 45.6393 370.227 46.7634C369.421 47.3719 368.292 47.6936 367.349 48.0396C367.145 49.7466 367.121 51.5397 365.649 52.6907C364.334 53.7192 362.783 54.3035 361.588 55.515C358.528 58.614 358.595 62.1101 352.694 61.1758C348.706 60.5458 344.58 57.8534 341.782 55.0371C340.894 56.2837 339.897 57.3297 338.811 58.4053C344.794 61.402 351.081 65.3221 357.938 65.306C358.461 68.2541 360.343 75.8508 361.712 78.4422L361.951 78.3763C362.446 76.9681 362.336 75.3136 362.376 73.8342C362.507 68.973 363.787 65.4944 366.376 61.441C366.853 60.6145 367.322 59.66 368.096 59.0703L368.802 59.1875C369.229 61.3925 368.174 63.7524 367.384 65.7637C377.237 67.2162 384.467 67.511 393.779 63.3809C396.136 62.3349 398.608 61.1947 400.683 59.6411C401.764 58.8321 403.067 57.218 403.174 55.8112C403.196 55.5312 403.169 55.4935 403.107 55.2579C402.608 55.021 402.348 55.1058 401.847 55.2983C400.148 55.9512 398.189 58.1859 396.442 58.2774C394.986 58.3542 393.426 57.9449 391.969 57.8413C390.588 60.4273 389.248 61.861 386.339 62.7536C382.267 64.0028 376.113 64.0217 372.302 61.931C371.711 61.6066 371.243 61.2768 370.995 60.6198C370.745 59.9535 370.839 58.9855 370.959 58.3044C371.271 56.5301 372.118 54.9039 372.569 53.1713C373.013 51.471 372.789 49.4463 373.687 47.8969C374.282 46.8711 375.478 46.3622 376.589 46.1158C380.733 45.2004 387.828 47.8309 390.618 43.6025C391.038 42.9657 391.318 42.2038 391.576 41.4903C391.084 39.7389 390.156 37.5419 391.205 35.8268C392.078 34.3985 394.339 33.2273 395.941 32.9379C397.634 32.6323 399.24 33.16 400.613 34.1494C403.84 36.4757 404.322 41.8443 406.849 42.3451C407.587 42.1849 407.954 41.8497 408.37 41.2372C409.557 39.4912 410.52 36.4878 411.176 34.4497C409.293 32.2621 407.271 30.9024 404.319 30.6884C400.624 30.4205 396.908 31.0707 393.235 31.422C387.956 31.9282 382.439 32.3254 377.138 32.1867C374.051 32.1221 370.986 31.8394 367.939 31.3372C363.683 30.6264 359.245 29.3745 354.897 29.7245L354.895 29.7258ZM345.513 32.4977C342.934 32.989 337.537 34.626 335.956 36.8351C335.631 37.2888 335.312 37.9848 335.54 38.5381C335.781 39.1277 336.166 39.1008 336.713 39.222C337.378 38.981 338.012 38.7669 338.706 38.6256C338.872 37.9781 338.627 37.4961 338.452 36.8594C339.979 36.1405 345.085 33.86 345.791 32.5407L345.513 32.499V32.4977ZM331.772 34.2154L331.514 34.7754C331.788 35.178 331.62 35.0958 332.045 35.178C332.826 35.3301 333.854 35.0689 334.637 34.9558L335.07 34.4873C334.602 34.0566 334.042 34.0875 333.414 34.1104C332.866 34.1306 332.318 34.175 331.772 34.2154ZM329.036 37.2727C328.427 38.1733 327.652 39.1627 327.244 40.1697C326.439 42.158 326.126 44.2352 325.188 46.2007C325.15 46.2801 325.118 46.3636 325.08 46.443C324.429 47.835 321.736 48.9819 322.075 50.7468L322.877 51.0618C322.962 51.6635 322.776 52.0257 322.58 52.5844C322.004 53.244 320.861 53.2615 320.032 53.3826L320.124 53.6492C321.083 53.979 321.366 53.9359 321.83 54.9012C321.92 55.0937 322.009 55.2862 322.097 55.48C323.87 56.0858 325.831 54.084 327.567 54.9335C327.822 55.5473 327.631 56.1114 327.378 56.6957C327.011 57.5424 326.544 58.1549 325.664 58.4969C325.041 58.7392 324.339 58.6773 323.681 58.6948C323.371 58.7028 323.491 58.6813 323.211 58.8038C323.384 59.1202 323.297 59.1336 323.616 59.1955C324.874 59.4352 326.777 58.6046 327.774 57.8722C327.825 57.8345 327.872 57.7942 327.922 57.7551C332.032 53.6815 335.05 50.6149 337.245 45.0645C335.707 45.9341 334.272 46.7028 332.527 47.0797C331.518 46.8078 330.627 46.5466 329.568 46.5816C329.79 46.1172 330.079 45.9933 330.549 45.8156C331.76 45.3606 334.745 45.0672 335.59 44.1679L335.37 44.0306C334.841 43.6927 334.458 43.5002 334.231 42.8796C334.233 42.4071 334.338 42.0732 334.481 41.6303C334.692 40.9747 334.868 40.3406 334.584 39.6649C334.306 39.0025 333.617 38.6942 332.97 38.5071C331.76 38.1558 330.839 38.2096 329.665 37.593C329.538 37.5257 329.408 37.4651 329.28 37.3992L329.034 37.2713L329.036 37.2727ZM275.666 42.2226C275.074 44.456 274.786 46.2639 275.957 48.4071C277.228 50.736 279.991 52.3474 279.283 55.3643C278.703 57.8345 276.495 60.0073 275.222 62.1814C274.121 64.0621 273.25 66.0881 272.506 68.1343L272.697 68.2743C273.619 67.472 273.163 65.6694 274.775 65.8808C274.98 65.9077 275.3 66.0369 275.5 66.111C275.605 66.5929 275.537 66.9214 275.436 67.4007L275.706 67.4922C276.191 66.7989 276.581 66.0908 276.966 65.3396C277.293 64.8308 277.606 64.3084 277.968 63.8238C278.009 65.3019 278.067 66.78 278.142 68.2568C280.964 64.1765 284.181 57.3136 285.546 52.5265C282.826 47.5455 281.323 44.4425 275.665 42.2213L275.666 42.2226ZM268.327 43.8098C268.663 47.5886 271.42 51.5289 272.617 55.1839L272.498 55.5837C271.516 58.824 270.103 62.0899 268.744 65.1942C268.102 66.6602 267.243 68.1316 266.841 69.6784C267.173 70.0311 267.009 69.9867 267.468 70.0096C267.931 70.0338 268.165 69.9517 268.582 69.7794L268.897 69.3284L269.014 68.9878C270.042 66.0235 271.458 63.0241 272.93 60.255C273.844 58.5373 275.37 56.5045 275.853 54.6427C275.983 54.1392 275.787 53.8 275.581 53.3463C274.64 51.2758 272.683 49.8287 271.393 48.0005C270.612 46.8913 270.106 45.5316 269.279 44.4694C269.013 44.1275 268.726 43.9592 268.327 43.8111V43.8098ZM264.377 44.285C256.403 47.1618 252.92 49.3158 243.92 47.664C241.133 47.1524 238.445 46.058 235.6 45.9072C234.429 45.8453 232.644 45.6676 231.987 46.793C232.498 50.0643 239.587 57.712 241.498 61.3993C241.6 59.8027 241.471 57.0861 242.261 55.7331L242.581 55.8812C243.495 59.0784 243.437 62.3941 244.239 65.6008C244.577 62.347 244.955 59.0865 245.18 55.8247C246.312 58.6449 247.757 61.3346 248.416 64.3111C249.106 61.962 249.547 59.4917 250.342 57.1843L251.48 55.0869C251.414 57.7228 251.507 60.3506 251.474 62.9838C252.195 61.1327 252.876 59.2117 253.962 57.5357C254.022 59.3167 254.064 61.0991 254.085 62.8828L254.282 62.9084C255.06 61.3468 255.138 59.3598 255.471 57.6568C256.457 60.041 256.712 62.5395 257.439 64.9909C257.836 63.4751 258.409 59.7394 259.502 58.7163C260.002 59.1619 260.016 59.7892 260.045 60.4489C260.154 62.8357 259.958 65.2265 260.097 67.616C261.347 64.5709 261.39 61.3091 262.594 58.3353C263.132 60.3116 263.902 63.4576 263.466 65.4783C263.305 66.2281 262.733 67.0601 262.643 67.7816C262.61 68.0414 263.107 68.2878 263.28 68.4157C264.471 67.5689 268.267 58.4497 268.574 56.732C269.152 53.5025 265.805 47.8565 264.653 44.5031L264.381 44.285H264.377ZM411.207 45.9287C409.835 48.434 408.075 50.8491 406.818 53.3826C404.838 57.3728 405.323 59.8094 401.531 63.2328C403.888 65.2683 406.775 67.5568 408.328 70.2977C408.362 70.3569 408.397 70.4148 408.43 70.474C408.346 72.8003 408.234 75.1023 407.996 77.4191C407.857 79.0493 407.758 80.6917 407.401 82.291C410.534 79.5434 410.958 76.8739 411.217 72.8945C411.59 67.161 409.71 63.5694 409.912 58.2626C410.022 55.3508 411.674 48.0651 411.207 45.9287ZM338.695 46.6624C338.558 48.8338 338.486 51.0106 338.021 53.143L337.97 53.3867L339.674 51.7834C340.321 50.9487 341.667 49.4638 341.59 48.3842C341.552 47.8538 341.307 47.4392 340.855 47.1538C340.289 46.7957 339.345 46.7472 338.695 46.6624ZM210.891 49.3387C212.021 53.2911 212.393 57.1722 212.037 61.2795C211.942 62.3766 211.118 66.7572 211.289 67.4639C211.339 67.6686 211.565 67.783 211.704 67.9418C212.212 68.0617 212.663 68.0684 213.146 67.7937C213.573 67.5501 213.72 67.1274 213.893 66.6966C214.596 61.612 214.771 56.6633 216.007 51.6407C214.166 51.0874 212.55 50.3052 210.891 49.34V49.3387ZM224.183 55.577C223.809 58.5373 223.863 61.5501 223.543 64.5292C223.461 65.2831 222.909 67.7453 223.018 68.3538C223.049 68.5274 223.165 68.6728 223.237 68.833C224.155 67.1314 225.065 58.027 224.509 56.0131C224.43 55.725 224.43 55.7924 224.183 55.577ZM225.891 57.1143C225.812 58.5225 225.949 66.6683 226.665 67.5783L226.83 67.402C227.379 64.9277 227.827 59.9333 226.376 57.6986C226.237 57.4845 226.075 57.2893 225.891 57.1143ZM398.594 65.1336C397.785 65.695 397.1 66.0571 396.881 67.0802C396.577 68.5032 398.059 70.711 398.565 72.0666C397.391 75.0982 392.41 80.724 392.533 83.5658C392.783 83.8041 392.98 83.9509 393.293 84.0963C394.702 83.1162 395.987 80.8519 397.977 81.0929C398.335 81.136 398.708 81.2531 399.057 81.3473C399.657 80.9636 399.822 80.1384 399.968 79.468C400.821 75.5102 399.915 71.9347 399.188 68.0334C399.039 67.2297 399.022 66.0989 398.761 65.3679C398.728 65.2777 398.649 65.2117 398.594 65.135V65.1336ZM348.158 65.8916C348.274 67.9822 348.519 79.0197 349.467 80.0563C349.903 79.8436 350.057 79.6511 350.186 79.157C350.287 78.7693 350.143 78.2039 350.07 77.8149C349.877 74.094 350.835 71.2777 352.46 67.9634C351.045 67.1583 349.656 66.5216 348.158 65.8902V65.8916ZM258.671 67.1328L258.361 67.8395L258.527 68.0792L259.235 68.1707L259.63 67.5487C259.332 67.1247 259.163 67.223 258.671 67.1328ZM393.376 67.4962L390.127 68.4157C390.948 69.4819 391.634 70.4565 392.105 71.7354C391.179 75.3809 389.128 78.8003 387.933 82.4108L388.272 82.4916C390.673 79.7063 393.778 75.3042 395.418 72.0693C395.021 70.9317 394.444 68.2797 393.586 67.5272L393.375 67.4962H393.376ZM402.052 68.032C403.189 71.835 403.174 75.0444 403.176 78.9699C403.176 80.44 403.491 81.3621 402.851 82.8025L402.939 83.1458C403.312 82.8591 403.652 82.5724 403.988 82.2425C405.662 79.2311 405.757 74.623 405.708 71.2104C404.661 70.0917 403.365 68.8128 402.053 68.0307L402.052 68.032ZM366.715 68.2232C366.29 71.5658 365.971 74.9192 365.761 78.2833C370.954 78.6966 375.326 79.507 380.08 81.7323C381.862 80.4871 383.559 79.1382 385.172 77.6816C386.729 76.2613 387.898 74.825 389.014 73.0385C388.501 71.6533 388.022 70.2411 387.409 68.8976C380.092 69.599 373.976 69.673 366.714 68.2218L366.715 68.2232ZM228.129 68.8774L227.982 69.1871L228.274 69.1669L228.41 68.8007L228.129 68.8788V68.8774ZM356.382 68.7024C353.853 71.8889 353.381 75.2988 353.26 79.2566L356.469 78.9417L359.691 78.5997C358.981 76.3771 357.551 70.1994 356.382 68.7024ZM311.275 70.8389L310.798 71.0179L311.213 70.781L311.763 70.5817L311.275 70.8375V70.8389ZM361.628 81.9693C353.86 82.6275 342.693 86.4898 335.327 89.2414C329.358 91.4707 323.808 93.7485 317.438 94.6976C311.307 95.6103 304.84 95.5632 298.674 95.0207C291.192 94.3624 284.063 92.3996 276.62 94.4607L276.317 94.5455C270.532 96.2107 266.422 99.486 262.077 103.49C260.764 104.7 259.36 105.906 258.201 107.266C255.63 110.28 255.364 113.709 255.687 117.493C256.754 113.48 259.469 108.419 263.22 106.31C263.839 105.961 264.213 105.946 264.888 106.117C265.486 106.556 265.845 106.959 265.988 107.713C266.432 110.074 266.09 115.76 265.813 118.292C267.044 116.763 267.93 115.23 268.756 113.45C269.73 111.35 271.183 105.411 273.957 105.29C275.089 105.24 276.355 106.096 277.073 106.896C277.955 107.874 278.66 109.006 279.553 109.982C281.353 111.948 283.698 113.691 284.915 116.106C287.337 120.912 284.325 125.561 287.843 130.004C292.53 135.924 297.871 131.216 301.402 139.063C302.373 143.396 302.101 147.284 300.663 151.495C313.273 153.792 325.799 153.354 337.853 148.682C340.815 147.533 343.856 146.214 346.471 144.387C349.589 142.209 356.478 133.606 360.194 134.381C361.156 134.582 364.974 138.662 366.104 139.534C370.615 143.014 376.27 145.304 380.149 149.553C380.092 153.046 379.804 156.531 379.67 160.022C381.326 159.976 382.984 159.948 384.642 159.936C385.892 153.54 387.434 147.603 389.457 141.412C388.283 139.159 387.103 136.948 386.374 134.502C384.003 126.553 385.441 117.159 385.545 108.957C385.582 105.999 384.688 103.176 385.581 100.261C386.604 96.9323 387.26 95.1055 385.508 91.7817C383.252 87.4967 378.542 84.4315 374.006 83.0543C370.037 81.8481 365.741 81.6866 361.63 81.9733L361.628 81.9693ZM159.671 82.186C161.864 82.3569 163.867 82.6572 165.94 83.4218C168.294 84.2888 170.911 86.8667 173.346 86.6069C169.13 83.9185 164.986 81.0242 159.67 82.186H159.671ZM209.734 83.232C207.087 83.7691 204.469 84.4274 201.841 85.0467L203.58 85.9917C205.265 86.4588 206.701 86.1667 208.221 85.3119C209.084 84.8272 209.718 84.2753 210.291 83.4743L210.314 83.1674L209.734 83.2306V83.232ZM36.4982 83.337C36.0178 87.5937 35.5617 91.8275 34.5766 96.0048C32.9215 103.02 29.237 109.297 29.6421 116.72C29.6905 117.605 29.6838 118.717 30.035 119.536C30.393 119.295 30.5477 119.052 30.7724 118.688C31.2434 118.568 32.0118 118.551 32.2607 118.142C32.285 118.057 32.3078 117.972 32.3321 117.887C33.2552 114.74 36.6315 112.459 38.4723 109.76C39.6821 107.987 40.5366 106.068 40.6294 103.892C40.6684 102.994 40.581 102.09 40.4289 101.205C40.0494 99.0081 39.3039 96.8798 38.8464 94.6963C38.0902 91.083 37.9112 86.7227 36.4969 83.3383L36.4982 83.337ZM158.545 87.35C159.082 87.7391 159.437 87.9948 160.143 87.9464C160.511 87.9208 160.936 87.7606 161.286 87.6408C160.641 87.1158 159.98 87.1965 159.181 87.2787C158.969 87.3002 158.756 87.3244 158.543 87.3514L158.545 87.35ZM168.865 89.057C170.377 89.9845 172.665 89.8216 174.387 90.3709L175.037 90.2094C174.621 89.5713 174.235 89.4191 173.491 89.2724C172.048 88.9883 170.33 88.9587 168.865 89.057ZM170.525 91.4654C169.963 92.0752 169.611 92.5558 169.284 93.3218L169.321 93.6489C169.732 93.7229 169.918 93.6704 170.303 93.5156C170.411 93.4618 170.517 93.4066 170.625 93.3541C171.092 93.1279 170.902 93.2073 171.402 93.0525L171.782 92.4481L171.676 91.9917C171.277 91.7561 170.987 91.5569 170.524 91.4654H170.525ZM166.119 91.9406C165.156 93.035 163.591 94.6612 163.697 96.2242C163.708 96.3723 163.754 96.5109 163.795 96.6509C164.561 95.6548 166.25 93.1562 166.119 91.9406ZM205.035 93.0835C205.125 94.3705 205.224 95.6345 205.136 96.9242C209.07 96.935 213.389 96.4598 216.769 94.2507L216.743 93.9545C215.544 93.9437 214.248 94.5199 213.074 94.7811C211.077 95.2253 207.258 95.2818 205.732 93.7472C205.686 93.7014 205.648 93.6462 205.607 93.5964L206.258 93.7835C205.862 93.3312 205.608 93.241 205.033 93.0835H205.035ZM181.584 97.9864C181.734 99.0297 181.963 99.8199 182.847 100.473C183.48 100.941 184.318 101.237 185.069 101.46C185.1 100.486 185.229 99.5426 184.803 98.642C184.298 98.1183 183.865 98.0025 183.161 97.9823C182.635 97.9729 182.109 97.9743 181.582 97.9877L181.584 97.9864ZM60.2304 112.085C58.0437 115.549 55.9242 119.378 53.3486 122.559C60.5776 130.923 66.5927 139.818 69.5572 150.596C72.0345 151.568 73.8754 152.02 76.5466 151.993C77.0243 151.96 77.4051 152.04 77.7711 151.713C77.1333 149.628 74.5738 148.333 73.3977 146.541C72.2633 144.814 72.2916 142.635 71.3092 140.864C68.6462 136.057 64.881 131.605 62.806 126.496C64.3696 123.671 65.8351 120.748 67.8145 118.187C65.6359 116.095 63.0939 113.216 60.229 112.085H60.2304ZM388.731 112.533C388.427 120.239 387.267 128.972 390.119 136.311C390.809 133.584 391.606 130.602 393.445 128.394C394.021 130.391 393.574 132.634 393.343 134.669C394.907 131.561 395.827 128.748 394.679 125.271C393.787 122.572 391.977 120.284 390.699 117.767C389.839 116.075 389.414 114.283 388.731 112.532V112.533ZM23.7817 115.542C23.2313 116.555 22.6473 117.64 22.6554 118.82L22.8855 119.045L22.9945 118.888C23.2381 118.539 23.4399 118.28 23.7521 117.987C24.067 117.691 24.1329 117.473 24.2635 117.073C24.1639 116.521 24.1141 116.012 23.7817 115.544V115.542ZM206.551 118.703C205.218 120.317 204.718 121.635 204.959 123.778C205.067 124.735 205.253 125.909 206.04 126.52L206.351 126.43C207.508 124.748 208.48 122.63 208.159 120.527C208.056 119.849 207.757 119.282 207.158 118.912C206.87 118.734 206.877 118.765 206.553 118.704L206.551 118.703ZM141.807 121.285C140.631 123.267 140.055 125.659 139.39 127.852C141.215 127.519 143.036 127.163 144.852 126.782C145.75 126.55 146.638 126.405 147.376 125.814L147.584 125.336C147.302 124.796 146.898 124.536 146.331 124.349C145.661 124.128 144.909 124.021 144.216 123.885C143.803 123.211 143.051 121.577 142.25 121.346C142.066 121.292 141.985 121.296 141.806 121.284L141.807 121.285ZM148.178 128.175C144.643 128.548 140.731 128.992 137.332 130.03C140.431 131.643 145.089 134.381 148.447 134.962C151.598 135.031 154.413 133.771 156.67 131.55C157.181 131.046 157.714 130.418 157.682 129.658C157.669 129.33 157.473 129.059 157.227 128.847C155.769 127.581 150.111 127.915 148.178 128.175ZM274.128 132.767C271.465 136.241 268.036 138.656 265.093 141.764C264.825 142.046 264.432 142.435 264.471 142.84C264.504 143.168 264.592 143.329 264.755 143.605C267.002 143.971 268.869 143.383 270.866 142.422C272.199 140.424 274.471 135.493 274.199 133.111C274.186 132.996 274.152 132.883 274.129 132.768L274.128 132.767ZM233.731 133.048C233.483 133.32 233.304 133.505 233.167 133.852C232.828 134.708 230.602 144.857 230.497 146.187C230.277 148.97 230.797 151.804 230.316 154.57C229.849 157.26 228.196 159.725 227.827 162.352C228.281 162.76 229.098 163.32 229.737 163.297C230.452 163.272 231.867 162.251 232.38 161.768C232.683 160.967 232.126 160.69 232.341 160.021C232.796 158.605 233.778 157.406 234.227 155.947C233.804 154.299 233.327 152.65 232.989 150.982C232.976 149.796 233.014 148.465 233.896 147.56C234.721 146.715 235.751 146.077 236.475 145.129C238.322 142.711 238.715 139.837 241.761 138.445C244.043 137.403 246.719 137.333 248.855 135.971C249.538 135.535 250.206 134.894 250.272 134.036C250.291 133.794 250.238 133.588 250.192 133.356L249.865 133.195C248 134.359 245.113 136.406 242.845 135.998C242.553 135.77 242.363 135.75 242.314 135.368C242.277 135.089 242.257 134.817 242.244 134.537C239.98 133.019 236.359 132.965 233.731 133.05V133.048ZM148.194 138.013C149.229 142.119 151.275 145.822 152.535 149.841C154.042 154.647 154.271 159.426 154.953 164.353C157.155 165.788 159.079 166.48 161.737 166.186L161.94 166.038C161.083 164.075 159.974 162.231 159.158 160.255C158.366 158.33 157.825 156.305 157.083 154.36C156.371 152.491 155.548 150.818 155.308 148.8C154.973 145.984 155.669 142.983 155.21 140.229C155.167 139.969 155.089 139.813 154.923 139.611C154.269 139.806 154.095 139.969 153.438 139.63C152.729 139.264 152.075 138.572 151.526 137.993L148.192 138.016L148.194 138.013ZM358.746 138.118C360.654 140.347 364.329 143.585 364.006 146.77C363.722 149.576 360.552 154.853 359.442 157.836C360.799 158.335 362.247 159.156 363.683 158.591C363.956 158.257 364.216 157.934 364.443 157.567C366.327 153.842 368.379 150.173 370.134 146.388C368.413 145.366 366.656 144.364 365.054 143.16C363.353 141.879 360.612 138.822 358.746 138.119V138.118ZM251.904 138.603C250.856 139.365 249.859 139.974 248.68 140.516C249.657 140.516 250.532 140.462 251.449 140.848L251.747 141.22C251.588 141.804 251.087 142.135 250.592 142.437C249.953 142.826 249.233 143.134 248.557 143.453C249.238 144.235 250.061 144.856 250.863 145.506C252.226 143.672 252.729 141.887 252.35 139.579C252.274 139.121 252.204 138.961 251.903 138.603H251.904ZM356.06 140.288C354.293 142.54 352.518 144.712 350.264 146.506C343.382 151.983 332.831 154.688 324.156 155.741C320.245 156.215 316.129 156.41 312.198 156.165C309.613 156.005 301.281 154.454 299.639 154.837C299.054 155.822 299.406 157.239 299.674 158.291C300.557 161.757 301.781 165.85 303.582 168.945C304.969 167.803 306.198 166.561 307.425 165.251C307.228 166.947 306.908 168.556 306.475 170.206C308.853 167.083 311.409 162.864 314.815 160.873C314.405 162.902 313.802 164.84 313.178 166.81C316.044 163.848 319.104 160.468 323.053 158.988L323.458 159.17C322.234 162.168 319.704 164.378 318.43 167.798C320.622 165.128 322.702 162.441 325.894 160.9C325.132 162.138 324.344 163.28 323.429 164.409C325.115 163.708 328.729 162.013 330.558 162.566C330.671 162.907 330.639 162.976 330.936 163.202C334.031 161.37 336.268 158.522 339.547 156.869C339.714 156.786 339.877 156.698 340.042 156.612C339.211 158.685 337.798 160.427 336.491 162.22C337.466 161.899 339.713 160.921 340.709 161.224C341.014 161.317 341.337 161.608 341.59 161.796C342.261 161.628 342.626 161.048 342.964 160.488C343.724 159.229 344.6 157.051 346.023 156.48C346.231 156.397 346.371 156.399 346.581 156.383C347.292 157.677 345.042 160.134 346.385 161.305C347.09 161.285 347.549 161.232 348.067 160.709C349.182 159.585 353.401 153.349 354.36 153.202C355.029 154.726 353.433 158.866 352.855 160.435C353.889 159.513 354.861 158.666 355.61 157.486L355.826 157.151C357.069 155.184 357.89 152.82 358.836 150.696C359.536 149.126 360.373 147.589 360.977 145.981C359.411 144.149 357.821 141.901 356.059 140.288H356.06ZM244.709 143.81C243.149 144.152 241.599 144.29 240.701 145.793C240.109 146.785 240.151 147.922 240.488 148.997C240.813 150.036 241.801 152.178 242.861 152.622C243.103 152.723 243.504 152.645 243.729 152.545C244.195 152.339 244.699 151.743 244.838 151.239C244.921 150.935 244.916 150.857 244.939 150.566L244.694 150.36C244.302 150.758 244.118 151.052 243.908 151.568C243.323 151.619 242.712 151.615 242.211 151.246C242.001 151.091 241.988 151.051 241.851 150.867L241.903 150.507C242.351 150.216 242.735 150.041 243.242 149.877C242.589 149.644 242.09 149.593 241.665 149.032C241.544 148.029 241.631 147.269 242.275 146.45C242.98 145.553 243.961 145.121 245.079 145.031L245.378 145.009C245.822 144.974 246.612 145.046 246.898 144.709C246.248 144.142 245.586 143.835 244.71 143.81H244.709ZM244.783 146.338C244.18 146.543 243.697 146.644 243.321 147.201C243.445 147.559 243.358 147.523 243.667 147.688C244.148 147.947 244.658 147.964 245.189 148.018C245.701 147.653 245.901 147.574 246.153 146.981C245.916 146.556 245.862 146.458 245.343 146.358C245.184 146.327 244.948 146.335 244.783 146.337V146.338ZM273.704 146.559C271.967 147.088 270.949 148.43 269.597 149.55C265.856 152.65 260.878 153.279 256.226 153.72C255.253 155.865 254.784 157.756 254.472 160.085C255.746 159.5 257.015 158.88 258.33 158.388C265.124 155.986 271.778 155.282 278.909 154.898C277.367 154.281 275.835 153.782 275.133 152.128C274.607 150.889 275.55 147.164 274.802 146.786C274.425 146.596 274.116 146.587 273.704 146.559ZM193.457 147.384L193.298 148.108L193.529 148.336L194.59 148.119L194.837 147.552C194.427 147.247 193.96 147.374 193.458 147.384H193.457ZM196.608 148.61C196.533 149.158 196.375 149.464 196.667 149.957C197.009 150 197.327 150.035 197.673 150.035C197.564 149.466 197.543 149.246 197.066 148.861C196.936 148.756 196.759 148.682 196.608 148.61ZM187.616 151.756C187.217 152.54 186.81 153.319 186.438 154.116C184.497 154.198 182.566 153.933 180.639 153.726C181.05 155.503 181.42 157.233 182.197 158.893C182.94 158.813 183.822 158.619 184.532 158.87C184.754 159.342 184.703 159.55 184.501 160.034C184.391 160.299 184.225 160.559 184.084 160.807C185.634 160.127 186.977 159.559 188.716 159.761L188.919 159.955L188.915 159.877C188.385 160.61 187.672 160.543 187.249 161.238L188.25 160.99L188.323 161.213C187.665 162.23 186.362 163.918 186.545 165.159C187.542 165.13 188.268 163.9 189.071 163.37C189.95 162.79 191.173 162.389 192.146 161.916C191.127 163.693 189.73 165.167 188.444 166.748C190.285 165.863 191.659 164.315 193.346 163.603L193.638 163.723C193.652 164.135 193.641 164.509 193.586 164.917C194.211 165.1 195.19 164.703 195.825 164.532C195.51 165.22 192.867 167.611 191.991 169.009C194.226 167.45 195.717 166.583 198.361 165.901C197.948 166.772 196.818 168.422 196.796 169.285L197.211 169.311C198.04 168.596 198.702 168.463 199.769 168.308L200.114 168.465C200.013 168.802 199.905 169.052 199.717 169.35C200.762 168.469 202.579 166.477 203.825 166.107C203.525 167.429 201.829 169.172 202.248 170.459C203.62 170.158 206.266 167.328 207.722 166.418L204.354 171.275C206.571 170.287 208.848 169.338 210.947 168.111L211.24 168.161L211.371 168.592C211.871 168.133 212.204 167.512 212.214 166.818C212.243 164.411 209.533 163.381 208.859 161.417C208.279 159.726 208.751 155.716 207.555 154.618C206.647 154.356 205.807 154.307 204.87 154.255C201.661 154.076 198.491 153.795 195.326 153.194C192.773 152.709 190.223 151.843 187.618 151.755L187.616 151.756ZM286.044 153.241C282.086 155.97 281.377 167.849 279.275 172.543C278.411 174.475 276.901 176.206 275.538 177.811C278.233 178.594 280.547 179.389 282.833 181.054C282.978 179.263 282.947 177.415 283.25 175.646C284.076 170.823 287.272 165.688 289.931 161.65C290.706 160.472 293.182 157.497 292.697 156.154C291.16 154.757 288.128 153.191 286.044 153.241ZM293.995 161.337C291.246 165.441 287.408 170.251 286.388 175.12C286.79 175.533 286.831 175.571 287.392 175.689C288.136 175.139 288.715 173.15 289.081 172.263L290.375 168.915C290.679 170.477 291 172.021 291.109 173.612C292.526 171.321 293.925 169.829 295.964 168.086C295.611 166.628 294.855 162.229 293.996 161.337H293.995ZM225.608 167.069C223.934 167.282 222.258 167.382 221.098 168.78C221.028 168.865 220.962 168.954 220.9 169.046C220.839 169.137 220.783 169.233 220.732 169.331C220.681 169.429 220.636 169.529 220.596 169.633C220.556 169.735 220.522 169.84 220.494 169.948C220.465 170.054 220.442 170.162 220.426 170.271C220.409 170.38 220.398 170.489 220.393 170.599C220.387 170.71 220.389 170.82 220.395 170.93C220.402 171.041 220.416 171.15 220.434 171.259C220.452 171.361 220.475 171.462 220.503 171.563C220.531 171.663 220.564 171.761 220.601 171.858C220.639 171.955 220.682 172.049 220.729 172.142C220.778 172.235 220.829 172.324 220.887 172.411C220.943 172.499 221.004 172.582 221.07 172.663C221.136 172.744 221.204 172.822 221.278 172.894C221.351 172.968 221.428 173.038 221.508 173.104C221.589 173.17 221.672 173.232 221.759 173.29C221.83 173.339 221.905 173.383 221.981 173.425C222.057 173.465 222.135 173.503 222.216 173.535C222.297 173.568 222.379 173.596 222.462 173.62C222.546 173.644 222.631 173.663 222.715 173.678C222.8 173.693 222.886 173.704 222.974 173.709C223.06 173.714 223.147 173.716 223.233 173.713C223.32 173.709 223.406 173.701 223.492 173.689C223.578 173.677 223.663 173.659 223.746 173.638C224.134 173.538 224.547 173.368 224.902 173.184C224.98 173.145 225.058 173.103 225.136 173.065C225.964 172.67 230.022 171.873 230.286 171.575C230.423 171.422 230.464 171.204 230.552 171.018C230.488 169.988 229.915 169.335 229.15 168.69C228.185 167.876 226.915 166.936 225.608 167.069ZM273.743 180.303C270.447 181.704 267.861 184.958 266.431 188.194C267.444 188.663 268.436 189.088 269.495 189.449C270.163 187.742 271.161 184.531 272.773 183.555L273.226 183.62C273.517 184.041 273.647 184.359 273.773 184.853C273.302 186.534 272.645 188.124 271.991 189.741C274.529 189.212 278.79 188.369 280.276 185.997C280.693 185.331 280.843 184.39 280.645 183.624C280.491 183.035 280.327 182.803 279.794 182.506C279.069 182.104 278.131 182.088 277.36 181.787C276.491 181.45 275.794 180.654 274.927 180.386C274.546 180.269 274.136 180.277 273.743 180.3V180.303Z" fill="#006838"/>
</svg>
